<?xml version="1.0" encoding="UTF-8" standalone="no"?>
<!DOCTYPE svg PUBLIC "-//W3C//DTD SVG 1.1//EN" "http://www.w3.org/Graphics/SVG/1.1/DTD/svg11.dtd">
<svg width="100%" height="100%" viewBox="0 0 330 523" version="1.1" xmlns="http://www.w3.org/2000/svg" xmlns:xlink="http://www.w3.org/1999/xlink" xml:space="preserve" xmlns:serif="http://www.serif.com/" style="fill-rule:evenodd;clip-rule:evenodd;stroke-linecap:round;stroke-linejoin:round;stroke-miterlimit:1.5;">
    <g transform="matrix(1,0,0,1,-193381,-136695)">
        <g id="_01" serif:id="01">
        </g>
        <g id="_011" serif:id="01">
        </g>
        <g id="_012" serif:id="01">
        </g>
        <g id="_013" serif:id="01">
        </g>
        <g id="Artboard24" transform="matrix(0.67511,0,0,1.32897,147875,116060)">
            <rect x="67404.4" y="15526.8" width="488.38" height="392.839" style="fill:none;"/>
            <g transform="matrix(1.48124,0,0,0.752461,-36022.4,4705.51)">
                <g transform="matrix(0.938348,0,0,0.839342,47598.6,551.249)">
                    <g transform="matrix(7.70021,0,0,7.1495,19201.1,12384.7)">
                        <path d="M607.917,643.973C607.009,643.973 606.1,643.873 605.19,643.773L604.988,643.773C604.383,643.673 604.08,643.173 603.979,642.573C603.878,641.973 604.383,641.473 604.888,641.373C605.09,641.273 605.292,641.273 605.493,641.373C610.645,642.073 615.492,640.473 618.824,637.073C621.754,634.073 623.167,629.873 622.864,625.373C620.542,626.473 618.319,626.673 616.3,626.873C613.775,627.073 611.856,627.273 610.24,628.973C608.321,630.973 607.009,633.473 606.402,636.273C606.302,636.973 605.595,637.373 604.888,637.273C604.181,637.173 603.776,636.473 603.878,635.773C604.483,632.473 606.1,629.473 608.321,627.173C610.543,624.873 613.371,624.573 615.997,624.373C618.319,624.173 620.743,623.973 623.167,622.373C623.571,622.173 623.976,622.073 624.379,622.273C624.783,622.473 625.086,622.773 625.086,623.173C626.298,629.073 624.683,634.773 620.743,638.773C617.512,642.173 612.967,643.973 607.917,643.973" style="fill:rgb(151,192,107);fill-rule:nonzero;"/>
                    </g>
                    <g transform="matrix(7.70021,0,0,7.1495,19201.1,12693.6)">
                        <path d="M604.028,611.73L604.08,599.273C604.08,598.573 604.686,598.073 605.393,598.073C606.1,598.073 606.604,598.673 606.604,599.273L606.553,611.738" style="fill:rgb(151,192,107);fill-rule:nonzero;"/>
                    </g>
                    <g transform="matrix(7.70021,0,0,7.1495,19201.1,12444.8)">
                        <path d="M605.292,635.373C604.988,635.373 604.686,635.273 604.383,635.073C603.878,634.573 603.878,633.773 604.383,633.273L614.381,622.773C614.886,622.273 615.694,622.273 616.199,622.773C616.704,623.273 616.704,624.073 616.199,624.573L606.2,635.073C605.998,635.273 605.695,635.373 605.292,635.373" style="fill:rgb(151,192,107);fill-rule:nonzero;"/>
                    </g>
                    <g transform="matrix(7.58202,0,0,7.1495,19270.2,12383.3)">
                        <path d="M587.617,625.673C587.314,630.073 588.729,634.273 591.657,637.273C594.485,640.173 598.323,641.673 602.666,641.673C603.171,641.673 603.676,641.673 604.181,641.573C604.383,639.773 604.383,637.973 603.979,636.273C603.474,633.573 602.161,630.973 600.242,628.973C598.727,627.373 596.606,627.273 594.283,627.073C592.162,626.973 589.84,626.873 587.617,625.673ZM602.666,644.173C597.616,644.173 593.071,642.373 589.84,638.973C585.9,634.973 584.285,629.273 585.396,623.273C585.497,622.873 585.8,622.473 586.204,622.273C586.607,622.073 587.113,622.173 587.416,622.473C589.638,624.273 591.961,624.373 594.485,624.573C597.111,624.773 599.938,624.973 602.161,627.173C604.483,629.473 605.998,632.473 606.604,635.773C607.009,638.073 607.009,640.473 606.604,642.873C606.504,643.373 606.1,643.773 605.493,643.873C604.585,644.073 603.574,644.173 602.666,644.173" style="fill:rgb(151,192,107);fill-rule:nonzero;"/>
                    </g>
                    <g transform="matrix(7.70021,0,0,7.1495,19187.2,12438.7)">
                        <path d="M605.292,634.073C604.988,634.073 604.686,633.973 604.483,633.773L594.283,624.573C593.778,624.073 593.778,623.273 594.183,622.773C594.688,622.273 595.495,622.273 596,622.673L606.2,631.873C606.705,632.373 606.705,633.173 606.302,633.673C605.998,633.973 605.695,634.073 605.292,634.073" style="fill:rgb(151,192,107);fill-rule:nonzero;"/>
                    </g>
                </g>
                <g transform="matrix(0.962578,0,0,0.966717,46821.8,-1238.35)">
                    <g transform="matrix(1.16436,-0.0132777,0.0187743,1.04837,22748.4,15723.3)">
                        <path d="M1119.49,454.663L1119.49,495.902" style="fill:none;stroke:white;stroke-width:13.03px;"/>
                    </g>
                    <g transform="matrix(0.0187743,1.04837,-1.16436,0.0132777,24695.6,15116.4)">
                        <path d="M1119.49,454.663L1119.49,495.902" style="fill:none;stroke:white;stroke-width:13.04px;"/>
                    </g>
                    <g transform="matrix(-0.810054,0.7507,-0.836605,-0.731922,25439.3,15868.3)">
                        <path d="M1119.49,454.663L1119.49,495.902" style="fill:none;stroke:white;stroke-width:12.69px;"/>
                    </g>
                    <g transform="matrix(-0.810054,0.7507,-0.836605,-0.731922,25296,15741.6)">
                        <path d="M1119.49,454.663L1119.49,495.902" style="fill:none;stroke:white;stroke-width:12.69px;"/>
                    </g>
                    <g transform="matrix(-0.836605,-0.731922,0.810054,-0.7507,24685.6,17408.6)">
                        <path d="M1119.49,454.663L1119.49,495.902" style="fill:none;stroke:white;stroke-width:13.41px;"/>
                    </g>
                    <g transform="matrix(-1.16436,0.0132777,-0.0187743,-1.04837,25379.3,16872.6)">
                        <path d="M1119.49,454.663L1119.49,495.902" style="fill:none;stroke:white;stroke-width:13.03px;"/>
                    </g>
                    <g transform="matrix(-0.0187743,-1.04837,1.16436,-0.0132777,23432.1,17479.5)">
                        <path d="M1119.49,454.663L1119.49,495.902" style="fill:none;stroke:white;stroke-width:13.04px;"/>
                    </g>
                    <g transform="matrix(0.836605,0.731922,-0.810054,0.7507,23442.1,15187.2)">
                        <path d="M1119.49,454.663L1119.49,495.902" style="fill:none;stroke:white;stroke-width:13.41px;"/>
                    </g>
                    <g transform="matrix(1.16436,-0.0132777,0.0187743,1.04837,22725.7,15698.1)">
                        <circle cx="1139.52" cy="585.666" r="46.128" style="fill:white;"/>
                    </g>
                </g>
                <g transform="matrix(2.91402e-17,0.475896,-0.879804,5.38725e-17,84308.2,3278.6)">
                    <path d="M23810.1,16328.6L23810.1,16317.1L23921.4,16317.1L23921.4,16306.4L23951.8,16322.9L23921.4,16339.3L23921.4,16328.6L23810.1,16328.6Z" style="fill:white;"/>
                </g>
                <g transform="matrix(-0.000154877,-0.475896,0.879804,-0.000286326,55677.4,26012.9)">
                    <path d="M23810.1,16328.6L23810.1,16317.1L23921.4,16317.1L23921.4,16306.4L23951.8,16322.9L23921.4,16339.3L23921.4,16328.6L23810.1,16328.6Z" style="fill:white;"/>
                </g>
            </g>
        </g>
    </g>
</svg>
