<svg width="43" height="43" viewBox="0 0 43 43" fill="none" xmlns="http://www.w3.org/2000/svg">
<path d="M7.16634 35.8327C6.18092 35.8327 5.33735 35.4818 4.63561 34.7801C3.93388 34.0783 3.58301 33.2348 3.58301 32.2493V10.7493C3.58301 9.76393 3.93388 8.92036 4.63561 8.21862C5.33735 7.51688 6.18092 7.16602 7.16634 7.16602H35.833C36.8184 7.16602 37.662 7.51688 38.3637 8.21862C39.0655 8.92036 39.4163 9.76393 39.4163 10.7493V32.2493C39.4163 33.2348 39.0655 34.0783 38.3637 34.7801C37.662 35.4818 36.8184 35.8327 35.833 35.8327H7.16634ZM21.4997 23.291L7.16634 14.3327V32.2493H35.833V14.3327L21.4997 23.291ZM21.4997 19.7077L35.833 10.7493H7.16634L21.4997 19.7077ZM7.16634 14.3327V10.7493V32.2493V14.3327Z" fill="white"/>
</svg>
