<svg width="49" height="49" viewBox="0 0 49 49" fill="none" xmlns="http://www.w3.org/2000/svg">
<path d="M24.5 0C17.8458 0 17.0116 0.0282452 14.3985 0.147575C11.7911 0.266328 10.0098 0.680237 8.45164 1.28611C6.84041 1.91215 5.47416 2.74976 4.11196 4.11196C2.74976 5.47416 1.91216 6.8404 1.28612 8.45163C0.680822 10.0098 0.266319 11.7906 0.147566 14.3985C0.0282364 17.0122 0 17.8458 0 24.5C0 31.1536 0.0282364 31.9883 0.147566 34.6015C0.266319 37.2089 0.680822 38.9902 1.28612 40.5484C1.91216 42.1596 2.74976 43.5258 4.11196 44.8875C5.47416 46.2497 6.84041 47.0873 8.45164 47.7139C10.0098 48.3192 11.7911 48.7337 14.3985 48.8524C17.0116 48.9718 17.8458 49 24.5 49C31.1536 49 31.9878 48.9718 34.6009 48.8524C37.2089 48.7337 38.9902 48.3192 40.5484 47.7139C42.1596 47.0873 43.5258 46.2497 44.888 44.8875C46.2497 43.5258 47.0878 42.1596 47.7139 40.5484C48.3192 38.9902 48.7337 37.2089 48.8524 34.6015C48.9718 31.9883 49 31.1536 49 24.5C49 17.8464 48.9718 17.0122 48.8524 14.3985C48.7337 11.7906 48.3192 10.0098 47.7139 8.45163C47.0878 6.8404 46.2497 5.47416 44.888 4.11196C43.5258 2.74976 42.1596 1.91215 40.5484 1.28611C38.9902 0.680237 37.2089 0.266328 34.6009 0.147575C31.9878 0.0282452 31.1536 0 24.5 0ZM24.5 4.41461C31.0418 4.41461 31.8166 4.4394 34.4003 4.557C36.7886 4.66653 38.0857 5.06545 38.9492 5.40095C40.093 5.84541 40.9093 6.37634 41.7665 7.23355C42.6237 8.09077 43.1546 8.90705 43.599 10.0502C43.9345 10.9137 44.3335 12.2108 44.443 14.5997C44.5606 17.1834 44.5854 17.9582 44.5854 24.5C44.5854 31.0418 44.5606 31.8166 44.443 34.4003C44.3335 36.7886 43.9345 38.0863 43.599 38.9492C43.1546 40.0929 42.6237 40.9092 41.7665 41.7665C40.9093 42.6237 40.093 43.1546 38.9492 43.599C38.0857 43.9345 36.7886 44.334 34.4003 44.4424C31.8166 44.5606 31.0424 44.5854 24.5 44.5854C17.9576 44.5854 17.1829 44.5606 14.5997 44.4424C12.2114 44.334 10.9137 43.9345 10.0508 43.599C8.90705 43.1546 8.09075 42.6237 7.23354 41.7665C6.37633 40.9092 5.84542 40.0929 5.40096 38.9492C5.06546 38.0863 4.66655 36.7886 4.55702 34.4003C4.43942 31.8166 4.41462 31.0418 4.41462 24.5C4.41462 17.9582 4.43942 17.1834 4.55702 14.5997C4.66655 12.2108 5.06546 10.9137 5.40096 10.0502C5.84542 8.90705 6.37575 8.09077 7.23354 7.23355C8.09075 6.37634 8.90705 5.84541 10.0508 5.40095C10.9137 5.06545 12.2114 4.66653 14.5997 4.557C17.1834 4.4394 17.9582 4.41461 24.5 4.41461Z" fill="white"/>
<path d="M24.4998 32.6696C19.9895 32.6696 16.333 29.0131 16.333 24.5028C16.333 19.9925 19.9895 16.3359 24.4998 16.3359C29.0101 16.3359 32.6667 19.9925 32.6667 24.5028C32.6667 29.0131 29.0101 32.6696 24.4998 32.6696ZM24.4998 11.9219C17.5516 11.9219 11.9189 17.5546 11.9189 24.5028C11.9189 31.451 17.5516 37.0837 24.4998 37.0837C31.448 37.0837 37.0807 31.451 37.0807 24.5028C37.0807 17.5546 31.448 11.9219 24.4998 11.9219Z" fill="white"/>
<path d="M40.5181 11.4244C40.5181 13.0483 39.202 14.3644 37.5787 14.3644C35.9548 14.3644 34.6387 13.0483 34.6387 11.4244C34.6387 9.80046 35.9548 8.48438 37.5787 8.48438C39.202 8.48438 40.5181 9.80046 40.5181 11.4244Z" fill="white"/>
</svg>
