<svg width="35" height="34" viewBox="0 0 35 34" fill="none" xmlns="http://www.w3.org/2000/svg">
<g clip-path="url(#clip0_2593_1097)">
<path d="M19.3279 14.3185C19.8126 13.7894 20.2125 13.2517 20.7108 12.7957C22.2421 11.3936 24.0537 10.686 26.1686 10.7034C27.331 10.7128 28.4804 10.7944 29.6008 11.1093C32.1641 11.8293 33.6538 13.5433 34.3639 15.9756C34.8967 17.7997 34.9947 19.6726 34.9982 21.5511C35.0052 25.5143 34.9864 29.477 34.9952 33.4401C34.996 33.8111 34.8893 33.9084 34.513 33.905C32.4117 33.8885 30.3095 33.888 28.2082 33.9059C27.8385 33.9089 27.7585 33.7975 27.7598 33.4584C27.7716 29.6873 27.7742 25.9167 27.762 22.1457C27.7585 21.2009 27.6968 20.2566 27.4238 19.3377C26.9211 17.6454 25.6742 16.7831 23.849 16.8766C21.3565 17.0045 20.0607 18.2034 19.743 20.665C19.6669 21.2532 19.631 21.8414 19.6315 22.4339C19.635 26.1012 19.6275 29.7685 19.6415 33.4354C19.6429 33.8013 19.5488 33.9093 19.1642 33.9059C17.0476 33.8876 14.9301 33.8897 12.8135 33.9042C12.4744 33.9067 12.376 33.8179 12.3764 33.4843C12.3861 26.224 12.386 18.9633 12.376 11.7026C12.3755 11.3435 12.4967 11.2602 12.8463 11.2627C14.8566 11.2772 16.8673 11.2789 18.8772 11.2615C19.2473 11.2585 19.3427 11.3745 19.3344 11.7149C19.3139 12.5824 19.3279 13.4506 19.3279 14.3185Z" fill="#FEFEFE"/>
<path d="M7.81292 22.6154C7.81292 26.2071 7.8068 29.7992 7.82168 33.3913C7.82343 33.7904 7.72104 33.9111 7.29579 33.9064C5.19536 33.8839 3.09404 33.8894 0.993165 33.9034C0.656728 33.906 0.555228 33.824 0.555665 33.4861C0.565728 26.2135 0.564865 18.9409 0.557428 11.6683C0.55699 11.3674 0.632229 11.2603 0.961229 11.262C3.09229 11.2756 5.2238 11.2794 7.35486 11.2599C7.76436 11.2556 7.82037 11.4103 7.81949 11.7512C7.80943 15.3726 7.81292 18.994 7.81292 22.6154Z" fill="#FEFEFE"/>
<path d="M8.39258 4.05578C8.39433 6.31083 6.51001 8.14811 4.19433 8.14896C1.90751 8.14981 0.0074619 6.31083 2.44026e-05 4.09063C-0.0078506 1.8462 1.89132 -0.00212317 4.20263 1.83049e-06C6.49819 0.00212683 8.38995 1.83345 8.39258 4.05578Z" fill="#FEFEFE"/>
</g>
<defs>
<clipPath id="clip0_2593_1097">
<rect width="35" height="34" fill="white"/>
</clipPath>
</defs>
</svg>
