<svg width="50" height="45" viewBox="0 0 50 45" fill="none" xmlns="http://www.w3.org/2000/svg">
<g clip-path="url(#clip0_2593_1088)">
<path d="M33.5755 30.4675C31.4216 30.4675 29.6695 28.7158 29.6695 26.5619C29.6695 24.4075 31.4216 22.6547 33.5755 22.6547C35.7294 22.6547 37.4817 24.4075 37.4817 26.5619C37.4817 28.7158 35.7294 30.4675 33.5755 30.4675ZM34.2633 36.8831C31.5972 39.5453 26.4883 39.7525 24.9861 39.7525C23.4839 39.7525 18.3744 39.5453 15.7117 36.8825C15.3167 36.4875 15.3167 35.8464 15.7117 35.4508C16.1067 35.0558 16.7483 35.0558 17.1439 35.4514C18.8239 37.1314 22.4189 37.7281 24.9861 37.7281C27.5539 37.7281 31.1494 37.1314 32.8328 35.4508C33.2289 35.0558 33.8695 35.0564 34.2645 35.4514C34.6595 35.8475 34.6589 36.4881 34.2633 36.8831ZM12.4817 26.5614C12.4817 24.4075 14.2344 22.6547 16.3894 22.6547C18.5422 22.6547 20.2945 24.4075 20.2945 26.5614C20.2945 28.7147 18.5422 30.4669 16.3894 30.4669C14.2344 30.4669 12.4817 28.7147 12.4817 26.5614ZM49.9755 22.6547C49.9755 19.6342 47.5272 17.1859 44.5072 17.1859C43.0322 17.1859 41.6972 17.7725 40.7133 18.7209C36.9761 16.0225 31.825 14.2803 26.0889 14.0803L28.58 2.35973L36.7189 4.09028C36.8183 6.15917 38.5128 7.81085 40.6067 7.81085C42.7639 7.81085 44.5128 6.06252 44.5128 3.90474C44.5128 1.74752 42.7639 -0.00195312 40.6067 -0.00195312C39.0722 -0.00195312 37.7578 0.891407 37.1189 2.17863L28.0306 0.246935C27.7778 0.191935 27.5133 0.241376 27.2961 0.383043C27.0783 0.524154 26.9261 0.745839 26.8722 0.998617L24.0905 14.077C18.27 14.2381 13.0367 15.9831 9.2511 18.7103C8.26832 17.7681 6.93777 17.1859 5.46889 17.1859C2.44833 17.1859 0 19.6342 0 22.6547C0 24.877 1.32777 26.7853 3.2311 27.6408C3.14665 28.1847 3.10055 28.7364 3.10055 29.2953C3.10055 37.7086 12.8944 44.5297 24.9755 44.5297C37.0567 44.5297 46.8505 37.7086 46.8505 29.2953C46.8505 28.7397 46.805 28.192 46.7222 27.652C48.6378 26.8014 49.9755 24.8853 49.9755 22.6547Z" fill="white"/>
</g>
<defs>
<clipPath id="clip0_2593_1088">
<rect width="50" height="45" fill="white"/>
</clipPath>
</defs>
</svg>
