<svg width="40" height="32" viewBox="0 0 40 32" fill="none" xmlns="http://www.w3.org/2000/svg">
<g clip-path="url(#clip0_2593_1103)">
<path d="M39.7158 0.685845C39.5732 0.278515 39.403 0.171309 39.1371 0.0694768C38.5557 -0.139548 37.5708 0.176708 37.5708 0.176708C37.5708 0.176708 2.70302 12.3323 0.711054 13.6775C0.282151 13.967 0.138459 14.1385 0.0671593 14.3368C-0.277179 15.2908 0.795627 15.7142 0.795627 15.7142L9.7827 18.5548C9.7827 18.5548 10.1176 18.603 10.237 18.528C12.2815 17.2739 30.8067 5.93288 31.8751 5.55235C32.0436 5.50411 32.1686 5.55776 32.1354 5.67031C31.7076 7.12812 15.6176 20.9934 15.6176 20.9934C15.6176 20.9934 15.5563 21.0685 15.5176 21.1542L15.4966 21.1435L14.6581 29.7886C14.6581 29.7886 14.3066 32.4362 17.0376 29.7886C18.9643 27.9181 20.8286 26.353 21.7616 25.5973C24.8518 27.6661 28.1774 29.9547 29.6128 31.1499C30.3336 31.7501 30.9366 31.8466 31.4329 31.8305C32.7953 31.7823 33.1756 30.3299 33.1756 30.3299C33.1756 30.3299 39.5295 5.53092 39.7418 2.20796C39.7628 1.88102 39.7915 1.6774 39.7938 1.4523C39.7976 1.14144 39.7678 0.830555 39.7158 0.685845Z" fill="white"/>
</g>
<defs>
<clipPath id="clip0_2593_1103">
<rect width="40" height="32" fill="white"/>
</clipPath>
</defs>
</svg>
