<svg width="37" height="32" viewBox="0 0 37 32" fill="none" xmlns="http://www.w3.org/2000/svg">
<g clip-path="url(#clip0_2593_1092)">
<path d="M36.5801 7.37476C36.4168 10.9624 33.929 15.8746 29.1162 22.1105C24.1405 28.6219 19.9301 31.8791 16.4875 31.8791C14.3536 31.8791 12.5482 29.8971 11.0735 25.9303C10.0889 22.2937 9.1048 18.6578 8.11988 15.0211C7.02436 11.0564 5.85042 9.07198 4.59363 9.07198C4.31935 9.07198 3.36177 9.65202 1.7213 10.8077L0 8.57415C1.80616 6.97618 3.58779 5.37821 5.34046 3.7774C7.74949 1.68242 9.55886 0.57941 10.7642 0.468018C13.6116 0.19217 15.3647 2.15309 16.0226 6.34954C16.7337 10.8782 17.2263 13.6942 17.5022 14.7963C18.3242 18.5533 19.2279 20.4304 20.2137 20.4304C20.979 20.4304 22.1304 19.2119 23.6651 16.7734C25.1966 14.3374 26.0178 12.4834 26.1284 11.2087C26.3476 9.10599 25.526 8.05163 23.6651 8.05163C22.7888 8.05163 21.8851 8.25495 20.9557 8.65596C22.755 2.72341 26.1912 -0.157796 31.263 0.00665995C35.0237 0.117647 36.7973 2.57355 36.5801 7.37476Z" fill="white"/>
</g>
<defs>
<clipPath id="clip0_2593_1092">
<rect width="37" height="32" fill="white"/>
</clipPath>
</defs>
</svg>
