<svg width="39" height="40" viewBox="0 0 39 40" fill="none" xmlns="http://www.w3.org/2000/svg">
<g clip-path="url(#clip0_2593_1107)">
<path fill-rule="evenodd" clip-rule="evenodd" d="M28.1255 23.8163C27.6455 23.5702 25.2861 22.3796 24.8461 22.2153C24.406 22.0516 24.0862 21.9692 23.7659 22.4619C23.4466 22.9542 22.5266 24.0629 22.2467 24.3914C21.9668 24.7194 21.6869 24.7608 21.2069 24.5143C20.727 24.2681 19.1808 23.7487 17.3475 22.0718C15.9207 20.7675 14.9576 19.1559 14.6777 18.6632C14.3978 18.1705 14.6477 17.9041 14.8881 17.6589C15.1039 17.4385 15.368 17.0843 15.608 16.7968C15.848 16.5097 15.9279 16.304 16.0875 15.976C16.2481 15.6475 16.1678 15.36 16.0476 15.1139C15.9278 14.8673 14.9679 12.4455 14.5683 11.4601C14.1785 10.5008 13.7833 10.6306 13.4881 10.6154C13.2087 10.6011 12.8884 10.5984 12.5686 10.5984C12.2488 10.5984 11.7289 10.7212 11.2888 11.2139C10.8488 11.7067 9.609 12.8968 9.609 15.319C9.609 17.7408 11.3288 20.0807 11.5688 20.4092C11.8087 20.7376 14.9527 25.7081 19.767 27.8396C20.9122 28.3466 21.8062 28.6493 22.5033 28.8761C23.6529 29.2506 24.6994 29.1977 25.5261 29.0711C26.4479 28.9299 28.3655 27.8805 28.7656 26.7308C29.1657 25.5816 29.1657 24.5966 29.0455 24.3914C28.9253 24.1862 28.6054 24.0629 28.1255 23.8163ZM19.3687 36.0755H19.362C16.4975 36.0746 13.6882 35.2856 11.2368 33.7941L10.6537 33.439L4.61162 35.0643L6.22464 29.0242L5.84472 28.405C4.24696 25.7987 3.40278 22.7867 3.40413 19.6938C3.40772 10.6688 10.5694 3.32623 19.375 3.32623C23.639 3.32807 27.6478 5.03305 30.6616 8.12649C33.6755 11.2208 35.3342 15.3333 35.3333 19.7071C35.3293 28.733 28.1676 36.0755 19.3687 36.0755ZM32.9556 5.77605C29.3294 2.05325 24.5065 0.0023003 19.3687 0C8.78141 0 0.165073 8.83406 0.161036 19.6928C0.15969 23.1635 1.04425 26.5514 2.72499 29.5381L0 39.7431L10.1818 37.0044C12.9876 38.5737 16.1463 39.4004 19.3607 39.4018H19.3687C19.3683 39.4018 19.3696 39.4018 19.3687 39.4018C29.9542 39.4018 38.5715 30.5668 38.576 19.7085C38.5778 14.4463 36.5821 9.49793 32.9556 5.77605Z" fill="white"/>
</g>
<defs>
<clipPath id="clip0_2593_1107">
<rect width="39" height="40" fill="white"/>
</clipPath>
</defs>
</svg>
