<?xml version="1.0" encoding="UTF-8" standalone="no"?>
<!DOCTYPE svg PUBLIC "-//W3C//DTD SVG 1.1//EN" "http://www.w3.org/Graphics/SVG/1.1/DTD/svg11.dtd">
<svg width="100%" height="100%" viewBox="0 0 447 525" version="1.1" xmlns="http://www.w3.org/2000/svg" xmlns:xlink="http://www.w3.org/1999/xlink" xml:space="preserve" xmlns:serif="http://www.serif.com/" style="fill-rule:evenodd;clip-rule:evenodd;stroke-linecap:round;stroke-linejoin:round;stroke-miterlimit:1.5;">
    <g transform="matrix(1,0,0,1,-183517,-131746)">
        <g id="_01" serif:id="01">
        </g>
        <g id="_011" serif:id="01">
        </g>
        <g id="_012" serif:id="01">
        </g>
        <g id="_013" serif:id="01">
        </g>
        <g id="Artboard47" transform="matrix(1.0063,0,0,0.998995,127163,56881.1)">
            <rect x="56000.8" y="74940.3" width="443.288" height="524.835" style="fill:none;"/>
            <g transform="matrix(0.993739,0,0,1.00101,-127039,-56939.7)">
                <g transform="matrix(1.71181,0,0,1.71181,174509,134123)">
                    <path d="M5817.62,-1316.72C5833.83,-1313.68 5886.77,-1313.69 5902.96,-1316.3C5909.82,-1317.41 5914.71,-1319.47 5914.77,-1332.4C5914.84,-1346.73 5900.56,-1348.77 5900.56,-1348.77C5900.56,-1348.77 5901.61,-1360.58 5890.51,-1368.29C5878.52,-1376.61 5864.69,-1368.59 5864.69,-1368.59C5864.69,-1368.59 5852.69,-1390.49 5828.34,-1378.41C5810.49,-1369.56 5815.27,-1351.96 5815.27,-1351.96C5815.27,-1351.96 5805.86,-1343.98 5805.67,-1334.57C5805.35,-1318.56 5810.58,-1318.04 5817.62,-1316.72Z" style="fill:white;"/>
                </g>
                <g transform="matrix(0.890759,1.19066e-17,1.82119e-17,0.845151,179280,132961)">
                    <path d="M5870.66,-1308.33C5870.66,-1308.33 5865.08,-1299.91 5865.08,-1296.3C5865.08,-1293.06 5867.58,-1290.42 5870.66,-1290.42C5873.75,-1290.42 5876.25,-1293.06 5876.25,-1296.3C5876.25,-1299.91 5870.66,-1308.33 5870.66,-1308.33Z" style="fill:white;"/>
                </g>
                <g transform="matrix(0.890759,1.19066e-17,1.82119e-17,0.845151,179272,132981)">
                    <path d="M5870.66,-1308.33C5870.66,-1308.33 5865.08,-1299.91 5865.08,-1296.3C5865.08,-1293.06 5867.58,-1290.42 5870.66,-1290.42C5873.75,-1290.42 5876.25,-1293.06 5876.25,-1296.3C5876.25,-1299.91 5870.66,-1308.33 5870.66,-1308.33Z" style="fill:white;"/>
                </g>
                <g transform="matrix(0.890759,1.19066e-17,1.82119e-17,0.845151,179252,132981)">
                    <path d="M5870.66,-1308.33C5870.66,-1308.33 5865.08,-1299.91 5865.08,-1296.3C5865.08,-1293.06 5867.58,-1290.42 5870.66,-1290.42C5873.75,-1290.42 5876.25,-1293.06 5876.25,-1296.3C5876.25,-1299.91 5870.66,-1308.33 5870.66,-1308.33Z" style="fill:white;"/>
                </g>
                <g transform="matrix(0.890759,1.19066e-17,1.82119e-17,0.845151,179261,132960)">
                    <path d="M5870.66,-1308.33C5870.66,-1308.33 5865.08,-1299.91 5865.08,-1296.3C5865.08,-1293.06 5867.58,-1290.42 5870.66,-1290.42C5873.75,-1290.42 5876.25,-1293.06 5876.25,-1296.3C5876.25,-1299.91 5870.66,-1308.33 5870.66,-1308.33Z" style="fill:white;"/>
                </g>
                <g transform="matrix(0.890759,1.19066e-17,1.82119e-17,0.845151,179300,132959)">
                    <path d="M5870.66,-1308.33C5870.66,-1308.33 5865.08,-1299.91 5865.08,-1296.3C5865.08,-1293.06 5867.58,-1290.42 5870.66,-1290.42C5873.75,-1290.42 5876.25,-1293.06 5876.25,-1296.3C5876.25,-1299.91 5870.66,-1308.33 5870.66,-1308.33Z" style="fill:white;"/>
                </g>
                <g transform="matrix(0.890759,1.19066e-17,1.82119e-17,0.845151,179291,133005)">
                    <path d="M5870.66,-1308.33C5870.66,-1308.33 5865.08,-1299.91 5865.08,-1296.3C5865.08,-1293.06 5867.58,-1290.42 5870.66,-1290.42C5873.75,-1290.42 5876.25,-1293.06 5876.25,-1296.3C5876.25,-1299.91 5870.66,-1308.33 5870.66,-1308.33Z" style="fill:white;"/>
                </g>
                <g transform="matrix(0.890759,1.19066e-17,1.82119e-17,0.845151,179291,132981)">
                    <path d="M5870.66,-1308.33C5870.66,-1308.33 5865.08,-1299.91 5865.08,-1296.3C5865.08,-1293.06 5867.58,-1290.42 5870.66,-1290.42C5873.75,-1290.42 5876.25,-1293.06 5876.25,-1296.3C5876.25,-1299.91 5870.66,-1308.33 5870.66,-1308.33Z" style="fill:white;"/>
                </g>
                <g transform="matrix(0.890759,1.19066e-17,1.82119e-17,0.845151,179272,133058)">
                    <path d="M5870.66,-1308.33C5870.66,-1308.33 5865.08,-1299.91 5865.08,-1296.3C5865.08,-1293.06 5867.58,-1290.42 5870.66,-1290.42C5873.75,-1290.42 5876.25,-1293.06 5876.25,-1296.3C5876.25,-1299.91 5870.66,-1308.33 5870.66,-1308.33Z" style="fill:white;"/>
                </g>
                <g transform="matrix(0.890759,1.19066e-17,1.82119e-17,0.845151,179291,133081)">
                    <path d="M5870.66,-1308.33C5870.66,-1308.33 5865.08,-1299.91 5865.08,-1296.3C5865.08,-1293.06 5867.58,-1290.42 5870.66,-1290.42C5873.75,-1290.42 5876.25,-1293.06 5876.25,-1296.3C5876.25,-1299.91 5870.66,-1308.33 5870.66,-1308.33Z" style="fill:white;"/>
                </g>
                <g transform="matrix(0.890759,1.19066e-17,1.82119e-17,0.845151,179272,133081)">
                    <path d="M5870.66,-1308.33C5870.66,-1308.33 5865.08,-1299.91 5865.08,-1296.3C5865.08,-1293.06 5867.58,-1290.42 5870.66,-1290.42C5873.75,-1290.42 5876.25,-1293.06 5876.25,-1296.3C5876.25,-1299.91 5870.66,-1308.33 5870.66,-1308.33Z" style="fill:white;"/>
                </g>
                <g transform="matrix(0.890759,1.19066e-17,1.82119e-17,0.845151,179272,133105)">
                    <path d="M5870.66,-1308.33C5870.66,-1308.33 5865.08,-1299.91 5865.08,-1296.3C5865.08,-1293.06 5867.58,-1290.42 5870.66,-1290.42C5873.75,-1290.42 5876.25,-1293.06 5876.25,-1296.3C5876.25,-1299.91 5870.66,-1308.33 5870.66,-1308.33Z" style="fill:white;"/>
                </g>
                <g transform="matrix(0.890759,1.19066e-17,1.82119e-17,0.845151,179290,133127)">
                    <path d="M5870.66,-1308.33C5870.66,-1308.33 5865.08,-1299.91 5865.08,-1296.3C5865.08,-1293.06 5867.58,-1290.42 5870.66,-1290.42C5873.75,-1290.42 5876.25,-1293.06 5876.25,-1296.3C5876.25,-1299.91 5870.66,-1308.33 5870.66,-1308.33Z" style="fill:white;"/>
                </g>
                <g transform="matrix(0.890759,1.19066e-17,1.82119e-17,0.845151,179252,133105)">
                    <path d="M5870.66,-1308.33C5870.66,-1308.33 5865.08,-1299.91 5865.08,-1296.3C5865.08,-1293.06 5867.58,-1290.42 5870.66,-1290.42C5873.75,-1290.42 5876.25,-1293.06 5876.25,-1296.3C5876.25,-1299.91 5870.66,-1308.33 5870.66,-1308.33Z" style="fill:white;"/>
                </g>
                <g transform="matrix(0.890759,1.19066e-17,1.82119e-17,0.845151,179291,133105)">
                    <path d="M5870.66,-1308.33C5870.66,-1308.33 5865.08,-1299.91 5865.08,-1296.3C5865.08,-1293.06 5867.58,-1290.42 5870.66,-1290.42C5873.75,-1290.42 5876.25,-1293.06 5876.25,-1296.3C5876.25,-1299.91 5870.66,-1308.33 5870.66,-1308.33Z" style="fill:white;"/>
                </g>
                <g transform="matrix(0.890759,1.19066e-17,1.82119e-17,0.845151,179252,133058)">
                    <path d="M5870.66,-1308.33C5870.66,-1308.33 5865.08,-1299.91 5865.08,-1296.3C5865.08,-1293.06 5867.58,-1290.42 5870.66,-1290.42C5873.75,-1290.42 5876.25,-1293.06 5876.25,-1296.3C5876.25,-1299.91 5870.66,-1308.33 5870.66,-1308.33Z" style="fill:white;"/>
                </g>
                <g transform="matrix(0.890759,1.19066e-17,1.82119e-17,0.845151,179252,133081)">
                    <path d="M5870.66,-1308.33C5870.66,-1308.33 5865.08,-1299.91 5865.08,-1296.3C5865.08,-1293.06 5867.58,-1290.42 5870.66,-1290.42C5873.75,-1290.42 5876.25,-1293.06 5876.25,-1296.3C5876.25,-1299.91 5870.66,-1308.33 5870.66,-1308.33Z" style="fill:white;"/>
                </g>
                <g transform="matrix(0.890759,1.19066e-17,1.82119e-17,0.845151,179272,133005)">
                    <path d="M5870.66,-1308.33C5870.66,-1308.33 5865.08,-1299.91 5865.08,-1296.3C5865.08,-1293.06 5867.58,-1290.42 5870.66,-1290.42C5873.75,-1290.42 5876.25,-1293.06 5876.25,-1296.3C5876.25,-1299.91 5870.66,-1308.33 5870.66,-1308.33Z" style="fill:white;"/>
                </g>
                <g transform="matrix(0.890759,1.19066e-17,1.82119e-17,0.845151,179252,133005)">
                    <path d="M5870.66,-1308.33C5870.66,-1308.33 5865.08,-1299.91 5865.08,-1296.3C5865.08,-1293.06 5867.58,-1290.42 5870.66,-1290.42C5873.75,-1290.42 5876.25,-1293.06 5876.25,-1296.3C5876.25,-1299.91 5870.66,-1308.33 5870.66,-1308.33Z" style="fill:white;"/>
                </g>
                <g transform="matrix(0.890759,1.19066e-17,1.82119e-17,0.845151,179252,133031)">
                    <path d="M5870.66,-1308.33C5870.66,-1308.33 5865.08,-1299.91 5865.08,-1296.3C5865.08,-1293.06 5867.58,-1290.42 5870.66,-1290.42C5873.75,-1290.42 5876.25,-1293.06 5876.25,-1296.3C5876.25,-1299.91 5870.66,-1308.33 5870.66,-1308.33Z" style="fill:white;"/>
                </g>
                <g transform="matrix(0.890759,1.19066e-17,1.82119e-17,0.845151,179291,133031)">
                    <path d="M5870.66,-1308.33C5870.66,-1308.33 5865.08,-1299.91 5865.08,-1296.3C5865.08,-1293.06 5867.58,-1290.42 5870.66,-1290.42C5873.75,-1290.42 5876.25,-1293.06 5876.25,-1296.3C5876.25,-1299.91 5870.66,-1308.33 5870.66,-1308.33Z" style="fill:white;"/>
                </g>
                <g transform="matrix(0.890759,1.19066e-17,1.82119e-17,0.845151,179291,133058)">
                    <path d="M5870.66,-1308.33C5870.66,-1308.33 5865.08,-1299.91 5865.08,-1296.3C5865.08,-1293.06 5867.58,-1290.42 5870.66,-1290.42C5873.75,-1290.42 5876.25,-1293.06 5876.25,-1296.3C5876.25,-1299.91 5870.66,-1308.33 5870.66,-1308.33Z" style="fill:white;"/>
                </g>
                <g transform="matrix(0.890759,1.19066e-17,1.82119e-17,0.845151,179272,133031)">
                    <path d="M5870.66,-1308.33C5870.66,-1308.33 5865.08,-1299.91 5865.08,-1296.3C5865.08,-1293.06 5867.58,-1290.42 5870.66,-1290.42C5873.75,-1290.42 5876.25,-1293.06 5876.25,-1296.3C5876.25,-1299.91 5870.66,-1308.33 5870.66,-1308.33Z" style="fill:white;"/>
                </g>
                <g transform="matrix(0.890759,1.19066e-17,1.82119e-17,0.845151,179330,132981)">
                    <path d="M5870.66,-1308.33C5870.66,-1308.33 5865.08,-1299.91 5865.08,-1296.3C5865.08,-1293.06 5867.58,-1290.42 5870.66,-1290.42C5873.75,-1290.42 5876.25,-1293.06 5876.25,-1296.3C5876.25,-1299.91 5870.66,-1308.33 5870.66,-1308.33Z" style="fill:white;"/>
                </g>
                <g transform="matrix(0.890759,1.19066e-17,1.82119e-17,0.845151,179310,132981)">
                    <path d="M5870.66,-1308.33C5870.66,-1308.33 5865.08,-1299.91 5865.08,-1296.3C5865.08,-1293.06 5867.58,-1290.42 5870.66,-1290.42C5873.75,-1290.42 5876.25,-1293.06 5876.25,-1296.3C5876.25,-1299.91 5870.66,-1308.33 5870.66,-1308.33Z" style="fill:white;"/>
                </g>
                <g transform="matrix(0.890759,1.19066e-17,1.82119e-17,0.845151,179349,133005)">
                    <path d="M5870.66,-1308.33C5870.66,-1308.33 5865.08,-1299.91 5865.08,-1296.3C5865.08,-1293.06 5867.58,-1290.42 5870.66,-1290.42C5873.75,-1290.42 5876.25,-1293.06 5876.25,-1296.3C5876.25,-1299.91 5870.66,-1308.33 5870.66,-1308.33Z" style="fill:white;"/>
                </g>
                <g transform="matrix(0.890759,1.19066e-17,1.82119e-17,0.845151,179349,132981)">
                    <path d="M5870.66,-1308.33C5870.66,-1308.33 5865.08,-1299.91 5865.08,-1296.3C5865.08,-1293.06 5867.58,-1290.42 5870.66,-1290.42C5873.75,-1290.42 5876.25,-1293.06 5876.25,-1296.3C5876.25,-1299.91 5870.66,-1308.33 5870.66,-1308.33Z" style="fill:white;"/>
                </g>
                <g transform="matrix(0.890759,1.19066e-17,1.82119e-17,0.845151,179330,133058)">
                    <path d="M5870.66,-1308.33C5870.66,-1308.33 5865.08,-1299.91 5865.08,-1296.3C5865.08,-1293.06 5867.58,-1290.42 5870.66,-1290.42C5873.75,-1290.42 5876.25,-1293.06 5876.25,-1296.3C5876.25,-1299.91 5870.66,-1308.33 5870.66,-1308.33Z" style="fill:white;"/>
                </g>
                <g transform="matrix(0.890759,1.19066e-17,1.82119e-17,0.845151,179349,133081)">
                    <path d="M5870.66,-1308.33C5870.66,-1308.33 5865.08,-1299.91 5865.08,-1296.3C5865.08,-1293.06 5867.58,-1290.42 5870.66,-1290.42C5873.75,-1290.42 5876.25,-1293.06 5876.25,-1296.3C5876.25,-1299.91 5870.66,-1308.33 5870.66,-1308.33Z" style="fill:white;"/>
                </g>
                <g transform="matrix(0.890759,1.19066e-17,1.82119e-17,0.845151,179330,133081)">
                    <path d="M5870.66,-1308.33C5870.66,-1308.33 5865.08,-1299.91 5865.08,-1296.3C5865.08,-1293.06 5867.58,-1290.42 5870.66,-1290.42C5873.75,-1290.42 5876.25,-1293.06 5876.25,-1296.3C5876.25,-1299.91 5870.66,-1308.33 5870.66,-1308.33Z" style="fill:white;"/>
                </g>
                <g transform="matrix(0.890759,1.19066e-17,1.82119e-17,0.845151,179330,133105)">
                    <path d="M5870.66,-1308.33C5870.66,-1308.33 5865.08,-1299.91 5865.08,-1296.3C5865.08,-1293.06 5867.58,-1290.42 5870.66,-1290.42C5873.75,-1290.42 5876.25,-1293.06 5876.25,-1296.3C5876.25,-1299.91 5870.66,-1308.33 5870.66,-1308.33Z" style="fill:white;"/>
                </g>
                <g transform="matrix(0.890759,1.19066e-17,1.82119e-17,0.845151,179348,133127)">
                    <path d="M5870.66,-1308.33C5870.66,-1308.33 5865.08,-1299.91 5865.08,-1296.3C5865.08,-1293.06 5867.58,-1290.42 5870.66,-1290.42C5873.75,-1290.42 5876.25,-1293.06 5876.25,-1296.3C5876.25,-1299.91 5870.66,-1308.33 5870.66,-1308.33Z" style="fill:white;"/>
                </g>
                <g transform="matrix(0.890759,1.19066e-17,1.82119e-17,0.845151,179310,133105)">
                    <path d="M5870.66,-1308.33C5870.66,-1308.33 5865.08,-1299.91 5865.08,-1296.3C5865.08,-1293.06 5867.58,-1290.42 5870.66,-1290.42C5873.75,-1290.42 5876.25,-1293.06 5876.25,-1296.3C5876.25,-1299.91 5870.66,-1308.33 5870.66,-1308.33Z" style="fill:white;"/>
                </g>
                <g transform="matrix(0.890759,1.19066e-17,1.82119e-17,0.845151,179330,133127)">
                    <path d="M5870.66,-1308.33C5870.66,-1308.33 5865.08,-1299.91 5865.08,-1296.3C5865.08,-1293.06 5867.58,-1290.42 5870.66,-1290.42C5873.75,-1290.42 5876.25,-1293.06 5876.25,-1296.3C5876.25,-1299.91 5870.66,-1308.33 5870.66,-1308.33Z" style="fill:white;"/>
                </g>
                <g transform="matrix(0.890759,1.19066e-17,1.82119e-17,0.845151,179311,133127)">
                    <path d="M5870.66,-1308.33C5870.66,-1308.33 5865.08,-1299.91 5865.08,-1296.3C5865.08,-1293.06 5867.58,-1290.42 5870.66,-1290.42C5873.75,-1290.42 5876.25,-1293.06 5876.25,-1296.3C5876.25,-1299.91 5870.66,-1308.33 5870.66,-1308.33Z" style="fill:white;"/>
                </g>
                <g transform="matrix(0.890759,1.19066e-17,1.82119e-17,0.845151,179348,133151)">
                    <path d="M5870.66,-1308.33C5870.66,-1308.33 5865.08,-1299.91 5865.08,-1296.3C5865.08,-1293.06 5867.58,-1290.42 5870.66,-1290.42C5873.75,-1290.42 5876.25,-1293.06 5876.25,-1296.3C5876.25,-1299.91 5870.66,-1308.33 5870.66,-1308.33Z" style="fill:white;"/>
                </g>
                <g transform="matrix(0.890759,1.19066e-17,1.82119e-17,0.845151,179348,133174)">
                    <path d="M5870.66,-1308.33C5870.66,-1308.33 5865.08,-1299.91 5865.08,-1296.3C5865.08,-1293.06 5867.58,-1290.42 5870.66,-1290.42C5873.75,-1290.42 5876.25,-1293.06 5876.25,-1296.3C5876.25,-1299.91 5870.66,-1308.33 5870.66,-1308.33Z" style="fill:white;"/>
                </g>
                <g transform="matrix(0.890759,1.19066e-17,1.82119e-17,0.845151,179330,133151)">
                    <path d="M5870.66,-1308.33C5870.66,-1308.33 5865.08,-1299.91 5865.08,-1296.3C5865.08,-1293.06 5867.58,-1290.42 5870.66,-1290.42C5873.75,-1290.42 5876.25,-1293.06 5876.25,-1296.3C5876.25,-1299.91 5870.66,-1308.33 5870.66,-1308.33Z" style="fill:white;"/>
                </g>
                <g transform="matrix(0.890759,1.19066e-17,1.82119e-17,0.845151,179349,133105)">
                    <path d="M5870.66,-1308.33C5870.66,-1308.33 5865.08,-1299.91 5865.08,-1296.3C5865.08,-1293.06 5867.58,-1290.42 5870.66,-1290.42C5873.75,-1290.42 5876.25,-1293.06 5876.25,-1296.3C5876.25,-1299.91 5870.66,-1308.33 5870.66,-1308.33Z" style="fill:white;"/>
                </g>
                <g transform="matrix(0.890759,1.19066e-17,1.82119e-17,0.845151,179310,133058)">
                    <path d="M5870.66,-1308.33C5870.66,-1308.33 5865.08,-1299.91 5865.08,-1296.3C5865.08,-1293.06 5867.58,-1290.42 5870.66,-1290.42C5873.75,-1290.42 5876.25,-1293.06 5876.25,-1296.3C5876.25,-1299.91 5870.66,-1308.33 5870.66,-1308.33Z" style="fill:white;"/>
                </g>
                <g transform="matrix(0.890759,1.19066e-17,1.82119e-17,0.845151,179310,133081)">
                    <path d="M5870.66,-1308.33C5870.66,-1308.33 5865.08,-1299.91 5865.08,-1296.3C5865.08,-1293.06 5867.58,-1290.42 5870.66,-1290.42C5873.75,-1290.42 5876.25,-1293.06 5876.25,-1296.3C5876.25,-1299.91 5870.66,-1308.33 5870.66,-1308.33Z" style="fill:white;"/>
                </g>
                <g transform="matrix(0.890759,1.19066e-17,1.82119e-17,0.845151,179330,133005)">
                    <path d="M5870.66,-1308.33C5870.66,-1308.33 5865.08,-1299.91 5865.08,-1296.3C5865.08,-1293.06 5867.58,-1290.42 5870.66,-1290.42C5873.75,-1290.42 5876.25,-1293.06 5876.25,-1296.3C5876.25,-1299.91 5870.66,-1308.33 5870.66,-1308.33Z" style="fill:white;"/>
                </g>
                <g transform="matrix(0.890759,1.19066e-17,1.82119e-17,0.845151,179310,133005)">
                    <path d="M5870.66,-1308.33C5870.66,-1308.33 5865.08,-1299.91 5865.08,-1296.3C5865.08,-1293.06 5867.58,-1290.42 5870.66,-1290.42C5873.75,-1290.42 5876.25,-1293.06 5876.25,-1296.3C5876.25,-1299.91 5870.66,-1308.33 5870.66,-1308.33Z" style="fill:white;"/>
                </g>
                <g transform="matrix(0.890759,1.19066e-17,1.82119e-17,0.845151,179310,133031)">
                    <path d="M5870.66,-1308.33C5870.66,-1308.33 5865.08,-1299.91 5865.08,-1296.3C5865.08,-1293.06 5867.58,-1290.42 5870.66,-1290.42C5873.75,-1290.42 5876.25,-1293.06 5876.25,-1296.3C5876.25,-1299.91 5870.66,-1308.33 5870.66,-1308.33Z" style="fill:white;"/>
                </g>
                <g transform="matrix(0.890759,1.19066e-17,1.82119e-17,0.845151,179349,133031)">
                    <path d="M5870.66,-1308.33C5870.66,-1308.33 5865.08,-1299.91 5865.08,-1296.3C5865.08,-1293.06 5867.58,-1290.42 5870.66,-1290.42C5873.75,-1290.42 5876.25,-1293.06 5876.25,-1296.3C5876.25,-1299.91 5870.66,-1308.33 5870.66,-1308.33Z" style="fill:white;"/>
                </g>
                <g transform="matrix(0.890759,1.19066e-17,1.82119e-17,0.845151,179349,133058)">
                    <path d="M5870.66,-1308.33C5870.66,-1308.33 5865.08,-1299.91 5865.08,-1296.3C5865.08,-1293.06 5867.58,-1290.42 5870.66,-1290.42C5873.75,-1290.42 5876.25,-1293.06 5876.25,-1296.3C5876.25,-1299.91 5870.66,-1308.33 5870.66,-1308.33Z" style="fill:white;"/>
                </g>
                <g transform="matrix(0.890759,1.19066e-17,1.82119e-17,0.845151,179330,133031)">
                    <path d="M5870.66,-1308.33C5870.66,-1308.33 5865.08,-1299.91 5865.08,-1296.3C5865.08,-1293.06 5867.58,-1290.42 5870.66,-1290.42C5873.75,-1290.42 5876.25,-1293.06 5876.25,-1296.3C5876.25,-1299.91 5870.66,-1308.33 5870.66,-1308.33Z" style="fill:white;"/>
                </g>
                <g transform="matrix(0.821086,-0.0117855,0.0114405,0.776463,183360,131414)">
                    <path d="M1119.49,454.663L1119.49,495.902" style="fill:none;stroke:white;stroke-width:13.03px;"/>
                </g>
                <g transform="matrix(0.0114405,0.776463,-0.821086,0.0117855,184734,130962)">
                    <path d="M1119.49,454.663L1119.49,495.902" style="fill:none;stroke:white;stroke-width:13.04px;"/>
                </g>
                <g transform="matrix(-0.572506,0.557376,-0.588685,-0.540709,185257,131517)">
                    <path d="M1119.49,454.663L1119.49,495.902" style="fill:none;stroke:white;stroke-width:12.69px;"/>
                </g>
                <g transform="matrix(-0.572506,0.557376,-0.588685,-0.540709,185156,131424)">
                    <path d="M1119.49,454.663L1119.49,495.902" style="fill:none;stroke:white;stroke-width:12.69px;"/>
                </g>
                <g transform="matrix(-0.588685,-0.540709,0.572506,-0.557376,184723,132659)">
                    <path d="M1119.49,454.663L1119.49,495.902" style="fill:none;stroke:white;stroke-width:13.41px;"/>
                </g>
                <g transform="matrix(-0.821086,0.0117855,-0.0114405,-0.776463,185213,132261)">
                    <path d="M1119.49,454.663L1119.49,495.902" style="fill:none;stroke:white;stroke-width:13.03px;"/>
                </g>
                <g transform="matrix(-0.0114405,-0.776463,0.821086,-0.0117855,183839,132714)">
                    <path d="M1119.49,454.663L1119.49,495.902" style="fill:none;stroke:white;stroke-width:13.04px;"/>
                </g>
                <g transform="matrix(0.588685,0.540709,-0.572506,0.557376,183850,131016)">
                    <path d="M1119.49,454.663L1119.49,495.902" style="fill:none;stroke:white;stroke-width:13.41px;"/>
                </g>
                <g transform="matrix(0.821086,-0.0117855,0.0114405,0.776463,183344,131396)">
                    <circle cx="1139.52" cy="585.666" r="46.128" style="fill:white;"/>
                </g>
                <g transform="matrix(0.574674,-0.0128527,0.0126759,0.566765,177833,123899)">
                    <path d="M10942,14236L11162.3,14572L11078.1,14585L10995.8,14621L10872.1,14254.2L10942,14236Z" style="fill:white;fill-opacity:0.45;"/>
                </g>
                <g transform="matrix(7.93072,0,0,7.31361,181755,127690)">
                    <path d="M350.889,611.573C350.99,612.273 351.091,613.073 351.091,613.773C351.091,616.573 350.081,619.273 348.062,621.373C345.94,623.573 343.012,624.673 339.982,624.673C339.376,624.673 338.77,624.673 338.164,624.573L338.164,620.173C338.568,618.173 339.477,616.273 340.992,614.773C341.497,614.273 342.002,613.773 342.608,613.473C345.032,611.773 347.96,611.173 350.889,611.573" style="fill:rgb(151,192,107);fill-rule:nonzero;stroke:rgb(20,152,33);stroke-width:0.13px;stroke-linecap:butt;stroke-miterlimit:2;"/>
                </g>
                <g transform="matrix(7.93072,0,0,7.31361,181755,127690)">
                    <path d="M338.265,620.173L338.265,624.573C337.659,624.673 337.053,624.673 336.447,624.673C333.417,624.673 330.489,623.573 328.368,621.373C325.843,618.773 324.934,615.173 325.54,611.573C328.469,611.173 331.397,611.773 333.72,613.373C334.326,613.773 334.831,614.273 335.336,614.773C337.053,616.273 337.962,618.173 338.265,620.173" style="fill:rgb(151,192,107);fill-rule:nonzero;stroke:rgb(20,152,33);stroke-width:0.13px;stroke-linecap:butt;stroke-miterlimit:2;"/>
                </g>
                <g transform="matrix(7.93072,0,0,7.31361,181755,127693)">
                    <path d="M338.669,622.873C339.174,622.973 339.679,622.973 340.184,622.973C343.012,622.973 345.537,621.973 347.354,620.073C349.071,618.273 349.98,615.973 349.98,613.373C349.98,612.973 349.98,612.673 349.879,612.273C347.456,612.173 345.233,612.673 343.517,613.973C343.012,614.273 342.507,614.673 342.103,615.173C340.79,616.473 339.982,618.173 339.679,619.973C339.578,620.573 339.073,620.973 338.467,620.973C337.861,620.973 337.356,620.573 337.255,619.973C336.75,618.073 335.841,616.373 334.629,615.073C334.226,614.573 333.72,614.173 333.215,613.873C331.397,612.673 329.176,612.073 326.853,612.273C326.55,615.273 327.459,618.073 329.479,620.073C331.296,621.973 333.821,622.973 336.649,622.973C337.154,622.973 337.659,622.973 338.164,622.873C338.366,622.873 338.467,622.773 338.669,622.873C338.568,622.873 338.568,622.873 338.669,622.873ZM340.083,625.473C339.477,625.473 338.871,625.473 338.265,625.373C337.659,625.473 337.053,625.473 336.447,625.473C332.913,625.473 329.782,624.173 327.459,621.873C324.732,619.073 323.621,615.073 324.328,610.973C324.429,610.473 324.833,610.073 325.439,609.973C326.045,609.873 326.752,609.873 327.358,609.873C329.983,609.873 332.408,610.573 334.427,611.973C335.134,612.373 335.74,612.973 336.245,613.473C336.952,614.273 337.659,615.073 338.164,616.073C338.669,615.173 339.275,614.273 340.083,613.473C340.588,612.873 341.194,612.373 341.901,611.973C343.921,610.573 346.446,609.873 349.071,609.873C349.677,609.873 350.384,609.873 350.99,609.973C351.495,610.073 352,610.473 352.101,610.973C352.202,611.773 352.303,612.573 352.303,613.473C352.303,616.673 351.091,619.773 348.97,621.973C346.749,624.173 343.618,625.473 340.083,625.473" style="fill:rgb(151,192,107);fill-rule:nonzero;"/>
                </g>
                <g transform="matrix(7.93072,0,0,7.31361,181752,127575)">
                    <path d="M338.265,615.673C341.295,617.873 343.315,621.373 343.315,625.173C343.315,626.473 343.113,627.673 342.608,628.873C342.002,629.273 341.497,629.673 340.992,630.173C339.477,631.673 338.568,633.573 338.164,635.573C337.76,633.573 336.851,631.673 335.336,630.173C334.831,629.673 334.226,629.173 333.72,628.773C333.316,627.573 333.114,626.373 333.114,625.073C333.215,621.273 335.235,617.873 338.265,615.673" style="fill:rgb(151,192,107);fill-rule:nonzero;"/>
                </g>
                <g transform="matrix(7.93072,0,0,7.28062,181752,127546)">
                    <path d="M342.709,636.773C342.608,636.773 342.406,636.773 342.305,636.673C341.699,636.473 341.295,635.673 341.598,635.073C342.002,634.073 342.204,632.973 342.204,631.873C342.204,628.973 340.79,626.073 338.366,623.973C335.942,625.973 334.629,628.773 334.528,631.773C334.528,632.873 334.73,633.973 335.134,635.073C335.336,635.673 335.033,636.473 334.326,636.673C333.619,636.873 332.913,636.573 332.71,635.873C332.206,634.573 332.003,633.173 332.003,631.773C332.003,627.673 334.125,623.773 337.558,621.373C337.962,621.073 338.568,621.073 339.073,621.373C342.608,623.973 344.628,627.873 344.628,631.873C344.628,633.273 344.325,634.673 343.921,635.973C343.719,636.373 343.214,636.773 342.709,636.773" style="fill:rgb(151,192,107);fill-rule:nonzero;"/>
                </g>
                <g transform="matrix(8.32609,0,0,8.73365,181619,126875)">
                    <path d="M338.265,617.073C337.558,617.073 336.952,616.473 336.952,615.773L336.952,611.373C336.952,610.673 337.558,610.073 338.265,610.073C338.972,610.073 339.578,610.673 339.578,611.373L339.578,615.873C339.578,616.573 338.972,617.073 338.265,617.073" style="fill:rgb(151,192,107);fill-rule:nonzero;"/>
                </g>
                <g transform="matrix(1,0,0,1,173387,117593)">
                    <path d="M11219,14590.4C11219,14496.4 11142.7,14420.1 11048.7,14420.1C10954.7,14420.1 10878.4,14496.4 10878.4,14590.4" style="fill:none;stroke:white;stroke-width:10.42px;"/>
                </g>
            </g>
        </g>
    </g>
</svg>
