<?xml version="1.0" encoding="UTF-8" standalone="no"?>
<!DOCTYPE svg PUBLIC "-//W3C//DTD SVG 1.1//EN" "http://www.w3.org/Graphics/SVG/1.1/DTD/svg11.dtd">
<svg width="100%" height="100%" viewBox="0 0 447 525" version="1.1" xmlns="http://www.w3.org/2000/svg" xmlns:xlink="http://www.w3.org/1999/xlink" xml:space="preserve" xmlns:serif="http://www.serif.com/" style="fill-rule:evenodd;clip-rule:evenodd;stroke-linecap:round;stroke-linejoin:round;stroke-miterlimit:1.5;">
    <g transform="matrix(1,0,0,1,-183517,-131746)">
        <g id="_01" serif:id="01">
        </g>
        <g id="_011" serif:id="01">
        </g>
        <g id="_012" serif:id="01">
        </g>
        <g id="_013" serif:id="01">
        </g>
        <g id="Artboard47" transform="matrix(1.0063,0,0,0.998995,127163,56881.1)">
            <rect x="56000.8" y="74940.3" width="443.288" height="524.835" style="fill:none;"/>
            <g transform="matrix(0.993739,0,0,1.00101,-1180.01,36070.3)">
                <g transform="matrix(1.49036,0,0,1.37625,40279.6,23470.3)">
                    <g transform="matrix(7.41888,0,0,7.59743,10749,10876.7)">
                        <g transform="matrix(1.13566,0,0,1,-17.4267,-441.077)">
                            <path d="M130.592,509.058C130.621,510.618 130.591,511.858 130.661,512.798C130.752,514.03 131.359,514.645 132.602,514.651C133.197,514.654 133.796,514.587 134.386,514.499C135.842,514.281 137.239,514.297 138.548,515.136C138.954,515.396 139.466,515.653 139.956,515.725C140.659,515.829 141.334,515.775 142.183,515.742C141.132,516.554 139.87,516.804 138.947,516.366C138.482,516.145 137.947,515.893 137.397,515.683C137.459,517.515 137.326,519.307 138.97,520.564C137.515,520.364 137.031,519.877 136.864,518.552C136.82,518.2 136.796,517.845 136.733,517.496C136.481,516.088 136.544,515.554 135.106,515.713C134.123,515.821 132.899,516.33 131.883,515.936C132.006,516.883 132.367,517.58 133.058,518.109C134.018,518.842 134.65,519.749 134.463,521.033C134.309,522.082 134.856,522.69 135.729,523.086C136.282,523.336 136.854,523.543 137.417,523.769C137.404,523.819 137.392,523.868 137.379,523.918C136.762,523.797 136.12,523.747 135.536,523.535C134.935,523.318 134.391,522.944 133.667,522.555C133.387,523.858 133.12,525.098 132.854,526.338C132.8,526.326 132.746,526.314 132.692,526.302C132.505,524.931 132.726,523.6 133.032,522.264C133.198,521.543 133.262,520.79 133.278,520.049C133.283,519.79 133.071,519.411 132.847,519.283C131.75,518.657 131.004,517.727 130.354,516.682C130.225,516.475 129.967,516.349 129.7,516.129C129.477,517.089 129.622,517.868 129.94,518.62C130.374,519.645 130.043,521.401 129.617,522.417C129.271,523.245 128.372,524.118 128.295,525.484C128.256,526.161 128.016,526.965 128.016,527.645C127.772,527.314 127.583,526.939 127.522,526.571C127.321,525.368 128.149,523.269 128.447,521.843C128.726,520.51 128.744,519.175 128.246,517.864C128.07,517.398 127.826,517.334 127.396,517.503C126.701,517.779 126.282,518.297 126.01,518.962C125.756,519.584 125.55,520.23 125.252,520.83C124.556,522.229 122.485,523.209 121.167,522.716C121.979,522.497 122.23,522.452 122.748,522.232C123.182,522.049 123.724,521.756 123.963,521.413C124.406,520.779 124.657,520.011 125.037,519.194C124.46,519.277 123.932,519.541 123.389,519.62C122.647,519.727 121.728,519.419 121.025,519.521C120.581,519.585 120.316,519.877 119.879,519.94C120.109,519.313 120.525,518.993 121.266,518.955C121.658,518.935 122.051,518.949 122.443,518.952C123.781,518.964 124.772,518.347 125.608,517.33C126.073,516.763 126.649,516.263 127.248,515.836C127.698,515.515 127.966,515.16 128.048,514.545C126.244,515.195 124.804,514.456 122.979,515.88C122.749,516.059 122.519,516.327 122.399,516.603C122.063,517.373 121.6,517.636 120.766,517.445C121.022,517.248 121.434,517.135 121.702,516.859C122.03,516.522 122.082,515.886 122.348,515.528C122.678,515.086 123.004,514.835 123.093,514.542C122.389,514.311 121.781,514.453 121.134,514.717C120.581,514.943 120.047,515.222 119.482,515.41C118.532,515.728 117.729,515.415 117.248,514.535C118.555,515.007 119.643,514.617 120.763,514.017C121.311,513.723 122.061,513.726 122.717,513.738C123.534,513.754 124.346,513.956 125.164,514.01C126.816,514.119 127.569,513.703 127.902,512.125C128.11,511.135 128.367,509.679 128.596,508.709C128.697,508.708 128.875,509.218 128.977,509.218C129.587,509.218 130.648,508.589 130.61,508.816" style="fill:rgb(151,192,107);fill-rule:nonzero;"/>
                        </g>
                    </g>
                    <g transform="matrix(3.42589,0,0,0.603568,-383.004,9785.46)">
                        <rect x="3508.84" y="2677.4" width="42.898" height="27.148" style="fill:white;"/>
                    </g>
                    <g transform="matrix(2.64758,0,0,2.68906,11720.5,11181.2)">
                        <path d="M-8.749,87.382C-7.001,80.343 -5.229,61.808 -5.479,54.555C-5.983,39.947 -10.679,26.918 -20.207,15.729C-20.484,15.403 -20.793,15.105 -21.087,14.794C-21.171,14.859 -21.254,14.925 -21.338,14.99C-16.659,22.08 -12.533,29.426 -10.485,37.876C-12.107,37.59 -13.583,37.426 -15.007,37.062C-22.83,35.067 -28.055,30.388 -29.759,22.312C-30.325,19.628 -30.587,16.872 -30.864,14.137C-31.336,9.484 -31.127,4.725 -33.293,0.201C-32.901,0.27 -32.657,0.28 -32.437,0.357C-29.242,1.473 -25.967,2.408 -22.878,3.766C-18.29,5.784 -14.295,8.728 -11.062,12.603C-5.351,19.448 -3.919,27.309 -5.627,35.898C-5.731,36.421 -5.881,37.052 -5.692,37.497C-4.554,40.61 -4.243,41.846 -2.651,45.452C-2.649,45.448 -1.597,47.093 -1.556,46.95C-0.231,41.936 1.326,37.497 5.068,33.174C5.396,32.664 5.517,32.005 5.672,31.4C6.616,27.709 7.227,23.899 8.534,20.343C12.36,9.935 19.434,2.8 30.395,0.011C38.305,-2.001 46.206,-1.4 54.067,0.421C54.127,0.435 54.168,0.531 54.198,0.566C52.971,2.745 51.664,4.871 50.543,7.091C48.081,11.969 45.84,16.962 43.269,21.781C40.549,26.879 36.867,31.158 31.555,33.784C26.496,36.285 21.1,36.826 15.569,36.475C13.615,36.351 11.672,36.066 9.515,35.831C15.371,25.196 23.349,16.782 32.008,8.914C31.644,9.026 31.328,9.193 31.037,9.396C18.001,18.484 8.432,30.38 2.248,45.005C-0.077,50.37 0.432,70.595 0.402,71.306C0.213,75.73 0.041,83.205 -0.106,85.741" style="fill:white;fill-rule:nonzero;"/>
                    </g>
                </g>
                <g transform="matrix(-0.89402,-0.0796177,-0.0887047,0.996058,70297.6,25675.2)">
                    <g transform="matrix(1,0,0,1,-0.675214,-0.0507659)">
                        <path d="M12608.9,14550.8C12608.9,14550.8 12611.9,14544.6 12613.2,14531.1C12614.4,14519.2 12613.2,14510.6 12613.2,14510.6" style="fill:none;stroke:rgb(151,192,107);stroke-width:3.33px;"/>
                    </g>
                    <g transform="matrix(0.94527,-9.39586e-18,1.26517e-17,1,690.034,0.0542895)">
                        <path d="M12605.2,14521.4L12612,14508.7L12622.7,14519.4" style="fill:none;stroke:rgb(151,192,107);stroke-width:3.33px;"/>
                    </g>
                </g>
                <g transform="matrix(0.886682,0.00367214,-0.0041414,0.999991,46613.9,24505.8)">
                    <g transform="matrix(1,0,0,1,-0.675214,-0.0507659)">
                        <path d="M12608.9,14550.8C12608.9,14550.8 12611.9,14544.6 12613.2,14531.1C12614.4,14519.2 12613.2,14510.6 12613.2,14510.6" style="fill:none;stroke:rgb(151,192,107);stroke-width:3.33px;"/>
                    </g>
                    <g transform="matrix(0.94527,-9.39586e-18,1.26517e-17,1,690.034,0.0542895)">
                        <path d="M12605.2,14521.4L12612,14508.7L12622.7,14519.4" style="fill:none;stroke:rgb(151,192,107);stroke-width:3.33px;"/>
                    </g>
                </g>
            </g>
        </g>
    </g>
</svg>
