<?xml version="1.0" encoding="UTF-8" standalone="no"?>
<!DOCTYPE svg PUBLIC "-//W3C//DTD SVG 1.1//EN" "http://www.w3.org/Graphics/SVG/1.1/DTD/svg11.dtd">
<svg width="100%" height="100%" viewBox="0 0 596 583" version="1.1" xmlns="http://www.w3.org/2000/svg" xmlns:xlink="http://www.w3.org/1999/xlink" xml:space="preserve" xmlns:serif="http://www.serif.com/" style="fill-rule:evenodd;clip-rule:evenodd;stroke-linecap:round;stroke-linejoin:round;stroke-miterlimit:1.5;">
    <g transform="matrix(1,0,0,1,-188147,-132598)">
        <g id="Artboard4" transform="matrix(1.83399,0,0,1.34177,172601,117796)">
            <rect x="8476.91" y="11031.8" width="324.601" height="433.814" style="fill:none;"/>
            <g transform="matrix(0.94033,0,0,1.28458,-61.2208,-3258.83)">
                <g transform="matrix(2.6332,0,0,2.70646,9236.98,11181)">
                    <g>
                        <path d="M0,85.685C0.54,85.698 -8.657,85.997 -8.581,85.693C-6.833,78.654 -5.229,61.808 -5.479,54.555C-5.983,39.947 -10.679,26.918 -20.207,15.729C-20.484,15.403 -20.793,15.105 -21.087,14.794C-21.171,14.859 -21.254,14.925 -21.338,14.99C-16.659,22.08 -12.533,29.426 -10.485,37.876C-12.107,37.59 -13.583,37.426 -15.007,37.062C-22.83,35.067 -28.055,30.388 -29.759,22.312C-30.325,19.628 -30.587,16.872 -30.864,14.137C-31.336,9.484 -31.127,4.725 -33.293,0.201C-32.901,0.27 -32.657,0.28 -32.437,0.357C-29.242,1.473 -25.967,2.408 -22.878,3.766C-18.29,5.784 -14.295,8.728 -11.062,12.603C-5.351,19.448 -3.919,27.309 -5.627,35.898C-5.731,36.421 -5.881,37.052 -5.692,37.497C-4.554,40.61 -4.243,41.846 -2.651,45.452C-2.649,45.448 -1.597,47.093 -1.556,46.95C-0.231,41.936 1.326,37.497 5.068,33.174C5.396,32.664 5.517,32.005 5.672,31.4C6.616,27.709 7.227,23.899 8.534,20.343C12.36,9.935 19.434,2.8 30.395,0.011C38.305,-2.001 46.206,-1.4 54.067,0.421C54.127,0.435 54.168,0.531 54.198,0.566C52.971,2.745 51.664,4.871 50.543,7.091C48.081,11.969 45.84,16.962 43.269,21.781C40.549,26.879 36.867,31.158 31.555,33.784C26.496,36.285 21.1,36.826 15.569,36.475C13.615,36.351 11.672,36.066 9.515,35.831C15.371,25.196 22.334,17.294 30.993,9.426C30.629,9.538 31.328,9.193 31.037,9.396C18.001,18.484 8.432,30.38 2.248,45.005C-0.077,50.37 0.432,70.595 0.402,71.306C0.213,75.73 0.147,83.149 0,85.685" style="fill:white;fill-rule:nonzero;"/>
                    </g>
                </g>
                <g transform="matrix(0.943528,0.206467,-0.194892,0.978332,1860.57,2640.33)">
                    <path d="M9279.28,6860.88L9306.35,6853.57" style="fill:none;"/>
                    <path d="M9279.97,6863.4C9278.52,6863.79 9277.04,6862.97 9276.67,6861.58C9276.29,6860.19 9277.16,6858.74 9278.6,6858.35L9305.67,6851.05C9307.12,6850.66 9308.6,6851.48 9308.97,6852.87C9309.35,6854.26 9308.48,6855.71 9307.03,6856.1L9279.97,6863.4Z" style="fill:rgb(151,192,107);"/>
                </g>
                <g transform="matrix(0.630177,-0.279723,0.576675,0.793269,-515.693,8408.62)">
                    <path d="M9279.28,6860.88L9306.35,6853.57" style="fill:none;stroke:rgb(151,192,107);stroke-width:5.63px;"/>
                </g>
                <g transform="matrix(-0.961975,-0.0864657,0.0706165,-0.995052,17780.6,18862.4)">
                    <path d="M9279.28,6860.88L9306.35,6853.57" style="fill:none;"/>
                    <path d="M9279.97,6863.4C9278.52,6863.79 9277.04,6862.97 9276.67,6861.58C9276.29,6860.19 9277.16,6858.74 9278.6,6858.35L9305.67,6851.05C9307.12,6850.66 9308.6,6851.48 9308.97,6852.87C9309.35,6854.26 9308.48,6855.71 9307.03,6856.1L9279.97,6863.4Z" style="fill:rgb(151,192,107);"/>
                </g>
                <g transform="matrix(-0.963364,0.0692965,-0.0902567,-0.993464,18916.9,17363.7)">
                    <path d="M9279.28,6860.88L9306.35,6853.57" style="fill:none;"/>
                    <path d="M9279.97,6863.4C9278.52,6863.79 9277.04,6862.97 9276.67,6861.58C9276.29,6860.19 9277.16,6858.74 9278.61,6858.35L9305.68,6851.05C9307.12,6850.66 9308.6,6851.48 9308.97,6852.87C9309.35,6854.26 9308.48,6855.71 9307.03,6856.1L9279.97,6863.4Z" style="fill:rgb(151,192,107);"/>
                </g>
                <g transform="matrix(-0.681289,-0.105891,-0.0555239,-0.979156,16026.9,18951.7)">
                    <path d="M9279.28,6860.88L9306.35,6853.57" style="fill:none;stroke:rgb(151,192,107);stroke-width:5.63px;"/>
                </g>
                <g transform="matrix(-0.402387,0.559868,-0.89853,-0.39303,19248,8707.07)">
                    <path d="M9279.28,6860.88L9306.35,6853.57" style="fill:none;stroke:rgb(151,192,107);stroke-width:5.63px;"/>
                </g>
                <g transform="matrix(0.641387,-0.252965,0.542793,0.816827,-361.838,7966.82)">
                    <path d="M9279.28,6860.88L9306.35,6853.57" style="fill:none;stroke:rgb(151,192,107);stroke-width:5.63px;"/>
                </g>
                <g transform="matrix(0.647281,-0.237478,0.523006,0.829635,-331.907,7758.14)">
                    <path d="M9279.28,6860.88L9306.35,6853.57" style="fill:none;stroke:rgb(151,192,107);stroke-width:5.63px;"/>
                </g>
                <g transform="matrix(-0.645576,-0.242075,0.144531,-0.970021,14333.5,20091)">
                    <path d="M9279.28,6860.88L9306.35,6853.57" style="fill:none;stroke:rgb(151,192,107);stroke-width:5.63px;"/>
                </g>
                <g transform="matrix(-0.402387,0.559868,-0.89853,-0.39303,19182.4,8707.54)">
                    <path d="M9279.28,6860.88L9306.35,6853.57" style="fill:none;stroke:rgb(151,192,107);stroke-width:5.63px;"/>
                </g>
                <g transform="matrix(0.641387,-0.252965,0.542793,0.816827,-381.414,7955.69)">
                    <path d="M9279.28,6860.88L9306.35,6853.57" style="fill:none;stroke:rgb(151,192,107);stroke-width:5.63px;"/>
                </g>
                <g transform="matrix(-0.0464124,-0.687905,0.94302,-0.269339,3174.07,19486.3)">
                    <path d="M9279.28,6860.88L9306.35,6853.57" style="fill:none;stroke:rgb(151,192,107);stroke-width:5.63px;"/>
                </g>
                <g transform="matrix(0.500101,0.474455,-0.511221,0.837147,8059.79,1074.4)">
                    <path d="M9279.28,6860.88L9306.35,6853.57" style="fill:none;stroke:rgb(151,192,107);stroke-width:5.63px;"/>
                </g>
                <g transform="matrix(-0.613575,-0.31387,0.253658,-0.947876,13149.5,20626.3)">
                    <path d="M9279.28,6860.88L9306.35,6853.57" style="fill:none;stroke:rgb(151,192,107);stroke-width:5.63px;"/>
                </g>
                <g transform="matrix(-0.000862786,-0.689469,0.958754,-0.206447,2624.03,19087.6)">
                    <path d="M9279.28,6860.88L9306.35,6853.57" style="fill:none;stroke:rgb(151,192,107);stroke-width:5.63px;"/>
                </g>
                <g transform="matrix(-0.3502,-0.594026,0.721797,-0.663744,7469.5,21268.3)">
                    <path d="M9279.28,6860.88L9306.35,6853.57" style="fill:none;stroke:rgb(151,192,107);stroke-width:5.63px;"/>
                </g>
                <g transform="matrix(-0.353334,0.59205,-0.92869,-0.31522,18826.6,7908.19)">
                    <path d="M9279.28,6860.88L9306.35,6853.57" style="fill:none;stroke:rgb(151,192,107);stroke-width:5.63px;"/>
                </g>
                <g transform="matrix(-0.0174319,-0.689249,0.953516,-0.229428,2792.57,19201.9)">
                    <path d="M9279.28,6860.88L9306.35,6853.57" style="fill:none;stroke:rgb(151,192,107);stroke-width:5.63px;"/>
                </g>
            </g>
        </g>
        <g id="_01" serif:id="01">
        </g>
        <g id="_011" serif:id="01">
        </g>
        <g id="_012" serif:id="01">
        </g>
        <g id="_013" serif:id="01">
        </g>
    </g>
</svg>
