<?xml version="1.0" encoding="UTF-8" standalone="no"?>
<!DOCTYPE svg PUBLIC "-//W3C//DTD SVG 1.1//EN" "http://www.w3.org/Graphics/SVG/1.1/DTD/svg11.dtd">
<svg width="100%" height="100%" viewBox="0 0 518 520" version="1.1" xmlns="http://www.w3.org/2000/svg" xmlns:xlink="http://www.w3.org/1999/xlink" xml:space="preserve" xmlns:serif="http://www.serif.com/" style="fill-rule:evenodd;clip-rule:evenodd;stroke-linecap:round;stroke-linejoin:round;stroke-miterlimit:1.5;">
    <g transform="matrix(1,0,0,1,-189906,-131813)">
        <g id="_01" serif:id="01">
        </g>
        <g id="_011" serif:id="01">
        </g>
        <g id="_012" serif:id="01">
        </g>
        <g id="_013" serif:id="01">
        </g>
        <g id="Artboard41" transform="matrix(0.766133,0,0,0.98615,144397,94348.2)">
            <rect x="59400.8" y="37991" width="674.87" height="526.498" style="fill:none;"/>
            <g transform="matrix(1,0,0,1,0,-5.3801)">
                <g transform="matrix(1.82933,0,0,1.49861,42075.1,20537.8)">
                    <path d="M9619.2,11744C9619.2,11744 9649.36,11726.1 9665.92,11726.9C9705.64,11728.7 9727.31,11755.8 9732.95,11784.8C9738.64,11814 9733.37,11852.1 9700.07,11902.3C9686.11,11923.4 9663.52,11935.4 9633.4,11937.2C9619.96,11938 9607.24,11929.7 9607.24,11929.7C9607.24,11929.7 9591.84,11941.9 9565.39,11936.8C9550.32,11933.9 9530.15,11920 9518.43,11905.2C9501.25,11883.6 9474.55,11824.3 9483.14,11786.3C9487.6,11766.5 9497.13,11733.8 9545.4,11727.1C9569.2,11723.8 9597.29,11744.4 9597.29,11744.4C9597.29,11744.4 9603.79,11729.1 9549.3,11695.9C9538.69,11689.5 9550.89,11671.5 9557.27,11673.8C9612.42,11693.7 9619.2,11744 9619.2,11744Z" style="fill:white;"/>
                </g>
                <g transform="matrix(1.82933,0,0,1.49861,42077.3,20536.1)">
                    <path d="M9600.29,11705.6C9600.29,11705.6 9601.69,11684.3 9611.84,11673.6C9630.51,11653.8 9659.03,11658 9659.03,11658C9659.03,11658 9667.29,11684.6 9647.56,11703.5C9638.31,11712.4 9608.82,11718.4 9608.82,11718.4C9608.82,11718.4 9606.58,11714 9605.22,11712C9603.8,11709.8 9600.29,11705.6 9600.29,11705.6Z" style="fill:rgb(151,192,107);"/>
                </g>
                <g transform="matrix(1.82933,0,0,1.49861,41205.8,20489.8)">
                    <path d="M10022.8,11833C10022.8,11833 10019.5,11851.4 10023.4,11870.1C10026.6,11885.8 10038.4,11903 10038.4,11903" style="fill:none;stroke:rgb(151,192,107);stroke-width:1.25px;"/>
                </g>
                <g transform="matrix(2.80702,0.178665,-0.196229,2.069,33680.6,11928)">
                    <path d="M10022.8,11833C10022.8,11833 10019.5,11851.4 10023.4,11870.1C10026.6,11885.8 10038.4,11903 10038.4,11903" style="fill:none;stroke:rgb(151,192,107);stroke-width:0.83px;"/>
                </g>
                <g transform="matrix(1.82933,0,0,1.49861,41205.8,20489.8)">
                    <path d="M10050.3,11831.2C10050.3,11831.2 10044.3,11840.6 10044.9,11855.2C10045.5,11868.9 10051.2,11880 10051.2,11880" style="fill:none;stroke:rgb(151,192,107);stroke-width:1.25px;"/>
                </g>
                <g transform="matrix(-1.85433,-0.125181,-0.150237,1.49354,80133.4,21813.5)">
                    <path d="M10022.8,11833C10022.8,11833 10019.5,11851.4 10023.4,11870.1C10026.6,11885.8 10038.4,11903 10038.4,11903" style="fill:none;stroke:rgb(151,192,107);stroke-width:1.15px;"/>
                </g>
                <g transform="matrix(-1.8563,0.103668,0.154735,1.85946,76594.5,15162.7)">
                    <path d="M10022.8,11833C10022.8,11833 10019.5,11851.4 10023.4,11870.1C10026.6,11885.8 10038.4,11903 10038.4,11903" style="fill:none;stroke:rgb(151,192,107);stroke-width:1.01px;"/>
                </g>
                <g transform="matrix(-1.81963,0.318169,0.32477,1.2465,74160,20257.1)">
                    <path d="M10050.3,11831.2C10050.3,11831.2 10044.3,11840.6 10044.9,11855.2C10045.5,11868.9 10051.2,11880 10051.2,11880" style="fill:none;stroke:rgb(151,192,107);stroke-width:1.33px;"/>
                </g>
                <g transform="matrix(-2.43671,-0.589901,-0.615441,1.70609,91454.1,23968.6)">
                    <path d="M10050.3,11831.2C10050.3,11831.2 10044.3,11840.6 10044.9,11855.2" style="fill:none;stroke:rgb(151,192,107);stroke-width:0.97px;"/>
                </g>
                <g transform="matrix(-1.22814,-1.62018,-1.54653,0.786745,90343,45293.6)">
                    <path d="M10050.3,11831.2C10050.3,11831.2 10044.3,11840.6 10044.9,11855.2" style="fill:none;stroke:rgb(151,192,107);stroke-width:1.09px;"/>
                </g>
                <g transform="matrix(2.18362,-1.4231,1.93157,1.78885,14093.7,31797.9)">
                    <circle cx="10397.2" cy="11883.3" r="1.843" style="fill:rgb(151,192,107);"/>
                </g>
                <g transform="matrix(-0.114575,2.21251,-3.00302,-0.0938614,96709.8,16412.4)">
                    <circle cx="10397.2" cy="11883.3" r="1.843" style="fill:rgb(151,192,107);"/>
                </g>
                <g transform="matrix(2.18362,-1.4231,1.93157,1.78885,14124.9,31804.7)">
                    <circle cx="10397.2" cy="11883.3" r="1.843" style="fill:rgb(151,192,107);"/>
                </g>
                <g transform="matrix(2.74998,0.582035,-0.789991,2.25281,40601,5404.74)">
                    <circle cx="10397.2" cy="11883.3" r="1.843" style="fill:rgb(151,192,107);"/>
                </g>
                <g transform="matrix(2.18362,-1.4231,1.93157,1.78885,14069.1,31849.7)">
                    <circle cx="10397.2" cy="11883.3" r="1.843" style="fill:rgb(151,192,107);"/>
                </g>
                <g transform="matrix(2.18362,-1.4231,1.93157,1.78885,14094.3,31828.6)">
                    <circle cx="10397.2" cy="11883.3" r="1.843" style="fill:rgb(151,192,107);"/>
                </g>
                <g transform="matrix(2.18362,-1.4231,1.93157,1.78885,14060.1,31880.8)">
                    <circle cx="10397.2" cy="11883.3" r="1.843" style="fill:rgb(151,192,107);"/>
                </g>
                <g transform="matrix(2.18362,-1.4231,1.93157,1.78885,14106.4,31862.7)">
                    <circle cx="10397.2" cy="11883.3" r="1.843" style="fill:rgb(151,192,107);"/>
                </g>
                <g transform="matrix(2.49314,1.18334,-1.39639,2.00653,50453.5,2058.63)">
                    <circle cx="10397.2" cy="11883.3" r="1.843" style="fill:rgb(151,192,107);"/>
                </g>
                <g transform="matrix(1.42349,-1.98214,2.63591,1.00474,13697.7,47005)">
                    <circle cx="10397.2" cy="11883.3" r="1.843" style="fill:rgb(151,192,107);"/>
                </g>
                <g transform="matrix(2.37462,-1.32231,1.834,1.78128,13361,30799.8)">
                    <circle cx="10397.2" cy="11883.3" r="1.843" style="fill:rgb(151,192,107);"/>
                </g>
                <g transform="matrix(2.37462,-1.32231,1.834,1.78128,13375.7,30845.7)">
                    <circle cx="10397.2" cy="11883.3" r="1.843" style="fill:rgb(151,192,107);"/>
                </g>
                <g transform="matrix(2.37462,-1.32231,1.834,1.78128,13383.4,30824.6)">
                    <circle cx="10397.2" cy="11883.3" r="1.843" style="fill:rgb(151,192,107);"/>
                </g>
                <g transform="matrix(2.49314,1.18334,-1.39639,2.00653,50427.6,2086.24)">
                    <circle cx="10397.2" cy="11883.3" r="1.843" style="fill:rgb(151,192,107);"/>
                </g>
                <g transform="matrix(1.42349,-1.98214,2.63591,1.00474,13714.2,46951.8)">
                    <circle cx="10397.2" cy="11883.3" r="1.843" style="fill:rgb(151,192,107);"/>
                </g>
                <g transform="matrix(2.41703,1.27509,-1.51895,1.95206,52722.2,1836.91)">
                    <circle cx="10397.2" cy="11883.3" r="1.843" style="fill:rgb(151,192,107);"/>
                </g>
                <g transform="matrix(1.42349,-1.98214,2.63591,1.00474,13713.5,46915.6)">
                    <circle cx="10397.2" cy="11883.3" r="1.843" style="fill:rgb(151,192,107);"/>
                </g>
                <g transform="matrix(-1.32989,2.01625,-2.68435,-0.934396,105573,28464.3)">
                    <circle cx="10397.2" cy="11883.3" r="1.843" style="fill:rgb(151,192,107);"/>
                </g>
                <g transform="matrix(-2.54072,-1.11203,1.30784,-2.04691,70658.3,74127.8)">
                    <circle cx="10397.2" cy="11883.3" r="1.843" style="fill:rgb(151,192,107);"/>
                </g>
                <g transform="matrix(-2.79069,0.861563,-1.08922,-2.04843,101813,53677.9)">
                    <circle cx="10397.2" cy="11883.3" r="1.843" style="fill:rgb(151,192,107);"/>
                </g>
                <g transform="matrix(-2.79069,0.861563,-1.08922,-2.04843,101752,53732.5)">
                    <circle cx="10397.2" cy="11883.3" r="1.843" style="fill:rgb(151,192,107);"/>
                </g>
                <g transform="matrix(-0.860553,-2.23514,2.72189,-0.66373,36377.6,69431.2)">
                    <circle cx="10397.2" cy="11883.3" r="1.843" style="fill:rgb(151,192,107);"/>
                </g>
                <g transform="matrix(-0.808625,-2.13535,2.89437,-0.586769,33819.8,67441.5)">
                    <circle cx="10397.2" cy="11883.3" r="1.843" style="fill:rgb(151,192,107);"/>
                </g>
                <g transform="matrix(-2.79069,0.861563,-1.08922,-2.04843,101805,53709.3)">
                    <circle cx="10397.2" cy="11883.3" r="1.843" style="fill:rgb(151,192,107);"/>
                </g>
                <g transform="matrix(0.977398,-0.60099,0.743997,0.730293,-16553.6,68970.7)">
                    <g>
                        <g transform="matrix(2.66762,-0.0707276,-0.0523023,1.97268,42826.5,-9045.64)">
                            <rect x="9550.29" y="11962" width="18.171" height="58.117" style="fill:rgb(151,192,107);"/>
                        </g>
                        <g transform="matrix(2.99468,-0.0793989,-0.0523023,1.97268,39701,-8962.8)">
                            <path d="M9566.09,11967C9566.8,11965.6 9567.18,11964 9567.18,11962.4C9567.18,11957.4 9563.52,11953.3 9559.02,11953.3C9554.52,11953.3 9550.86,11957.4 9550.86,11962.4C9550.86,11964 9551.24,11965.6 9551.95,11967L9566.09,11967Z" style="fill:rgb(151,192,107);"/>
                        </g>
                        <g transform="matrix(-0.0381707,1.43968,-2.33715,0.0619657,95952.9,-633.968)">
                            <rect x="9521.43" y="11926.9" width="37.119" height="10.669" style="fill:rgb(151,192,107);"/>
                        </g>
                        <g transform="matrix(0.991017,0.991017,-1.045,1.045,70740.2,-8107.86)">
                            <circle cx="9470.17" cy="11888.9" r="69.048" style="fill:none;stroke:rgb(151,192,107);stroke-width:25px;"/>
                        </g>
                    </g>
                </g>
            </g>
        </g>
    </g>
</svg>
