<?xml version="1.0" encoding="UTF-8" standalone="no"?>
<!DOCTYPE svg PUBLIC "-//W3C//DTD SVG 1.1//EN" "http://www.w3.org/Graphics/SVG/1.1/DTD/svg11.dtd">
<svg width="100%" height="100%" viewBox="0 0 679 628" version="1.1" xmlns="http://www.w3.org/2000/svg" xmlns:xlink="http://www.w3.org/1999/xlink" xml:space="preserve" xmlns:serif="http://www.serif.com/" style="fill-rule:evenodd;clip-rule:evenodd;stroke-linejoin:round;stroke-miterlimit:2;">
    <g transform="matrix(1,0,0,1,-182965,-128000)">
        <g id="Artboard15" transform="matrix(1.88404,0,0,1.79389,161314,115330)">
            <rect x="11491.6" y="7062.53" width="360.126" height="349.616" style="fill:none;"/>
            <g transform="matrix(0.530775,0,0,0.557448,6344.61,2200.48)">
                <g transform="matrix(1,0,0,1,-1748.3,-2445.18)">
                    <g transform="matrix(18.722,0,0,19.1726,9354.8,9965.2)">
                        <g transform="matrix(1,0,0,1,0,-441.077)">
                            <path d="M130.592,509.058C130.436,509.987 130.482,511.878 130.552,512.818C130.643,514.05 131.359,514.645 132.602,514.651C133.197,514.654 133.796,514.587 134.386,514.499C135.842,514.281 137.239,514.297 138.548,515.136C138.954,515.396 139.466,515.653 139.956,515.725C140.659,515.829 141.334,515.775 142.183,515.742C141.132,516.554 139.87,516.804 138.947,516.366C138.482,516.145 137.947,515.893 137.397,515.683C137.459,517.515 137.326,519.307 138.97,520.564C137.515,520.364 137.031,519.877 136.864,518.552C136.82,518.2 136.796,517.845 136.733,517.496C136.481,516.088 136.544,515.554 135.106,515.713C134.123,515.821 132.899,516.33 131.883,515.936C132.006,516.883 132.367,517.58 133.058,518.109C134.018,518.842 134.65,519.749 134.463,521.033C134.309,522.082 134.856,522.69 135.729,523.086C136.282,523.336 136.854,523.543 137.417,523.769C137.404,523.819 137.392,523.868 137.379,523.918C136.762,523.797 136.12,523.747 135.536,523.535C134.935,523.318 134.391,522.944 133.667,522.555C133.387,523.858 133.12,525.098 132.854,526.338C132.8,526.326 132.746,526.314 132.692,526.302C132.505,524.931 132.726,523.6 133.032,522.264C133.198,521.543 133.262,520.79 133.278,520.049C133.283,519.79 133.071,519.411 132.847,519.283C131.75,518.657 131.004,517.727 130.354,516.682C130.225,516.475 129.967,516.349 129.7,516.129C129.477,517.089 129.622,517.868 129.94,518.62C130.374,519.645 130.043,521.401 129.617,522.417C129.271,523.245 128.372,524.118 128.295,525.484C128.256,526.161 128.016,526.965 128.016,527.645C127.772,527.314 127.583,526.939 127.522,526.571C127.321,525.368 128.149,523.269 128.447,521.843C128.726,520.51 128.744,519.175 128.246,517.864C128.07,517.398 127.826,517.334 127.396,517.503C126.701,517.779 126.282,518.297 126.01,518.962C125.756,519.584 125.55,520.23 125.252,520.83C124.556,522.229 122.485,523.209 121.167,522.716C121.979,522.497 122.23,522.452 122.748,522.232C123.182,522.049 123.724,521.756 123.963,521.413C124.406,520.779 124.657,520.011 125.037,519.194C124.46,519.277 123.932,519.541 123.389,519.62C122.647,519.727 121.728,519.419 121.025,519.521C120.581,519.585 120.316,519.877 119.879,519.94C120.109,519.313 120.525,518.993 121.266,518.955C121.658,518.935 122.051,518.949 122.443,518.952C123.781,518.964 124.772,518.347 125.608,517.33C126.073,516.763 126.649,516.263 127.248,515.836C127.698,515.515 127.966,515.16 128.048,514.545C126.244,515.195 124.804,514.456 122.979,515.88C122.749,516.059 122.519,516.327 122.399,516.603C122.063,517.373 121.6,517.636 120.766,517.445C121.022,517.248 121.434,517.135 121.702,516.859C122.03,516.522 122.082,515.886 122.348,515.528C122.678,515.086 123.004,514.835 123.093,514.542C122.389,514.311 121.781,514.453 121.134,514.717C120.581,514.943 120.047,515.222 119.482,515.41C118.532,515.728 117.729,515.415 117.248,514.535C118.555,515.007 119.643,514.617 120.763,514.017C121.311,513.723 122.061,513.726 122.717,513.738C123.534,513.754 124.346,513.956 125.164,514.01C126.816,514.119 127.487,513.705 127.932,512.117C128.201,511.158 128.367,509.679 128.596,508.709C128.697,508.708 128.875,509.218 128.977,509.218C129.587,509.218 130.63,508.831 130.592,509.058" style="fill:rgb(151,192,107);fill-rule:nonzero;"/>
                        </g>
                    </g>
                    <g transform="matrix(8.64544,0,0,1.02281,-18740.7,8522.09)">
                        <rect x="3508.84" y="2677.4" width="42.898" height="27.148" style="fill:white;"/>
                    </g>
                    <g transform="matrix(0.954319,-0.3875,0.591049,1.45561,-3684.9,5632.47)">
                        <path d="M11572.9,7073.5L11572.9,7066.32L11627.9,7066.32L11627.9,7059.65L11643.5,7069.91L11627.9,7080.18L11627.9,7073.5L11572.9,7073.5Z" style="fill:white;"/>
                    </g>
                    <g transform="matrix(-0.992565,-0.275127,0.419648,-1.51395,20537.7,25339.1)">
                        <path d="M11572.9,7073.5L11572.9,7066.32L11627.9,7066.32L11627.9,7059.65L11643.5,7069.91L11627.9,7080.18L11627.9,7073.5L11572.9,7073.5Z" style="fill:white;"/>
                    </g>
                    <g transform="matrix(-7.34576e-17,-1.02999,1.57103,3.63427e-17,692.615,23534.3)">
                        <path d="M11572.9,7073.5L11572.9,7066.32L11627.9,7066.32L11627.9,7059.65L11643.5,7069.91L11627.9,7080.18L11627.9,7073.5L11572.9,7073.5Z" style="fill:white;"/>
                    </g>
                </g>
                <g transform="matrix(1,0,0,1,-584.858,-1083.57)">
                    <g transform="matrix(0.499515,0,0,0.449647,9183.23,9504.6)">
                        <circle cx="2402.82" cy="1386.86" r="49.941" style="fill:rgb(151,192,107);"/>
                    </g>
                    <g transform="matrix(0.551279,0,0,0.523806,9043.42,9543.11)">
                        <g transform="matrix(45.8333,0,0,45.8333,2449.78,1134.88)">
                        </g>
                        <text x="2411.83px" y="1134.88px" style="font-family:'Comfortaa-SemiBold', 'Comfortaa';font-weight:600;font-size:45.833px;fill:white;">N</text>
                    </g>
                </g>
                <g transform="matrix(1,2.13625e-17,2.13625e-17,1,-59.4331,-1139.49)">
                    <g transform="matrix(0.499515,0,0,0.449647,9183.23,9504.6)">
                        <circle cx="2402.82" cy="1386.86" r="49.941" style="fill:rgb(151,192,107);"/>
                    </g>
                    <g transform="matrix(0.551279,0,0,0.523806,9043.42,9543.11)">
                        <g transform="matrix(45.8333,0,0,45.8333,2449.78,1134.88)">
                        </g>
                        <text x="2411.83px" y="1134.88px" style="font-family:'Comfortaa-SemiBold', 'Comfortaa';font-weight:600;font-size:45.833px;fill:white;">N</text>
                    </g>
                </g>
                <g transform="matrix(1,0,0,1,-420.008,-926.675)">
                    <g transform="matrix(0.499515,0,0,0.449647,9183.23,9504.6)">
                        <circle cx="2402.82" cy="1386.86" r="49.941" style="fill:rgb(151,192,107);"/>
                    </g>
                    <g transform="matrix(0.551279,0,0,0.523806,9043.42,9543.11)">
                        <g transform="matrix(45.8333,0,0,45.8333,2449.78,1134.88)">
                        </g>
                        <text x="2411.83px" y="1134.88px" style="font-family:'Comfortaa-SemiBold', 'Comfortaa';font-weight:600;font-size:45.833px;fill:white;">N</text>
                    </g>
                </g>
                <g transform="matrix(1,0,0,1,-544.803,-926.675)">
                    <g>
                        <g transform="matrix(0.500731,0,0,0.449647,9485.62,9504.6)">
                            <circle cx="2402.82" cy="1386.86" r="49.941" style="fill:rgb(151,192,107);"/>
                        </g>
                        <g transform="matrix(0.551279,0,0,0.523806,9348.92,9543.11)">
                            <g transform="matrix(45.8333,0,0,45.8333,2445.98,1134.88)">
                            </g>
                            <text x="2415.64px" y="1134.88px" style="font-family:'Comfortaa-SemiBold', 'Comfortaa';font-weight:600;font-size:45.833px;fill:white;">K</text>
                        </g>
                    </g>
                </g>
                <g transform="matrix(1,2.13625e-17,2.13625e-17,1,-481.786,-913.023)">
                    <g>
                        <g transform="matrix(0.501084,0,0,0.449647,9547.52,9351.91)">
                            <circle cx="2402.82" cy="1386.86" r="49.941" style="fill:rgb(151,192,107);"/>
                        </g>
                        <g transform="matrix(0.551279,0,0,0.523806,9412.24,9390.42)">
                            <g transform="matrix(45.8333,0,0,45.8333,2444.99,1134.88)">
                            </g>
                            <text x="2416.62px" y="1134.88px" style="font-family:'Comfortaa-SemiBold', 'Comfortaa';font-weight:600;font-size:45.833px;fill:white;">P</text>
                        </g>
                    </g>
                </g>
                <g transform="matrix(1,0,0,1,-701.411,-742.224)">
                    <g>
                        <g transform="matrix(0.501084,0,0,0.449647,9547.52,9351.91)">
                            <circle cx="2402.82" cy="1386.86" r="49.941" style="fill:rgb(151,192,107);"/>
                        </g>
                        <g transform="matrix(0.551279,0,0,0.523806,9412.24,9390.42)">
                            <g transform="matrix(45.8333,0,0,45.8333,2444.99,1134.88)">
                            </g>
                            <text x="2416.62px" y="1134.88px" style="font-family:'Comfortaa-SemiBold', 'Comfortaa';font-weight:600;font-size:45.833px;fill:white;">P</text>
                        </g>
                    </g>
                </g>
                <g transform="matrix(1,0,0,1,-939.869,-1157.35)">
                    <g>
                        <g transform="matrix(0.500731,0,0,0.449647,9485.62,9504.6)">
                            <circle cx="2402.82" cy="1386.86" r="49.941" style="fill:rgb(151,192,107);"/>
                        </g>
                        <g transform="matrix(0.551279,0,0,0.523806,9348.92,9543.11)">
                            <g transform="matrix(45.8333,0,0,45.8333,2445.98,1134.88)">
                            </g>
                            <text x="2415.64px" y="1134.88px" style="font-family:'Comfortaa-SemiBold', 'Comfortaa';font-weight:600;font-size:45.833px;fill:white;">K</text>
                        </g>
                    </g>
                </g>
                <g transform="matrix(1,2.13625e-17,2.13625e-17,1,-419.043,-1211.2)">
                    <g>
                        <g transform="matrix(0.500731,0,0,0.449647,9485.62,9504.6)">
                            <circle cx="2402.82" cy="1386.86" r="49.941" style="fill:rgb(151,192,107);"/>
                        </g>
                        <g transform="matrix(0.551279,0,0,0.523806,9348.92,9543.11)">
                            <g transform="matrix(45.8333,0,0,45.8333,2445.98,1134.88)">
                            </g>
                            <text x="2415.64px" y="1134.88px" style="font-family:'Comfortaa-SemiBold', 'Comfortaa';font-weight:600;font-size:45.833px;fill:white;">K</text>
                        </g>
                    </g>
                </g>
                <g transform="matrix(1,0,0,1,-952.919,-1076.37)">
                    <g>
                        <g transform="matrix(0.501084,0,0,0.449647,9547.52,9351.91)">
                            <circle cx="2402.82" cy="1386.86" r="49.941" style="fill:rgb(151,192,107);"/>
                        </g>
                        <g transform="matrix(0.551279,0,0,0.523806,9412.24,9390.42)">
                            <g transform="matrix(45.8333,0,0,45.8333,2444.99,1134.88)">
                            </g>
                            <text x="2416.62px" y="1134.88px" style="font-family:'Comfortaa-SemiBold', 'Comfortaa';font-weight:600;font-size:45.833px;fill:white;">P</text>
                        </g>
                    </g>
                </g>
            </g>
        </g>
        <g id="_01" serif:id="01">
        </g>
        <g id="_011" serif:id="01">
        </g>
        <g id="_012" serif:id="01">
        </g>
        <g id="_013" serif:id="01">
        </g>
    </g>
</svg>
