<?xml version="1.0" encoding="UTF-8" standalone="no"?>
<!DOCTYPE svg PUBLIC "-//W3C//DTD SVG 1.1//EN" "http://www.w3.org/Graphics/SVG/1.1/DTD/svg11.dtd">
<svg width="100%" height="100%" viewBox="0 0 564 628" version="1.1" xmlns="http://www.w3.org/2000/svg" xmlns:xlink="http://www.w3.org/1999/xlink" xml:space="preserve" xmlns:serif="http://www.serif.com/" style="fill-rule:evenodd;clip-rule:evenodd;stroke-linejoin:round;stroke-miterlimit:2;">
    <g transform="matrix(1,0,0,1,-182965,-128000)">
        <g id="Artboard15" transform="matrix(1.56592,0,0,1.79389,164970,115330)">
            <rect x="11491.6" y="7062.53" width="360.126" height="349.616" style="fill:none;"/>
            <g transform="matrix(0.6386,0,0,0.557448,5033.27,2243.9)">
                <g transform="matrix(0.516242,0,0,0.449647,9006.79,8486.34)">
                    <circle cx="2402.82" cy="1386.86" r="49.941" style="fill:rgb(151,192,107);"/>
                </g>
                <g transform="matrix(0.551279,0,0,0.523806,8907.17,8524.86)">
                    <g transform="matrix(45.8333,0,0,45.8333,2449.78,1134.88)">
                    </g>
                    <text x="2411.83px" y="1134.88px" style="font-family:'Comfortaa-SemiBold', 'Comfortaa';font-weight:600;font-size:45.833px;fill:white;">N</text>
                </g>
                <g transform="matrix(0.516242,0,0,0.449647,9155.65,8538.57)">
                    <circle cx="2402.82" cy="1386.86" r="49.941" style="fill:rgb(151,192,107);"/>
                </g>
                <g transform="matrix(0.500495,0,0,0.475553,9167.71,8637.94)">
                    <g transform="matrix(45.8333,0,0,45.8333,2498.74,1119.26)">
                    </g>
                    <text x="2409.59px" y="1119.26px" style="font-family:'Comfortaa-SemiBold', 'Comfortaa';font-weight:600;font-size:45.833px;fill:white;">H<tspan x="2446.08px 2456.53px " y="1119.26px 1119.26px "> O</tspan></text>
                </g>
                <g transform="matrix(0.500495,0,0,0.475553,9127.19,4476.42)">
                    <g transform="matrix(0.914662,0,0,1,215.732,0)">
                        <g transform="matrix(25,0,0,25,2542.6,9877.17)">
                        </g>
                        <text x="2527.97px" y="9877.17px" style="font-family:'Comfortaa-SemiBold', 'Comfortaa';font-weight:600;font-size:25px;fill:white;">2</text>
                    </g>
                </g>
                <g transform="matrix(0.516242,0,0,0.449647,9313.72,8486.34)">
                    <circle cx="2402.82" cy="1386.86" r="49.941" style="fill:rgb(151,192,107);"/>
                </g>
                <g transform="matrix(0.551279,0,0,0.523806,9214.1,8524.86)">
                    <g transform="matrix(45.8333,0,0,45.8333,2445.98,1134.88)">
                    </g>
                    <text x="2415.64px" y="1134.88px" style="font-family:'Comfortaa-SemiBold', 'Comfortaa';font-weight:600;font-size:45.833px;fill:white;">K</text>
                </g>
                <g transform="matrix(0.516242,0,0,0.449647,9006.96,8179.64)">
                    <circle cx="2402.82" cy="1386.86" r="49.941" style="fill:rgb(151,192,107);"/>
                </g>
                <g transform="matrix(0.551279,0,0,0.523806,8906.91,8218.16)">
                    <g transform="matrix(45.8333,0,0,45.8333,2446.35,1134.88)">
                    </g>
                    <text x="2415.27px" y="1134.88px" style="font-family:'Comfortaa-SemiBold', 'Comfortaa';font-weight:600;font-size:45.833px;fill:white;">S</text>
                </g>
                <g transform="matrix(0.516242,0,0,0.449647,9310.02,8179.64)">
                    <circle cx="2402.82" cy="1386.86" r="49.941" style="fill:rgb(151,192,107);"/>
                </g>
                <g transform="matrix(0.516242,0,0,0.449647,8933.29,8331.13)">
                    <circle cx="2402.82" cy="1386.86" r="49.941" style="fill:rgb(151,192,107);"/>
                </g>
                <g transform="matrix(0.500495,0,0,0.475553,8945.97,8431.12)">
                    <g transform="matrix(45.8333,0,0,45.8333,2498.11,1119.26)">
                    </g>
                    <text x="2408.96px" y="1119.26px" style="font-family:'Comfortaa-SemiBold', 'Comfortaa';font-weight:600;font-size:45.833px;fill:white;">H<tspan x="2445.44px 2455.89px " y="1119.26px 1119.26px "> O</tspan></text>
                </g>
                <g transform="matrix(0.516242,0,0,0.449647,9376.44,8333.65)">
                    <circle cx="2402.82" cy="1386.86" r="49.941" style="fill:rgb(151,192,107);"/>
                </g>
                <g transform="matrix(0.551279,0,0,0.523806,9276.83,8372.17)">
                    <g transform="matrix(45.8333,0,0,45.8333,2444.99,1134.88)">
                    </g>
                    <text x="2416.62px" y="1134.88px" style="font-family:'Comfortaa-SemiBold', 'Comfortaa';font-weight:600;font-size:45.833px;fill:white;">P</text>
                </g>
                <g transform="matrix(0.516242,0,0,0.449647,9157.15,8129.58)">
                    <circle cx="2402.82" cy="1386.86" r="49.941" style="fill:rgb(151,192,107);"/>
                </g>
                <g transform="matrix(0.551279,0,0,0.523806,9053.06,8168.09)">
                    <g transform="matrix(45.8333,0,0,45.8333,2467.61,1134.88)">
                    </g>
                    <text x="2413.2px" y="1134.88px" style="font-family:'Comfortaa-SemiBold', 'Comfortaa';font-weight:600;font-size:45.833px;fill:white;">Br</text>
                </g>
                <g transform="matrix(0.500495,0,0,0.475553,9322.78,8278.28)">
                    <g transform="matrix(45.8333,0,0,45.8333,2498.11,1119.26)">
                    </g>
                    <text x="2408.96px" y="1119.26px" style="font-family:'Comfortaa-SemiBold', 'Comfortaa';font-weight:600;font-size:45.833px;fill:white;">H<tspan x="2445.44px 2455.89px " y="1119.26px 1119.26px "> O</tspan></text>
                </g>
                <g transform="matrix(0.500495,0,0,0.475553,9282.01,4116.77)">
                    <g transform="matrix(0.914662,0,0,1,215.722,0)">
                        <g transform="matrix(25,0,0,25,2542.48,9877.17)">
                        </g>
                        <text x="2527.85px" y="9877.17px" style="font-family:'Comfortaa-SemiBold', 'Comfortaa';font-weight:600;font-size:25px;fill:white;">2</text>
                    </g>
                </g>
                <g transform="matrix(0.500495,0,0,0.475553,8904.99,4273.14)">
                    <g transform="matrix(0.914662,0,0,1,215.796,0)">
                        <g transform="matrix(25,0,0,25,2543.35,9877.17)">
                        </g>
                        <text x="2528.72px" y="9877.17px" style="font-family:'Comfortaa-SemiBold', 'Comfortaa';font-weight:600;font-size:25px;fill:white;">2</text>
                    </g>
                </g>
                <g transform="matrix(0.668218,0,0,0.61953,3208.45,-2823.45)">
                    <circle cx="10757.5" cy="19011.7" r="152.531" style="fill:rgb(151,192,107);"/>
                </g>
                <g transform="matrix(0.888928,0,0,0.834148,853.095,-6816.1)">
                    <g transform="matrix(45.8333,0,0,45.8333,10723,18884.7)">
                    </g>
                    <text x="10680px" y="18884.7px" style="font-family:'Comfortaa-SemiBold', 'Comfortaa';font-weight:600;font-size:45.833px;fill:white;">S<tspan x="10709.4px " y="18884.7px ">i</tspan></text>
                </g>
                <g transform="matrix(0.888928,0,0,0.834148,928.726,-6786.23)">
                    <g transform="matrix(45.8333,0,0,45.8333,10733,18884.7)">
                    </g>
                    <text x="10670px" y="18884.7px" style="font-family:'Comfortaa-SemiBold', 'Comfortaa';font-weight:600;font-size:45.833px;fill:white;">C<tspan x="10702.1px " y="18884.7px ">a</tspan></text>
                </g>
                <g transform="matrix(0.888928,0,0,0.834148,860.955,-6750.97)">
                    <g transform="matrix(45.8333,0,0,45.8333,10740.2,18886.4)">
                    </g>
                    <text x="10665.8px" y="18886.4px" style="font-family:'Comfortaa-SemiBold', 'Comfortaa';font-weight:600;font-size:45.833px;fill:white;">M<tspan x="10709.2px " y="18886.4px ">g</tspan></text>
                </g>
                <g transform="matrix(-0.00425998,-0.0900532,0.133782,-0.00632856,3815.01,18925.2)">
                    <path d="M108774,52527.1C108749,52527.1 108624,52542.3 108614,52654.5C108605,52761.3 108749,52795.3 108774,52795.3C108767,52764 108651,52751 108669,52651.6C108689,52537 108767,52558.4 108774,52527.1Z" style="fill:white;"/>
                </g>
                <g transform="matrix(-0.00518364,-0.109579,0.186451,-0.00882009,1142.24,21190.9)">
                    <path d="M108774,52527.1C108749,52527.1 108624,52542.3 108614,52654.5C108605,52761.3 108749,52795.3 108774,52795.3C108767,52764 108651,52751 108669,52651.6C108689,52537 108767,52558.4 108774,52527.1Z" style="fill:white;"/>
                </g>
                <g transform="matrix(-0.00497859,-0.105244,0.225377,-0.0106615,-928.933,20829.2)">
                    <path d="M108774,52527.1C108749,52527.1 108624,52542.3 108614,52654.5C108605,52761.3 108749,52795.3 108774,52795.3C108767,52764 108651,52751 108669,52651.6C108689,52537 108767,52558.4 108774,52527.1Z" style="fill:white;"/>
                </g>
                <g transform="matrix(0.00408573,0.0900613,-0.133794,0.0060697,17000.8,-1002.58)">
                    <path d="M108774,52527.1C108749,52527.1 108624,52542.3 108614,52654.5C108605,52761.3 108749,52795.3 108774,52795.3C108767,52764 108651,52751 108669,52651.6C108689,52537 108767,52558.4 108774,52527.1Z" style="fill:white;"/>
                </g>
                <g transform="matrix(0.00497161,0.109589,-0.186468,0.00845931,19678,-3263.14)">
                    <path d="M108774,52527.1C108749,52527.1 108624,52542.3 108614,52654.5C108605,52761.3 108749,52795.3 108774,52795.3C108767,52764 108651,52751 108669,52651.6C108689,52537 108767,52558.4 108774,52527.1Z" style="fill:white;"/>
                </g>
                <g transform="matrix(0.00477495,0.105254,-0.225397,0.0102254,21748.5,-2897.45)">
                    <path d="M108774,52527.1C108749,52527.1 108624,52542.3 108614,52654.5C108605,52761.3 108749,52795.3 108774,52795.3C108767,52764 108651,52751 108669,52651.6C108689,52537 108767,52558.4 108774,52527.1Z" style="fill:white;"/>
                </g>
                <g transform="matrix(0.0899805,-0.00558805,0.00830152,0.133674,340.009,2521.38)">
                    <path d="M108774,52527.1C108749,52527.1 108624,52542.3 108614,52654.5C108605,52761.3 108749,52795.3 108774,52795.3C108767,52764 108651,52751 108669,52651.6C108689,52537 108767,52558.4 108774,52527.1Z" style="fill:white;"/>
                </g>
                <g transform="matrix(0.10949,-0.00679967,0.0115698,0.186301,-1964.91,-117.68)">
                    <path d="M108774,52527.1C108749,52527.1 108624,52542.3 108614,52654.5C108613,52663.7 108614,52672.3 108615,52680.5C108629,52766.9 108752,52795.3 108774,52795.3C108767,52764 108651,52751 108669,52651.6C108689,52537 108767,52558.4 108774,52527.1Z" style="fill:white;"/>
                </g>
                <g transform="matrix(0.105159,-0.00653069,0.0139853,0.225195,-1633.82,-2193.96)">
                    <path d="M108774,52527.1C108749,52527.1 108624,52542.3 108614,52654.5C108605,52761.3 108749,52795.3 108774,52795.3C108767,52764 108651,52751 108669,52651.6C108689,52537 108767,52558.4 108774,52527.1Z" style="fill:white;"/>
                </g>
                <g transform="matrix(-0.090147,0.00111432,-0.00165542,-0.133921,20128.4,15886.6)">
                    <path d="M108774,52527.1C108749,52527.1 108624,52542.3 108614,52654.5C108605,52761.3 108749,52795.3 108774,52795.3C108767,52764 108651,52751 108669,52651.6C108689,52537 108767,52558.4 108774,52527.1Z" style="fill:white;"/>
                </g>
                <g transform="matrix(-0.109693,0.00135593,-0.00230715,-0.186645,22299.4,18636.8)">
                    <path d="M108774,52527.1C108749,52527.1 108624,52542.3 108614,52654.5C108605,52761.3 108749,52795.3 108774,52795.3C108767,52764 108651,52751 108669,52651.6C108689,52537 108767,52558.4 108774,52527.1Z" style="fill:white;"/>
                </g>
                <g transform="matrix(-0.105354,0.00130229,-0.00278882,-0.225612,21865.7,20694.1)">
                    <path d="M108774,52527.1C108749,52527.1 108624,52542.3 108614,52654.5C108605,52761.3 108749,52795.3 108774,52795.3C108767,52764 108651,52751 108669,52651.6C108689,52537 108767,52558.4 108774,52527.1Z" style="fill:white;"/>
                </g>
                <g transform="matrix(0.0634574,0.0640382,-0.0951342,0.0942713,8627.98,-2855.82)">
                    <path d="M108774,52527.1C108749,52527.1 108624,52542.3 108614,52654.5C108605,52761.3 108749,52795.3 108774,52795.3C108767,52764 108651,52751 108669,52651.6C108689,52537 108767,52558.4 108774,52527.1Z" style="fill:white;"/>
                </g>
                <g transform="matrix(0.0772164,0.0779232,-0.132588,0.131386,9096.31,-6328.27)">
                    <path d="M108774,52527.1C108749,52527.1 108624,52542.3 108614,52654.5C108605,52761.3 108749,52795.3 108774,52795.3C108767,52764 108651,52751 108669,52651.6C108689,52537 108767,52558.4 108774,52527.1Z" style="fill:white;"/>
                </g>
                <g transform="matrix(0.0741619,0.0748407,-0.160269,0.158816,10876.9,-7446.32)">
                    <path d="M108774,52527.1C108749,52527.1 108624,52542.3 108614,52654.5C108605,52761.3 108749,52795.3 108774,52795.3C108767,52764 108651,52751 108669,52651.6C108689,52537 108767,52558.4 108774,52527.1Z" style="fill:white;"/>
                </g>
                <g transform="matrix(-0.0665533,-0.0608143,0.0903448,-0.0988707,12765.2,20664.4)">
                    <path d="M108774,52527.1C108749,52527.1 108624,52542.3 108614,52654.5C108605,52761.3 108749,52795.3 108774,52795.3C108767,52764 108651,52751 108669,52651.6C108689,52537 108767,52558.4 108774,52527.1Z" style="fill:white;"/>
                </g>
                <g transform="matrix(-0.0809837,-0.0740003,0.125913,-0.137796,12469.5,24155.8)">
                    <path d="M108774,52527.1C108749,52527.1 108624,52542.3 108614,52654.5C108605,52761.3 108749,52795.3 108774,52795.3C108767,52764 108651,52751 108669,52651.6C108689,52537 108767,52558.4 108774,52527.1Z" style="fill:white;"/>
                </g>
                <g transform="matrix(-0.0777802,-0.071073,0.152201,-0.166564,10746.5,25360.8)">
                    <path d="M108774,52527.1C108749,52527.1 108624,52542.3 108614,52654.5C108605,52761.3 108749,52795.3 108774,52795.3C108767,52764 108651,52751 108669,52651.6C108689,52537 108767,52558.4 108774,52527.1Z" style="fill:white;"/>
                </g>
                <g transform="matrix(-0.0689198,0.0581187,-0.0863402,-0.102386,22326.8,8143.39)">
                    <path d="M108774,52527.1C108749,52527.1 108624,52542.3 108614,52654.5C108605,52761.3 108749,52795.3 108774,52795.3C108767,52764 108651,52751 108669,52651.6C108689,52537 108767,52558.4 108774,52527.1Z" style="fill:white;"/>
                </g>
                <g transform="matrix(-0.0838633,0.0707202,-0.120332,-0.142695,25750.5,8888.63)">
                    <path d="M108774,52527.1C108749,52527.1 108624,52542.3 108614,52654.5C108605,52761.3 108749,52795.3 108774,52795.3C108767,52764 108651,52751 108669,52651.6C108689,52537 108767,52558.4 108774,52527.1Z" style="fill:white;"/>
                </g>
                <g transform="matrix(-0.0805459,0.0679226,-0.145454,-0.172487,26722.2,10753.1)">
                    <path d="M108774,52527.1C108749,52527.1 108624,52542.3 108614,52654.5C108605,52761.3 108749,52795.3 108774,52795.3C108767,52764 108651,52751 108669,52651.6C108689,52537 108767,52558.4 108774,52527.1Z" style="fill:white;"/>
                </g>
                <g transform="matrix(0.0619834,-0.0654659,0.0972552,0.0920816,-1352.66,11113.9)">
                    <path d="M108774,52527.1C108749,52527.1 108624,52542.3 108614,52654.5C108605,52761.3 108749,52795.3 108774,52795.3C108767,52764 108651,52751 108669,52651.6C108689,52537 108767,52558.4 108774,52527.1Z" style="fill:white;"/>
                </g>
                <g transform="matrix(0.0754228,-0.0796605,0.135544,0.128334,-4838.27,10756.4)">
                    <path d="M108774,52527.1C108749,52527.1 108624,52542.3 108614,52654.5C108605,52761.3 108749,52795.3 108774,52795.3C108767,52764 108651,52751 108669,52651.6C108689,52537 108767,52558.4 108774,52527.1Z" style="fill:white;"/>
                </g>
                <g transform="matrix(0.0724393,-0.0765093,0.163842,0.155127,-6012.5,9012.36)">
                    <path d="M108774,52527.1C108749,52527.1 108624,52542.3 108614,52654.5C108605,52761.3 108749,52795.3 108774,52795.3C108767,52764 108651,52751 108669,52651.6C108689,52537 108767,52558.4 108774,52527.1Z" style="fill:white;"/>
                </g>
            </g>
        </g>
        <g id="_01" serif:id="01">
        </g>
        <g id="_011" serif:id="01">
        </g>
        <g id="_012" serif:id="01">
        </g>
        <g id="_013" serif:id="01">
        </g>
    </g>
</svg>
