<?xml version="1.0" encoding="UTF-8" standalone="no"?>
<!DOCTYPE svg PUBLIC "-//W3C//DTD SVG 1.1//EN" "http://www.w3.org/Graphics/SVG/1.1/DTD/svg11.dtd">
<svg width="100%" height="100%" viewBox="0 0 481 628" version="1.1" xmlns="http://www.w3.org/2000/svg" xmlns:xlink="http://www.w3.org/1999/xlink" xml:space="preserve" xmlns:serif="http://www.serif.com/" style="fill-rule:evenodd;clip-rule:evenodd;stroke-linecap:round;stroke-linejoin:round;stroke-miterlimit:1.5;">
    <g transform="matrix(1,0,0,1,-182965,-128000)">
        <g id="Artboard15" transform="matrix(1.33448,0,0,1.79389,167629,115330)">
            <rect x="11491.6" y="7062.53" width="360.126" height="349.616" style="fill:none;"/>
            <g transform="matrix(0.749356,0,0,0.557448,4508.31,2249.74)">
                <g transform="matrix(0.756458,0,0,0.756458,2390.63,2214.32)">
                    <path d="M9462.58,8751.72C9462.58,8751.72 9375.77,8883.81 9375.77,8940.42C9375.77,8988.33 9414.67,9027.22 9462.58,9027.22C9510.49,9027.22 9549.39,8988.33 9549.39,8940.42C9549.39,8883.81 9462.58,8751.72 9462.58,8751.72Z" style="fill:white;"/>
                </g>
                <g transform="matrix(0.91364,0.416455,-0.416455,0.91364,4560.91,-3222.47)">
                    <g transform="matrix(-0.691736,0.72215,-0.72215,-0.691736,22617.8,8394.02)">
                        <path d="M9629.4,8993.65C9611.08,8912.61 9539.07,8855.06 9455.99,8855.06C9372.9,8855.06 9300.89,8912.61 9282.57,8993.65" style="fill:none;stroke:rgb(151,192,107);stroke-width:18.75px;"/>
                    </g>
                    <g transform="matrix(1,1.54167e-17,-3.59751e-17,0.978919,7.85566,194.43)">
                        <path d="M9469.75,9177.1L9440.49,9117.11L9496.69,9095.56" style="fill:none;stroke:rgb(151,192,107);stroke-width:16.67px;"/>
                    </g>
                </g>
                <g transform="matrix(-0.909929,-0.414764,0.414764,-0.909929,14523.4,21073.4)">
                    <g transform="matrix(-0.691736,0.72215,-0.72215,-0.691736,22617.8,8394.02)">
                        <path d="M9629.4,8993.65C9611.08,8912.61 9539.07,8855.06 9455.99,8855.06C9372.9,8855.06 9300.89,8912.61 9282.57,8993.65" style="fill:none;stroke:rgb(151,192,107);stroke-width:18.75px;"/>
                    </g>
                    <g transform="matrix(1,0,0,1,7.85566,0.842563)">
                        <path d="M9469.15,9178.42L9440.49,9117.11L9496.69,9095.56" style="fill:none;stroke:rgb(151,192,107);stroke-width:16.67px;"/>
                    </g>
                </g>
            </g>
        </g>
        <g id="_01" serif:id="01">
        </g>
        <g id="_011" serif:id="01">
        </g>
        <g id="_012" serif:id="01">
        </g>
        <g id="_013" serif:id="01">
        </g>
    </g>
</svg>
