<?xml version="1.0" encoding="UTF-8" standalone="no"?>
<!DOCTYPE svg PUBLIC "-//W3C//DTD SVG 1.1//EN" "http://www.w3.org/Graphics/SVG/1.1/DTD/svg11.dtd">
<svg width="100%" height="100%" viewBox="0 0 679 628" version="1.1" xmlns="http://www.w3.org/2000/svg" xmlns:xlink="http://www.w3.org/1999/xlink" xml:space="preserve" xmlns:serif="http://www.serif.com/" style="fill-rule:evenodd;clip-rule:evenodd;stroke-linejoin:round;stroke-miterlimit:2;">
    <g transform="matrix(1,0,0,1,-182965,-128000)">
        <g id="Artboard15" transform="matrix(1.88404,0,0,1.79389,161314,115330)">
            <rect x="11491.6" y="7062.53" width="360.126" height="349.616" style="fill:none;"/>
            <g transform="matrix(0.526388,0,0,0.537736,5453.59,4670.18)">
                <g>
                    <g transform="matrix(0.551507,0,0,0.642364,11373.4,1394.12)">
                        <path d="M490.832,5269.75C490.832,5269.75 495.552,5136.51 495.298,5086.87C495.102,5048.49 489.309,4971.89 489.309,4971.89C489.309,4971.89 504.588,5036.78 508.234,5094.83C511.372,5144.8 514.46,5271.25 514.46,5271.25L490.832,5269.75Z" style="fill:rgb(151,192,107);"/>
                    </g>
                    <g transform="matrix(0.540917,0,0,0.432004,11391,2502.98)">
                        <path d="M490.832,5269.75C490.832,5269.75 495.552,5136.51 495.298,5086.87C495.102,5048.49 489.309,4971.89 489.309,4971.89C489.309,4971.89 504.588,5036.78 508.234,5094.83C511.372,5144.8 514.46,5271.25 514.46,5271.25L490.832,5269.75Z" style="fill:rgb(151,192,107);"/>
                    </g>
                    <g transform="matrix(-0.357548,0,0,0.50179,11852,2135.12)">
                        <path d="M490.832,5269.75C490.832,5269.75 495.552,5136.51 495.298,5086.87C495.102,5048.49 489.309,4971.89 489.309,4971.89C489.309,4971.89 504.588,5036.78 508.234,5094.83C511.372,5144.8 514.46,5271.25 514.46,5271.25L490.832,5269.75Z" style="fill:rgb(151,192,107);"/>
                    </g>
                    <g transform="matrix(-0.658388,0,0,0.50179,12014.3,2134.96)">
                        <path d="M490.832,5269.75C490.832,5269.75 495.552,5136.51 495.298,5086.87C495.102,5048.49 478.179,4923.85 478.179,4923.85C478.179,4923.85 504.588,5036.78 508.234,5094.83C511.372,5144.8 514.46,5271.25 514.46,5271.25L490.832,5269.75Z" style="fill:rgb(151,192,107);"/>
                    </g>
                    <g transform="matrix(0.593693,0,0,0.642364,11444.6,1394.12)">
                        <path d="M490.832,5269.75C490.832,5269.75 495.552,5136.51 495.298,5086.87C495.102,5048.49 489.309,4971.89 489.309,4971.89C489.309,4971.89 504.588,5036.78 508.234,5094.83C511.372,5144.8 514.46,5271.25 514.46,5271.25L490.832,5269.75Z" style="fill:rgb(151,192,107);"/>
                    </g>
                    <g transform="matrix(0.582293,0,0,0.432004,11463.6,2502.98)">
                        <path d="M490.832,5269.75C490.832,5269.75 495.552,5136.51 495.298,5086.87C495.102,5048.49 489.309,4971.89 489.309,4971.89C489.309,4971.89 504.588,5036.78 508.234,5094.83C511.372,5144.8 514.46,5271.25 514.46,5271.25L490.832,5269.75Z" style="fill:rgb(151,192,107);"/>
                    </g>
                    <g transform="matrix(-0.384897,0,0,0.50179,11959.8,2135.12)">
                        <path d="M490.832,5269.75C490.832,5269.75 495.552,5136.51 495.298,5086.87C495.102,5048.49 489.309,4971.89 489.309,4971.89C489.309,4971.89 504.588,5036.78 508.234,5094.83C511.372,5144.8 514.46,5271.25 514.46,5271.25L490.832,5269.75Z" style="fill:rgb(151,192,107);"/>
                    </g>
                    <g transform="matrix(-0.70875,0,0,0.50179,12134.6,2135.12)">
                        <path d="M490.832,5269.75C490.832,5269.75 495.552,5136.51 495.298,5086.87C495.102,5048.49 478.179,4923.85 478.179,4923.85C478.179,4923.85 504.588,5036.78 508.234,5094.83C511.372,5144.8 514.46,5271.25 514.46,5271.25L490.832,5269.75Z" style="fill:rgb(151,192,107);"/>
                    </g>
                    <g transform="matrix(0.593693,0,0,0.642364,11539.7,1394.12)">
                        <path d="M490.832,5269.75C490.832,5269.75 495.552,5136.51 495.298,5086.87C495.102,5048.49 489.309,4971.89 489.309,4971.89C489.309,4971.89 504.588,5036.78 508.234,5094.83C511.372,5144.8 514.46,5271.25 514.46,5271.25L490.832,5269.75Z" style="fill:rgb(151,192,107);"/>
                    </g>
                    <g transform="matrix(0.582293,0,0,0.432004,11558.7,2502.98)">
                        <path d="M490.832,5269.75C490.832,5269.75 495.552,5136.51 495.298,5086.87C495.102,5048.49 489.309,4971.89 489.309,4971.89C489.309,4971.89 504.588,5036.78 508.234,5094.83C511.372,5144.8 514.46,5271.25 514.46,5271.25L490.832,5269.75Z" style="fill:rgb(151,192,107);"/>
                    </g>
                    <g transform="matrix(-0.384897,0,0,0.50179,12054.9,2135.12)">
                        <path d="M490.832,5269.75C490.832,5269.75 495.552,5136.51 495.298,5086.87C495.102,5048.49 489.309,4971.89 489.309,4971.89C489.309,4971.89 504.588,5036.78 508.234,5094.83C511.372,5144.8 514.46,5271.25 514.46,5271.25L490.832,5269.75Z" style="fill:rgb(151,192,107);"/>
                    </g>
                    <g transform="matrix(-0.70875,0,0,0.50179,12229.7,2135.12)">
                        <path d="M490.832,5269.75C490.832,5269.75 495.552,5136.51 495.298,5086.87C495.102,5048.49 478.179,4923.85 478.179,4923.85C478.179,4923.85 504.588,5036.78 508.234,5094.83C511.372,5144.8 514.46,5271.25 514.46,5271.25L490.832,5269.75Z" style="fill:rgb(151,192,107);"/>
                    </g>
                    <g transform="matrix(0.593693,0,0,0.642364,11635.2,1394.12)">
                        <path d="M490.832,5269.75C490.832,5269.75 495.552,5136.51 495.298,5086.87C495.102,5048.49 489.309,4971.89 489.309,4971.89C489.309,4971.89 504.588,5036.78 508.234,5094.83C511.372,5144.8 514.46,5271.25 514.46,5271.25L490.832,5269.75Z" style="fill:rgb(151,192,107);"/>
                    </g>
                    <g transform="matrix(0.582293,0,0,0.432004,11654.2,2502.98)">
                        <path d="M490.832,5269.75C490.832,5269.75 495.552,5136.51 495.298,5086.87C495.102,5048.49 489.309,4971.89 489.309,4971.89C489.309,4971.89 504.588,5036.78 508.234,5094.83C511.372,5144.8 514.46,5271.25 514.46,5271.25L490.832,5269.75Z" style="fill:rgb(151,192,107);"/>
                    </g>
                    <g transform="matrix(-0.384897,0,0,0.50179,12150.4,2135.12)">
                        <path d="M490.832,5269.75C490.832,5269.75 495.552,5136.51 495.298,5086.87C495.102,5048.49 489.309,4971.89 489.309,4971.89C489.309,4971.89 504.588,5036.78 508.234,5094.83C511.372,5144.8 514.46,5271.25 514.46,5271.25L490.832,5269.75Z" style="fill:rgb(151,192,107);"/>
                    </g>
                    <g transform="matrix(-0.70875,0,0,0.50179,12325.2,2135.12)">
                        <path d="M490.832,5269.75C490.832,5269.75 495.552,5136.51 495.298,5086.87C495.102,5048.49 478.179,4923.85 478.179,4923.85C478.179,4923.85 504.588,5036.78 508.234,5094.83C511.372,5144.8 514.46,5271.25 514.46,5271.25L490.832,5269.75Z" style="fill:rgb(151,192,107);"/>
                    </g>
                </g>
                <g transform="matrix(0.990114,0,0,1,10884,3337.86)">
                    <path d="M1108.24,1453.19C1108.24,1443.14 1100.23,1434.99 1090.37,1434.99L780.746,1434.99C770.879,1434.99 762.869,1443.14 762.869,1453.19L762.869,1604.11C762.869,1614.15 770.879,1622.31 780.746,1622.31L1090.37,1622.31C1100.23,1622.31 1108.24,1614.15 1108.24,1604.11L1108.24,1453.19Z" style="fill:white;"/>
                </g>
                <g transform="matrix(1.16342,0,0,1,10741.6,3357.46)">
                    <path d="M855.122,1371.8C855.122,1358.86 846.338,1348.35 835.519,1348.35C824.699,1348.35 815.915,1358.86 815.915,1371.8L815.915,1527.61C815.915,1540.55 824.699,1551.06 835.519,1551.06C846.338,1551.06 855.122,1540.55 855.122,1527.61L855.122,1371.8Z" style="fill:rgb(10,54,0);"/>
                </g>
                <g transform="matrix(1.16342,0,0,1,10836.6,3357.46)">
                    <path d="M855.122,1371.8C855.122,1358.86 846.338,1348.35 835.519,1348.35C824.699,1348.35 815.915,1358.86 815.915,1371.8L815.915,1527.61C815.915,1540.55 824.699,1551.06 835.519,1551.06C846.338,1551.06 855.122,1540.55 855.122,1527.61L855.122,1371.8Z" style="fill:rgb(10,54,0);"/>
                </g>
                <g transform="matrix(1.16342,0,0,1,10932.3,3357.46)">
                    <path d="M855.122,1371.8C855.122,1358.86 846.338,1348.35 835.519,1348.35C824.699,1348.35 815.915,1358.86 815.915,1371.8L815.915,1527.61C815.915,1540.55 824.699,1551.06 835.519,1551.06C846.338,1551.06 855.122,1540.55 855.122,1527.61L855.122,1371.8Z" style="fill:rgb(10,54,0);"/>
                </g>
                <g transform="matrix(0.4451,0,0,0.4451,11334.2,4217.89)">
                    <circle cx="834.273" cy="1425.93" r="11.173" style="fill:rgb(36,74,28);"/>
                </g>
                <g transform="matrix(0.4451,0,0,0.4451,11356.2,4162.79)">
                    <circle cx="834.273" cy="1425.93" r="11.173" style="fill:rgb(36,74,28);"/>
                </g>
                <g transform="matrix(1.01771,0,0,1.01771,10860.4,3333.32)">
                    <circle cx="834.273" cy="1425.93" r="11.173" style="fill:rgb(36,74,28);"/>
                </g>
                <g transform="matrix(0.62756,0,0,0.62756,11181.5,3925.66)">
                    <circle cx="834.273" cy="1425.93" r="11.173" style="fill:rgb(36,74,28);"/>
                </g>
                <g transform="matrix(0.232113,0,0,0.232113,11507,4471.67)">
                    <circle cx="834.273" cy="1425.93" r="11.173" style="fill:rgb(36,74,28);"/>
                </g>
                <g transform="matrix(0.232113,0,0,0.232113,11507,4543.82)">
                    <circle cx="834.273" cy="1425.93" r="11.173" style="fill:rgb(36,74,28);"/>
                </g>
                <g transform="matrix(0.232113,0,0,0.232113,11531.8,4519.07)">
                    <circle cx="834.273" cy="1425.93" r="11.173" style="fill:rgb(36,74,28);"/>
                </g>
                <g transform="matrix(-0.4451,5.45091e-17,-5.45091e-17,-0.4451,12090.8,5468.91)">
                    <circle cx="834.273" cy="1425.93" r="11.173" style="fill:rgb(36,74,28);"/>
                </g>
                <g transform="matrix(-0.232113,2.84256e-17,-2.84256e-17,-0.232113,11918.1,5142.99)">
                    <circle cx="834.273" cy="1425.93" r="11.173" style="fill:rgb(36,74,28);"/>
                </g>
                <g transform="matrix(-0.232113,2.84256e-17,-2.84256e-17,-0.232113,11893.3,5167.74)">
                    <circle cx="834.273" cy="1425.93" r="11.173" style="fill:rgb(36,74,28);"/>
                </g>
                <g transform="matrix(1.01771,0,0,1.01771,10871.8,3420.66)">
                    <circle cx="834.273" cy="1425.93" r="11.173" style="fill:rgb(36,74,28);"/>
                </g>
                <g transform="matrix(0.4451,0,0,0.4451,11428,4217.89)">
                    <circle cx="834.273" cy="1425.93" r="11.173" style="fill:rgb(36,74,28);"/>
                </g>
                <g transform="matrix(0.4451,0,0,0.4451,11449.9,4162.79)">
                    <circle cx="834.273" cy="1425.93" r="11.173" style="fill:rgb(36,74,28);"/>
                </g>
                <g transform="matrix(1.01771,0,0,1.01771,10954.1,3333.32)">
                    <circle cx="834.273" cy="1425.93" r="11.173" style="fill:rgb(36,74,28);"/>
                </g>
                <g transform="matrix(0.62756,0,0,0.62756,11275.3,3925.66)">
                    <circle cx="834.273" cy="1425.93" r="11.173" style="fill:rgb(36,74,28);"/>
                </g>
                <g transform="matrix(0.232113,0,0,0.232113,11600.8,4471.67)">
                    <circle cx="834.273" cy="1425.93" r="11.173" style="fill:rgb(36,74,28);"/>
                </g>
                <g transform="matrix(0.232113,0,0,0.232113,11600.8,4543.82)">
                    <circle cx="834.273" cy="1425.93" r="11.173" style="fill:rgb(36,74,28);"/>
                </g>
                <g transform="matrix(0.232113,0,0,0.232113,11625.5,4519.07)">
                    <circle cx="834.273" cy="1425.93" r="11.173" style="fill:rgb(36,74,28);"/>
                </g>
                <g transform="matrix(-0.4451,5.45091e-17,-5.45091e-17,-0.4451,12184.6,5468.91)">
                    <circle cx="834.273" cy="1425.93" r="11.173" style="fill:rgb(36,74,28);"/>
                </g>
                <g transform="matrix(-0.232113,2.84256e-17,-2.84256e-17,-0.232113,12011.8,5142.99)">
                    <circle cx="834.273" cy="1425.93" r="11.173" style="fill:rgb(36,74,28);"/>
                </g>
                <g transform="matrix(-0.232113,2.84256e-17,-2.84256e-17,-0.232113,11987.1,5167.74)">
                    <circle cx="834.273" cy="1425.93" r="11.173" style="fill:rgb(36,74,28);"/>
                </g>
                <g transform="matrix(1.01771,0,0,1.01771,10965.5,3420.66)">
                    <circle cx="834.273" cy="1425.93" r="11.173" style="fill:rgb(36,74,28);"/>
                </g>
                <g transform="matrix(0.4451,0,0,0.4451,11524.7,4217.89)">
                    <circle cx="834.273" cy="1425.93" r="11.173" style="fill:rgb(36,74,28);"/>
                </g>
                <g transform="matrix(0.4451,0,0,0.4451,11546.6,4162.79)">
                    <circle cx="834.273" cy="1425.93" r="11.173" style="fill:rgb(36,74,28);"/>
                </g>
                <g transform="matrix(1.01771,0,0,1.01771,11050.8,3333.32)">
                    <circle cx="834.273" cy="1425.93" r="11.173" style="fill:rgb(36,74,28);"/>
                </g>
                <g transform="matrix(0.62756,0,0,0.62756,11371.9,3925.66)">
                    <circle cx="834.273" cy="1425.93" r="11.173" style="fill:rgb(36,74,28);"/>
                </g>
                <g transform="matrix(0.232113,0,0,0.232113,11697.4,4471.67)">
                    <circle cx="834.273" cy="1425.93" r="11.173" style="fill:rgb(36,74,28);"/>
                </g>
                <g transform="matrix(0.232113,0,0,0.232113,11697.4,4543.82)">
                    <circle cx="834.273" cy="1425.93" r="11.173" style="fill:rgb(36,74,28);"/>
                </g>
                <g transform="matrix(0.232113,0,0,0.232113,11722.2,4519.07)">
                    <circle cx="834.273" cy="1425.93" r="11.173" style="fill:rgb(36,74,28);"/>
                </g>
                <g transform="matrix(-0.4451,5.45091e-17,-5.45091e-17,-0.4451,12281.3,5468.91)">
                    <circle cx="834.273" cy="1425.93" r="11.173" style="fill:rgb(36,74,28);"/>
                </g>
                <g transform="matrix(-0.232113,2.84256e-17,-2.84256e-17,-0.232113,12108.5,5142.99)">
                    <circle cx="834.273" cy="1425.93" r="11.173" style="fill:rgb(36,74,28);"/>
                </g>
                <g transform="matrix(-0.232113,2.84256e-17,-2.84256e-17,-0.232113,12083.8,5167.74)">
                    <circle cx="834.273" cy="1425.93" r="11.173" style="fill:rgb(36,74,28);"/>
                </g>
                <g transform="matrix(1.01771,0,0,1.01771,11062.2,3420.66)">
                    <circle cx="834.273" cy="1425.93" r="11.173" style="fill:rgb(36,74,28);"/>
                </g>
            </g>
        </g>
        <g id="_01" serif:id="01">
        </g>
        <g id="_011" serif:id="01">
        </g>
        <g id="_012" serif:id="01">
        </g>
        <g id="_013" serif:id="01">
        </g>
    </g>
</svg>
