<?xml version="1.0" encoding="UTF-8" standalone="no"?>
<!DOCTYPE svg PUBLIC "-//W3C//DTD SVG 1.1//EN" "http://www.w3.org/Graphics/SVG/1.1/DTD/svg11.dtd">
<svg width="100%" height="100%" viewBox="0 0 595 591" version="1.1" xmlns="http://www.w3.org/2000/svg" xmlns:xlink="http://www.w3.org/1999/xlink" xml:space="preserve" xmlns:serif="http://www.serif.com/" style="fill-rule:evenodd;clip-rule:evenodd;stroke-linejoin:round;stroke-miterlimit:2;">
    <g transform="matrix(1,0,0,1,-179181,-127275)">
        <g id="Artboard2" transform="matrix(1.07564,0,0,1.13788,182848,120957)">
            <rect x="-3408.36" y="5551.99" width="552.708" height="518.772" style="fill:none;"/>
            <g transform="matrix(2.46001e-17,0.342649,-0.362475,2.94938e-17,-1207.7,6349.3)">
                <circle cx="-1569.89" cy="5306.15" r="747.652" style="fill:rgb(151,192,107);"/>
            </g>
            <g transform="matrix(1.17292,0,0,1.08995,-2558.73,744.205)">
                <g>
                    <g transform="matrix(221.851,-1.80178e-30,0,-221.851,-599.691,4734.11)">
                        <path d="M0.925,0.182C0.889,0.163 0.852,0.146 0.821,0.121C0.783,0.091 0.756,0.073 0.703,0.079C0.71,0.075 0.723,0.063 0.728,0.043C0.733,0.022 0.716,-0.011 0.697,-0.021C0.685,-0.027 0.66,-0.032 0.647,-0.032C0.623,-0.032 0.606,-0.03 0.583,-0.024C0.534,-0.013 0.487,0.006 0.434,0.006C0.428,0.006 0.416,0.003 0.411,0.007C0.404,0.015 0.409,0.026 0.418,0.029C0.435,0.034 0.472,0.032 0.485,0.03C0.507,0.027 0.532,0.02 0.554,0.016C0.602,0.005 0.615,-0.004 0.659,-0.002C0.681,-0.002 0.694,0.014 0.697,0.03C0.7,0.048 0.692,0.063 0.672,0.072C0.655,0.078 0.637,0.083 0.62,0.086C0.545,0.097 0.471,0.11 0.408,0.157C0.38,0.178 0.344,0.182 0.309,0.178C0.259,0.173 0.218,0.148 0.178,0.119C0.155,0.103 0.13,0.088 0.105,0.076C0.077,0.062 0.048,0.052 0.019,0.04C0.005,0.034 -0.003,0.025 0.001,0.008C0.016,-0.056 0.043,-0.115 0.084,-0.167C0.094,-0.181 0.107,-0.184 0.122,-0.175C0.146,-0.16 0.17,-0.145 0.194,-0.131C0.25,-0.097 0.309,-0.086 0.372,-0.104C0.421,-0.118 0.469,-0.131 0.517,-0.145C0.569,-0.159 0.619,-0.153 0.668,-0.13C0.796,-0.073 0.893,0.022 0.982,0.126C0.989,0.134 0.993,0.144 0.997,0.154C1.003,0.167 0.999,0.176 0.986,0.181C0.974,0.185 0.962,0.188 0.95,0.188C0.942,0.188 0.933,0.186 0.925,0.182Z" style="fill:white;fill-rule:nonzero;"/>
                    </g>
                    <g transform="matrix(153.68,-1.24813e-30,0,-153.68,-564.645,4616.33)">
                        <path d="M0.482,0.451C0.427,0.386 0.416,0.312 0.443,0.232C0.452,0.205 0.461,0.193 0.485,0.181C0.491,0.222 0.496,0.245 0.508,0.278C0.532,0.327 0.567,0.354 0.593,0.369C0.481,0.206 0.48,0.023 0.483,-0.155C0.453,-0.099 0.421,-0.04 0.388,0.018C0.353,0.077 0.303,0.121 0.244,0.155C0.325,0.129 0.388,0.087 0.423,0.008C0.443,0.036 0.447,0.049 0.442,0.08C0.429,0.148 0.388,0.191 0.327,0.218C0.252,0.251 0.174,0.255 0.095,0.252C0.063,0.251 0.032,0.246 -0,0.244C0.028,0.206 0.054,0.172 0.079,0.138C0.098,0.11 0.115,0.081 0.133,0.054C0.164,0.01 0.203,-0.021 0.255,-0.035C0.304,-0.049 0.348,-0.052 0.378,-0.036C0.439,-0.144 0.478,-0.246 0.501,-0.36C0.441,-0.342 0.377,-0.361 0.336,-0.411C0.33,-0.417 0.32,-0.422 0.312,-0.423C0.28,-0.427 0.25,-0.434 0.222,-0.458C0.243,-0.458 0.26,-0.457 0.277,-0.458C0.34,-0.462 0.392,-0.493 0.441,-0.528C0.474,-0.551 0.51,-0.563 0.549,-0.568C0.607,-0.576 0.663,-0.588 0.721,-0.594C0.763,-0.598 0.806,-0.599 0.849,-0.596C0.87,-0.594 0.887,-0.583 0.909,-0.57C0.908,-0.567 0.892,-0.561 0.886,-0.558C0.879,-0.553 0.87,-0.548 0.867,-0.541C0.839,-0.463 0.782,-0.423 0.702,-0.413C0.693,-0.411 0.682,-0.407 0.676,-0.4C0.644,-0.365 0.596,-0.353 0.551,-0.37C0.549,-0.37 0.546,-0.371 0.543,-0.371C0.543,-0.37 0.543,-0.368 0.542,-0.366C0.539,-0.35 0.537,-0.335 0.54,-0.32C0.55,-0.271 0.587,-0.157 0.605,-0.134C0.715,-0.178 0.777,-0.146 0.845,-0.052C0.892,0.013 0.928,0.087 1,0.142C0.878,0.166 0.765,0.171 0.656,0.121C0.598,0.094 0.559,0.05 0.544,-0.013C0.536,-0.046 0.55,-0.072 0.563,-0.093C0.602,-0.03 0.655,0.012 0.73,0.021C0.605,-0.043 0.565,-0.12 0.526,-0.247C0.515,-0.098 0.517,0.009 0.537,0.162C0.567,0.159 0.599,0.165 0.631,0.186C0.695,0.228 0.722,0.29 0.726,0.365C0.73,0.424 0.732,0.484 0.736,0.543C0.737,0.561 0.742,0.579 0.745,0.6C0.643,0.57 0.551,0.53 0.482,0.451Z" style="fill:white;fill-rule:nonzero;"/>
                    </g>
                </g>
            </g>
        </g>
        <g id="_01" serif:id="01">
        </g>
        <g id="_011" serif:id="01">
        </g>
        <g id="_012" serif:id="01">
        </g>
        <g id="_013" serif:id="01">
        </g>
    </g>
</svg>
