<?xml version="1.0" encoding="UTF-8" standalone="no"?>
<!DOCTYPE svg PUBLIC "-//W3C//DTD SVG 1.1//EN" "http://www.w3.org/Graphics/SVG/1.1/DTD/svg11.dtd">
<svg width="100%" height="100%" viewBox="0 0 595 591" version="1.1" xmlns="http://www.w3.org/2000/svg" xmlns:xlink="http://www.w3.org/1999/xlink" xml:space="preserve" xmlns:serif="http://www.serif.com/" style="fill-rule:evenodd;clip-rule:evenodd;stroke-linejoin:round;stroke-miterlimit:2;">
    <g transform="matrix(1,0,0,1,-179791,-127275)">
        <g id="Artboard2" transform="matrix(1.07564,0,0,1.13788,183457,120957)">
            <rect x="-3408.36" y="5551.99" width="552.708" height="518.772" style="fill:none;"/>
            <g transform="matrix(2.46001e-17,0.342649,-0.362475,2.94938e-17,-1207.7,6349.3)">
                <circle cx="-1569.89" cy="5306.15" r="747.652" style="fill:rgb(151,192,107);"/>
            </g>
            <g transform="matrix(1,0,0,1,0,-13.7168)">
                <g transform="matrix(0.103801,-0.103154,0.070137,0.062019,-3145.06,6420.44)">
                    <path d="M1892.64,-4953.37L1906.62,-5268.97L2932.11,-5134.15L3338.49,-4454.73L4175.24,-4415.88L4175.24,-4721.05L4474.48,-4251.56L4175.24,-3782.07L4175.24,-4087.23L3255.23,-4110.68L2827.19,-4848.02L1892.64,-4953.37Z" style="fill:white;"/>
                </g>
                <g transform="matrix(1.62246,0,0,1.12245,-1365.67,1232.11)">
                    <path d="M-1004.19,4032.88L-1031.93,4069.54L-1031.96,4207.88L-1004.19,4207.88L-1004.19,4032.88Z" style="fill:white;"/>
                </g>
                <g transform="matrix(1.60354,0,0,1.11193,-1495.49,1276.38)">
                    <path d="M-1004.19,4106.86L-1031.79,4106.69L-1031.96,4207.88L-1004.19,4207.88L-1004.19,4106.86Z" style="fill:white;"/>
                </g>
                <g transform="matrix(1.63646,0,0,1.10086,-1572.8,1322.94)">
                    <path d="M-1004.19,4122.61L-1031.93,4160.93L-1031.96,4207.88L-1004.19,4207.88L-1004.19,4122.61Z" style="fill:white;"/>
                </g>
                <g transform="matrix(1.59947,0,0,1.1112,-1554.68,1279.44)">
                    <path d="M-1004.19,4106.51L-1021.65,4106.43L-1031.87,4120.05L-1031.96,4207.88L-1004.19,4207.88L-1004.19,4106.51Z" style="fill:white;"/>
                </g>
                <g transform="matrix(1.65009,0,0,1.11925,-1394.09,1245.55)">
                    <path d="M-1004.33,4076.68L-1027.56,4107.56L-1031.93,4107.54L-1031.96,4207.88L-1004.19,4207.88L-1004.33,4076.68Z" style="fill:white;"/>
                </g>
            </g>
        </g>
        <g id="_01" serif:id="01">
        </g>
        <g id="_011" serif:id="01">
        </g>
        <g id="_012" serif:id="01">
        </g>
        <g id="_013" serif:id="01">
        </g>
    </g>
</svg>
