<?xml version="1.0" encoding="UTF-8" standalone="no"?>
<!DOCTYPE svg PUBLIC "-//W3C//DTD SVG 1.1//EN" "http://www.w3.org/Graphics/SVG/1.1/DTD/svg11.dtd">
<svg width="100%" height="100%" viewBox="0 0 1365 772" version="1.1" xmlns="http://www.w3.org/2000/svg" xmlns:xlink="http://www.w3.org/1999/xlink" xml:space="preserve" xmlns:serif="http://www.serif.com/" style="fill-rule:evenodd;clip-rule:evenodd;stroke-linejoin:round;stroke-miterlimit:2;">
    <g transform="matrix(1,0,0,1,-188201,-117834)">
        <g id="_01" serif:id="01">
        </g>
        <g id="_011" serif:id="01">
        </g>
        <g id="_012" serif:id="01">
        </g>
        <g id="_013" serif:id="01">
        </g>
        <g id="Artboard62" transform="matrix(0.960577,0,0,0.919311,7452.59,9569.36)">
            <rect x="188167" y="117767" width="1420.3" height="839.121" style="fill:none;"/>
            <g transform="matrix(4.55533,0,0,4.75981,186744,113229)">
                <g transform="matrix(0.0193615,0,0,0.0197254,43.2189,590.201)">
                    <g transform="matrix(1,0,0,1,-749.631,-9755.79)">
                        <g transform="matrix(4.16667,0,0,4.16667,15024.9,28726)">
                            <path d="M2162.81,1.113C2160.41,7.816 2156.31,21.215 2156.31,22.613C2156.22,23.613 2155.41,26.215 2154.31,28.414C2153.22,30.613 2152.41,33.516 2152.31,34.914C2152.31,36.316 2151.41,40.113 2150.31,43.414C2148.11,50.016 2144.81,62.516 2143.22,70.414C2142.61,73.113 2141.52,77.613 2140.81,80.414C2140.02,83.113 2138.81,88.816 2138.22,92.914C2137.61,97.016 2136.22,103.113 2135.31,106.414C2134.31,109.715 2133.22,115.113 2132.91,118.516C2132.61,121.816 2131.72,127.016 2130.91,130.016C2130.22,133.016 2129.02,140.613 2128.41,146.914C2127.72,153.215 2126.61,160.914 2125.81,163.914C2125.02,166.914 2123.91,176.113 2123.31,184.414C2122.72,192.613 2122.02,200.016 2121.72,200.816C2120.22,205.113 2118.31,248.715 2118.31,278.316C2118.31,312.613 2119.02,328.914 2121.81,354.414C2124.61,380.613 2125.22,385.414 2126.22,389.414C2126.81,391.613 2128.11,399.016 2129.31,405.914C2133.72,432.414 2134.22,435.113 2135.11,436.215C2135.72,436.914 2136.91,441.414 2137.81,446.316C2138.72,451.316 2139.81,456.016 2140.31,457.016C2140.81,457.914 2141.91,461.516 2142.72,465.016C2143.52,468.516 2144.81,473.516 2145.72,476.113C2146.61,478.816 2148.02,483.016 2148.91,485.613C2149.81,488.316 2151.22,492.914 2152.02,495.914C2152.81,498.914 2153.91,501.914 2154.41,502.516C2154.91,503.113 2156.22,506.215 2157.31,509.316C2158.41,512.414 2160.22,517.316 2161.22,520.316C2162.31,523.316 2163.81,526.816 2164.61,528.113C2165.41,529.316 2166.41,531.816 2166.81,533.613C2167.11,535.316 2168.11,537.316 2168.81,537.914C2169.61,538.613 2170.52,540.613 2170.91,542.414C2171.22,544.316 2172.61,547.215 2173.91,549.016C2175.22,550.816 2176.31,552.816 2176.31,553.516C2176.31,554.613 2181.91,566.113 2184.41,569.914C2184.91,570.715 2185.81,572.516 2186.41,573.914C2187.02,575.316 2188.81,578.613 2190.41,581.414C2192.02,584.113 2194.22,588.316 2195.31,590.516C2196.41,592.816 2198.02,595.215 2198.81,595.914C2199.61,596.613 2200.31,597.516 2200.31,598.016C2200.31,598.516 2202.31,601.816 2204.81,605.516C2207.31,609.113 2209.31,612.414 2209.31,612.914C2209.31,613.414 2210.31,615.016 2211.61,616.613C2212.81,618.113 2214.52,620.613 2215.22,622.113C2216.02,623.715 2217.02,624.914 2217.52,624.914C2218.02,624.914 2218.72,625.715 2219.11,626.613C2220.52,629.914 2226.61,638.914 2227.41,638.914C2227.91,638.914 2228.31,639.414 2228.31,640.016C2228.31,640.613 2229.52,642.613 2231.11,644.414C2232.61,646.215 2234.91,649.414 2236.31,651.414C2239.61,656.215 2248.61,667.816 2255.52,676.316C2256.52,677.516 2259.41,681.113 2261.91,684.414C2264.52,687.715 2268.91,692.914 2271.72,696.016C2274.52,699.016 2277.91,703.016 2279.31,704.816C2280.72,706.715 2283.81,710.316 2286.31,713.016C2288.81,715.613 2294.02,721.316 2298.02,725.613C2314.52,743.414 2335.72,764.316 2358.81,785.414C2363.02,789.215 2367.41,793.316 2368.61,794.414C2370.31,796.016 2380.72,804.914 2392.41,814.715C2403.61,824.215 2418.41,835.914 2419.22,835.914C2419.72,835.914 2420.81,836.715 2421.52,837.715C2422.22,838.816 2423.91,840.113 2425.11,840.816C2427.41,842.016 2430.02,844.113 2435.02,848.613C2436.31,849.914 2437.91,850.914 2438.61,850.914C2439.31,850.914 2440.41,851.816 2441.11,852.914C2441.81,854.016 2442.81,854.914 2443.41,854.914C2444.02,854.914 2445.91,856.113 2447.72,857.516C2455.02,863.414 2463.61,869.914 2464.31,869.914C2464.72,869.914 2466.81,871.215 2468.91,872.914C2471.11,874.516 2473.31,876.215 2473.81,876.613C2476.02,878.316 2489.81,887.516 2492.81,889.414C2494.72,890.516 2499.91,893.914 2504.52,897.016C2509.11,900.016 2514.11,903.414 2515.72,904.516C2521.02,908.016 2525.81,910.816 2529.02,912.316C2530.72,913.215 2532.41,914.316 2532.81,914.914C2533.11,915.516 2535.31,916.914 2537.52,918.215C2539.81,919.414 2543.72,921.613 2546.22,923.113C2548.72,924.613 2551.91,926.414 2553.31,927.113C2554.72,927.816 2556.72,929.215 2557.72,930.113C2558.81,931.113 2560.22,931.914 2560.91,931.914C2561.52,931.914 2563.11,932.816 2564.52,933.816C2565.81,934.914 2570.61,937.715 2575.11,940.113C2584.91,945.215 2587.61,946.816 2592.31,949.715C2594.22,950.914 2596.52,951.914 2597.41,951.914C2598.31,951.914 2599.81,952.816 2600.72,953.816C2601.72,954.914 2603.81,956.113 2605.41,956.414C2607.02,956.816 2608.52,957.414 2608.81,957.914C2609.11,958.414 2615.11,961.613 2622.11,964.914C2629.11,968.316 2635.52,971.516 2636.31,972.016C2637.11,972.516 2639.41,973.613 2641.31,974.414C2643.22,975.316 2645.52,976.414 2646.31,976.914C2647.11,977.516 2649.41,978.613 2651.31,979.414C2653.22,980.316 2656.61,981.816 2658.81,982.816C2663.11,984.715 2668.41,987.215 2677.31,991.316C2680.31,992.613 2684.02,994.113 2685.52,994.414C2687.02,994.816 2688.72,995.715 2689.41,996.516C2692.22,999.914 2697.31,996.316 2697.31,990.914C2697.31,989.516 2697.91,987.316 2698.61,985.914C2699.31,984.516 2700.52,981.113 2701.22,978.414C2701.91,975.613 2703.31,971.113 2704.31,968.414C2705.31,965.613 2706.61,960.516 2707.22,956.914C2707.81,953.316 2708.91,947.516 2709.72,943.914C2710.52,940.316 2711.72,933.316 2712.22,928.414C2712.81,923.414 2713.81,917.113 2714.52,914.414C2716.31,907.414 2716.22,826.516 2714.41,819.414C2713.81,816.613 2712.81,809.715 2712.31,803.914C2711.81,798.113 2710.72,789.816 2709.81,785.414C2709.02,781.016 2707.81,773.613 2707.22,768.914C2706.61,764.215 2705.22,758.215 2704.22,755.516C2703.22,752.816 2702.31,749.215 2702.31,747.613C2702.31,745.914 2701.22,740.414 2699.91,735.414C2698.61,730.516 2697.02,724.414 2696.52,721.914C2695.91,719.414 2694.81,715.414 2694.02,712.914C2693.22,710.414 2692.02,706.414 2691.31,703.914C2687.81,690.613 2686.31,685.816 2684.91,683.215C2684.11,681.613 2683.22,678.516 2682.81,676.414C2682.41,674.215 2681.31,670.613 2680.31,668.414C2678.61,664.516 2676.52,658.715 2673.61,649.914C2672.81,647.414 2671.31,643.613 2670.22,641.316C2669.22,639.016 2668.31,636.414 2668.31,635.414C2668.31,634.516 2667.52,632.516 2666.52,631.113C2665.52,629.613 2664.02,626.316 2663.31,623.715C2662.61,621.113 2661.52,618.414 2660.72,617.816C2660.02,617.316 2659.11,615.414 2658.72,613.715C2658.41,612.016 2657.02,608.613 2655.72,606.113C2654.41,603.613 2653.31,600.914 2653.31,600.016C2653.31,599.113 2652.41,597.316 2651.31,595.914C2650.22,594.516 2649.31,592.816 2649.31,592.113C2649.31,590.914 2639.52,570.613 2635.72,563.914C2635.02,562.516 2634.31,560.613 2634.31,559.715C2634.31,558.816 2633.72,557.414 2632.91,556.715C2632.22,555.914 2630.61,553.316 2629.41,550.914C2626.02,543.914 2624.31,540.516 2623.22,538.914C2622.72,538.113 2621.41,535.613 2620.22,533.414C2619.11,531.215 2617.11,527.613 2615.81,525.414C2614.41,523.215 2612.41,519.613 2611.22,517.414C2610.11,515.215 2607.91,511.414 2606.31,508.914C2604.61,506.414 2602.52,502.613 2601.41,500.414C2600.41,498.215 2598.81,495.816 2597.91,495.016C2597.02,494.316 2596.31,493.113 2596.31,492.316C2596.31,491.613 2595.22,489.816 2593.81,488.316C2592.41,486.816 2591.31,485.113 2591.31,484.414C2591.31,483.715 2590.61,482.516 2589.61,481.816C2588.72,481.016 2587.41,479.016 2586.61,477.414C2585.91,475.715 2584.41,473.316 2583.41,471.914C2580.91,468.613 2574.22,458.414 2572.31,455.113C2571.52,453.715 2570.11,451.816 2569.31,450.816C2568.52,449.914 2566.72,447.516 2565.31,445.516C2563.91,443.516 2561.72,440.316 2560.31,438.414C2558.91,436.516 2556.72,433.414 2555.31,431.414C2553.91,429.414 2550.81,425.215 2548.31,421.914C2545.81,418.715 2541.61,413.016 2538.81,409.414C2536.11,405.816 2532.91,401.715 2531.81,400.516C2530.72,399.215 2526.91,394.516 2523.41,390.016C2519.91,385.516 2516.61,381.914 2516.11,381.914C2515.72,381.914 2515.31,381.414 2515.31,380.816C2515.31,379.816 2508.11,371.215 2500.81,363.414C2499.72,362.215 2495.91,357.914 2492.31,353.914C2486.61,347.516 2442.31,302.816 2438.31,299.516C2437.52,298.816 2431.61,293.516 2425.22,287.816C2418.91,282.113 2412.22,276.316 2410.41,274.914C2407.61,272.715 2405.02,270.613 2399.11,265.516C2398.22,264.715 2396.41,263.516 2395.11,262.816C2392.72,261.613 2391.22,260.316 2385.61,254.914C2383.91,253.316 2382.22,251.914 2381.81,251.914C2380.41,251.914 2378.41,248.414 2378.31,246.113C2378.31,244.914 2378.81,243.914 2379.31,243.914C2379.91,243.914 2380.31,244.316 2380.31,244.914C2380.31,245.414 2380.91,245.914 2381.72,245.914C2383.72,245.914 2387.11,247.414 2391.81,250.414C2394.02,251.816 2397.61,253.816 2399.81,255.016C2403.61,256.914 2408.41,260.016 2412.81,263.414C2413.81,264.215 2415.11,264.914 2415.72,264.914C2416.22,264.914 2418.11,266.016 2419.91,267.414C2421.72,268.816 2423.81,269.914 2424.61,269.914C2425.41,269.914 2426.72,270.613 2427.41,271.516C2428.91,273.414 2441.02,281.613 2445.91,284.215C2447.81,285.113 2449.31,286.414 2449.31,286.914C2449.31,287.516 2450.31,288.414 2451.61,288.914C2452.81,289.516 2455.81,291.414 2458.31,293.316C2460.81,295.215 2465.31,298.516 2468.31,300.613C2471.31,302.715 2474.31,304.914 2474.81,305.516C2475.41,306.113 2476.72,307.215 2477.91,308.016C2479.11,308.816 2482.41,311.414 2485.31,313.914C2492.02,319.613 2495.22,322.316 2498.31,324.816C2506.31,331.316 2518.11,342.113 2537.41,360.516C2551.41,373.914 2575.41,399.715 2587.11,414.113C2587.72,414.816 2589.31,416.613 2590.52,418.113C2599.91,429.113 2601.81,431.414 2607.81,439.414C2610.61,443.016 2614.91,448.613 2617.61,451.816C2620.22,455.113 2622.31,458.016 2622.31,458.316C2622.31,458.715 2624.61,461.914 2627.31,465.414C2630.11,468.914 2632.31,472.113 2632.31,472.516C2632.31,472.816 2633.41,474.516 2634.81,476.316C2636.22,478.016 2638.02,480.316 2638.91,481.516C2639.91,482.715 2641.31,485.016 2642.22,486.613C2643.11,488.316 2646.52,493.715 2649.81,498.613C2653.11,503.613 2656.61,508.914 2657.52,510.516C2658.52,512.113 2659.81,514.316 2660.52,515.414C2661.22,516.516 2663.72,520.414 2666.02,524.113C2668.41,527.816 2670.31,531.316 2670.31,532.016C2670.31,532.613 2671.31,534.516 2672.52,536.215C2675.02,539.715 2677.11,543.215 2680.22,549.414C2681.41,551.613 2682.72,554.113 2683.22,554.914C2683.72,555.715 2685.81,559.816 2687.81,563.914C2689.81,568.016 2692.11,572.516 2692.81,573.914C2696.22,580.316 2704.31,597.516 2704.31,598.316C2704.31,599.215 2706.61,604.215 2711.91,615.414C2713.22,618.215 2714.31,621.016 2714.31,621.613C2714.31,622.316 2715.22,624.316 2716.22,626.113C2717.22,627.914 2718.41,631.016 2718.81,632.914C2719.22,634.816 2720.41,637.816 2721.41,639.516C2722.41,641.215 2723.31,643.613 2723.31,644.715C2723.31,645.816 2724.41,649.113 2725.81,652.113C2727.22,655.016 2728.31,658.316 2728.31,659.414C2728.31,660.516 2729.22,663.215 2730.31,665.414C2731.41,667.613 2732.22,669.914 2732.31,670.613C2732.31,671.316 2733.72,676.016 2735.31,681.113C2737.02,686.215 2738.31,691.316 2738.31,692.516C2738.31,693.715 2739.22,696.613 2740.31,699.016C2741.41,701.414 2742.31,704.816 2742.31,706.613C2742.31,708.414 2743.22,712.215 2744.22,715.113C2745.31,718.016 2746.61,724.215 2747.31,728.914C2747.91,733.613 2749.11,739.613 2749.91,742.414C2750.61,745.113 2751.72,751.414 2752.31,756.414C2752.91,761.316 2754.02,769.715 2754.81,774.914C2756.91,788.816 2757.81,827.516 2756.41,844.516C2755.72,852.215 2755.52,859.316 2755.91,860.316C2756.52,862.016 2756.72,861.914 2757.91,859.816C2758.61,858.516 2759.52,854.914 2759.81,851.914C2760.22,848.914 2761.11,844.414 2761.81,841.914C2762.61,839.414 2764.11,832.016 2765.22,825.414C2766.41,818.816 2767.72,811.414 2768.22,808.914C2768.81,806.414 2769.22,801.914 2769.31,798.914C2769.31,795.914 2770.02,790.715 2770.81,787.414C2773.52,776.613 2774.61,747.715 2773.91,703.414C2773.52,671.816 2773.02,659.516 2771.81,653.914C2771.02,649.816 2769.91,641.316 2769.31,635.113C2768.81,628.914 2768.22,623.516 2767.91,623.113C2767.31,622.113 2764.61,605.715 2763.72,597.914C2763.31,594.316 2762.41,590.016 2761.81,588.414C2761.11,586.715 2760.22,582.914 2759.81,579.914C2759.41,576.914 2758.02,570.613 2756.72,565.914C2755.41,561.316 2754.31,556.113 2754.31,554.414C2754.31,552.816 2753.41,549.414 2752.31,547.016C2751.22,544.613 2750.31,541.715 2750.31,540.613C2750.31,537.613 2743.31,513.914 2737.72,497.613C2736.41,493.816 2735.31,490.113 2735.31,489.215C2735.31,488.316 2734.41,485.715 2733.41,483.516C2732.31,481.215 2731.02,477.816 2730.52,475.914C2729.91,474.016 2728.02,468.613 2726.31,463.914C2724.61,459.215 2722.31,453.016 2721.22,450.016C2720.22,447.016 2718.91,444.113 2718.41,443.516C2718.02,442.914 2717.02,440.613 2716.41,438.414C2715.72,436.215 2714.41,432.613 2713.41,430.414C2712.41,428.215 2710.31,423.516 2708.81,419.914C2704.81,410.215 2702.91,406.016 2700.02,399.914C2698.61,396.914 2697.11,393.316 2696.72,391.914C2696.31,390.516 2695.22,388.316 2694.22,387.016C2693.11,385.715 2692.31,384.215 2692.31,383.613C2692.31,382.613 2688.31,373.715 2685.72,368.914C2685.02,367.516 2683.81,365.316 2683.22,363.914C2682.61,362.516 2681.72,360.715 2681.22,359.914C2680.72,359.113 2679.61,356.816 2678.72,354.914C2677.81,353.016 2676.72,350.715 2676.22,349.914C2675.72,349.113 2674.41,346.516 2673.41,344.316C2672.31,342.016 2671.02,339.816 2670.52,339.516C2669.91,339.215 2668.91,337.215 2668.31,335.113C2667.61,333.113 2666.61,330.914 2665.91,330.414C2665.31,329.816 2664.02,327.816 2663.02,325.914C2659.61,319.316 2657.72,316.316 2655.52,313.414C2654.31,311.914 2653.31,310.215 2653.31,309.613C2653.31,309.016 2652.61,307.715 2651.61,306.715C2650.72,305.715 2649.52,304.113 2648.91,303.113C2648.31,302.113 2646.91,299.816 2645.81,298.016C2644.72,296.113 2642.81,293.516 2641.61,292.113C2640.31,290.715 2639.31,289.316 2639.31,288.914C2639.31,288.516 2638.52,287.215 2637.61,286.016C2636.61,284.914 2634.52,282.113 2632.81,279.914C2631.22,277.715 2626.52,271.715 2622.52,266.613C2618.52,261.613 2614.22,256.113 2613.02,254.516C2610.61,251.414 2610.02,250.715 2596.31,235.914C2581.31,219.613 2560.52,199.316 2549.81,190.414C2541.11,183.113 2539.31,181.715 2536.31,178.914C2534.81,177.516 2532.11,175.316 2530.31,173.914C2528.52,172.516 2526.11,170.613 2524.91,169.613C2523.81,168.715 2519.22,165.215 2514.81,161.914C2510.41,158.715 2506.11,155.414 2505.31,154.613C2504.52,153.914 2502.52,152.414 2500.91,151.414C2499.31,150.316 2496.81,148.516 2495.31,147.414C2486.11,140.715 2471.22,130.715 2466.11,127.914C2464.02,126.816 2462.31,125.414 2462.31,124.914C2462.31,124.414 2461.41,123.715 2460.31,123.414C2459.22,123.016 2455.22,120.816 2451.52,118.316C2447.81,115.914 2444.31,113.914 2443.72,113.914C2443.11,113.914 2441.91,113.215 2441.22,112.316C2440.41,111.414 2438.02,109.816 2435.81,108.715C2432.11,106.914 2429.81,105.715 2419.81,99.914C2412.52,95.613 2405.91,92.016 2397.31,87.715C2392.61,85.414 2388.22,82.914 2387.52,82.215C2386.81,81.516 2385.02,80.613 2383.52,80.316C2382.02,79.914 2379.72,78.816 2378.31,77.914C2376.91,76.914 2374.72,75.816 2373.31,75.414C2371.91,75.016 2369.72,73.816 2368.41,72.816C2367.11,71.715 2365.52,70.914 2364.91,70.914C2364.31,70.914 2361.72,69.816 2359.11,68.414C2356.52,67.016 2353.91,65.914 2353.31,65.914C2352.61,65.914 2350.91,65.113 2349.52,64.016C2348.02,63.016 2345.72,61.914 2344.31,61.516C2341.81,60.816 2333.41,57.113 2327.81,54.215C2326.22,53.414 2320.31,51.016 2314.81,48.914C2309.31,46.816 2303.52,44.414 2301.81,43.516C2300.22,42.613 2298.11,41.914 2297.31,41.914C2296.52,41.914 2294.61,41.316 2293.22,40.516C2291.72,39.816 2288.11,38.414 2285.22,37.414C2282.22,36.516 2278.81,35.113 2277.61,34.316C2276.41,33.613 2273.72,32.516 2271.61,32.016C2267.02,30.914 2254.02,26.316 2249.61,24.316C2247.91,23.516 2246.02,22.914 2245.31,22.914C2244.02,22.914 2226.91,17.516 2221.31,15.316C2219.41,14.516 2215.61,13.516 2212.81,12.914C2210.11,12.316 2205.41,10.914 2202.52,9.914C2199.61,8.816 2196.11,7.914 2194.72,7.914C2193.31,7.914 2190.52,7.016 2188.31,5.914C2186.11,4.816 2183.11,3.914 2181.61,3.914C2180.11,3.914 2175.61,3.016 2171.81,1.914C2163.61,-0.484 2163.41,-0.484 2162.81,1.113Z" style="fill:white;fill-rule:nonzero;stroke:white;stroke-width:1px;"/>
                        </g>
                        <g transform="matrix(4.16667,0,0,4.16667,15024.9,28726)">
                            <path d="M2255.31,961.414C2254.52,961.613 2245.31,962.316 2234.81,962.914C2224.41,963.613 2213.91,964.816 2211.52,965.613C2209.22,966.414 2203.81,967.414 2199.52,967.914C2195.31,968.414 2189.91,969.516 2187.61,970.316C2185.31,971.113 2181.31,972.113 2178.61,972.414C2176.02,972.816 2171.81,973.914 2169.31,974.914C2166.81,975.914 2162.61,977.516 2159.81,978.414C2157.11,979.316 2152.22,980.914 2149.02,982.016C2145.81,983.016 2142.22,984.613 2141.02,985.414C2139.81,986.215 2138.22,986.914 2137.41,986.914C2136.02,986.914 2124.52,992.016 2121.31,994.016C2120.52,994.516 2118.02,995.816 2115.81,996.914C2113.61,998.016 2109.72,1000.22 2107.11,1001.72C2104.52,1003.22 2100.91,1005.22 2099.11,1006.32C2097.31,1007.32 2095.41,1008.82 2095.02,1009.52C2094.61,1010.32 2093.61,1010.91 2092.81,1010.91C2092.02,1010.91 2089.91,1012.11 2088.11,1013.61C2084.72,1016.52 2081.41,1018.91 2073.72,1024.02C2068.72,1027.41 2068.11,1028.91 2071.91,1028.91C2074.52,1028.91 2083.61,1026.41 2086.41,1024.91C2087.31,1024.41 2090.72,1023.72 2093.91,1023.41C2097.22,1023.02 2101.22,1022.11 2102.81,1021.22C2104.52,1020.41 2109.61,1019.41 2114.31,1018.91C2128.72,1017.32 2137.72,1016.11 2142.81,1014.82C2150.72,1013.02 2230.22,1013.32 2242.31,1015.22C2247.52,1016.02 2257.02,1017.22 2263.31,1017.91C2269.61,1018.52 2278.02,1019.82 2281.81,1020.61C2285.72,1021.41 2292.41,1022.72 2296.81,1023.52C2315.61,1026.61 2328.11,1029.21 2332.52,1031.02C2335.11,1032.02 2338.11,1032.91 2339.22,1032.91C2340.31,1032.91 2345.22,1034.02 2349.91,1035.41C2354.61,1036.82 2359.72,1037.91 2361.02,1037.91C2362.41,1037.91 2365.02,1038.82 2366.72,1039.82C2368.41,1040.82 2371.61,1042.02 2373.91,1042.41C2376.11,1042.71 2383.11,1044.82 2389.41,1047.02C2395.72,1049.21 2403.11,1051.61 2405.81,1052.32C2408.61,1053.02 2412.22,1054.41 2413.81,1055.32C2415.52,1056.21 2417.41,1056.91 2418.02,1056.91C2419.31,1056.91 2428.52,1060.32 2438.41,1064.52C2441.52,1065.82 2444.81,1066.91 2445.81,1066.91C2446.72,1066.91 2448.61,1067.82 2450.02,1068.91C2451.41,1070.02 2453.41,1070.91 2454.52,1070.91C2456.41,1070.91 2465.81,1074.91 2473.52,1079.02C2475.52,1080.02 2477.91,1080.91 2478.81,1080.91C2479.72,1080.91 2481.72,1081.71 2483.11,1082.82C2484.61,1083.82 2486.91,1084.91 2488.31,1085.32C2489.72,1085.71 2493.11,1087.11 2495.81,1088.41C2498.61,1089.71 2508.02,1094.32 2516.81,1098.41C2525.61,1102.61 2533.52,1106.52 2534.31,1107.02C2535.11,1107.52 2537.61,1108.82 2539.81,1109.91C2542.02,1110.91 2545.22,1112.61 2546.81,1113.52C2548.52,1114.41 2550.61,1115.61 2551.61,1116.11C2552.52,1116.52 2554.11,1117.32 2555.11,1117.91C2556.02,1118.41 2557.91,1119.41 2559.31,1120.02C2560.72,1120.61 2564.11,1122.32 2566.81,1123.91C2569.61,1125.52 2573.41,1127.61 2575.31,1128.61C2577.22,1129.52 2579.52,1130.91 2580.31,1131.52C2581.11,1132.21 2584.91,1134.32 2588.72,1136.32C2592.52,1138.32 2596.72,1140.82 2598.22,1141.82C2599.61,1142.82 2601.52,1143.91 2602.31,1144.32C2603.11,1144.71 2605.91,1146.21 2608.41,1147.71C2610.91,1149.21 2614.81,1151.41 2617.11,1152.61C2619.31,1153.91 2621.52,1155.32 2621.81,1155.91C2622.22,1156.52 2623.91,1157.61 2625.61,1158.41C2627.41,1159.21 2630.81,1161.21 2633.31,1162.91C2635.81,1164.52 2638.81,1166.32 2640.02,1166.82C2641.11,1167.32 2642.41,1168.32 2642.81,1168.91C2643.11,1169.41 2645.31,1170.91 2647.61,1172.02C2649.91,1173.21 2652.02,1174.52 2652.31,1174.82C2653.31,1176.21 2662.72,1181.91 2663.91,1181.91C2664.61,1181.91 2665.31,1182.32 2665.52,1182.82C2665.72,1183.32 2670.31,1186.71 2675.81,1190.32C2688.81,1198.82 2692.11,1201.11 2694.22,1202.91C2695.11,1203.71 2700.41,1207.41 2706.02,1211.11C2711.52,1214.82 2717.91,1219.32 2720.11,1221.11C2726.61,1226.41 2728.72,1227.91 2736.91,1233.32C2738.52,1234.41 2740.72,1236.11 2741.81,1237.11C2742.91,1238.11 2745.61,1240.32 2747.81,1241.91C2755.11,1247.32 2761.52,1252.21 2766.91,1256.71C2768.02,1257.61 2770.22,1259.32 2771.81,1260.41C2773.31,1261.52 2777.81,1265.02 2781.72,1268.21C2785.61,1271.32 2789.81,1274.71 2791.11,1275.71C2792.41,1276.61 2794.31,1278.21 2795.52,1279.32C2796.61,1280.32 2803.22,1285.91 2810.22,1291.71C2817.11,1297.52 2823.81,1303.21 2825.02,1304.32C2826.22,1305.52 2828.11,1307.11 2829.11,1307.91C2832.81,1310.91 2845.91,1322.41 2847.81,1324.41C2849.02,1325.52 2852.31,1328.41 2855.22,1330.91C2858.11,1333.41 2862.81,1337.61 2865.72,1340.41C2868.52,1343.11 2876.91,1351.11 2884.31,1358.11C2902.11,1374.82 2937.91,1410.52 2952.31,1425.91C2958.61,1432.61 2965.81,1440.32 2968.31,1442.91C2970.81,1445.52 2975.72,1451.02 2979.31,1455.02C2982.91,1459.02 2988.52,1465.32 2991.81,1468.91C2995.11,1472.52 2999.81,1477.91 3002.31,1480.82C3007.61,1487.11 3010.72,1490.71 3013.11,1493.41C3018.31,1499.21 3042.11,1528.11 3052.22,1540.91C3053.31,1542.32 3055.11,1544.52 3056.31,1545.91C3057.41,1547.32 3060.02,1550.72 3062.11,1553.52C3064.22,1556.22 3066.41,1559.22 3067.11,1560.02C3069.31,1562.72 3073.02,1567.41 3078.61,1574.91C3081.72,1579.02 3084.91,1583.32 3085.72,1584.41C3091.11,1591.52 3099.02,1602.11 3100.31,1604.02C3101.11,1605.22 3102.72,1607.41 3103.91,1608.82C3105.11,1610.22 3106.61,1612.41 3107.22,1613.72C3107.91,1615.02 3109.11,1616.82 3109.91,1617.72C3113.41,1621.52 3122.31,1634.52 3122.31,1635.61C3122.31,1636.32 3123.02,1637.22 3123.81,1637.72C3124.72,1638.11 3126.11,1639.91 3127.11,1641.61C3128.02,1643.32 3131.11,1648.02 3133.81,1651.91C3136.61,1655.91 3139.72,1660.61 3140.81,1662.41C3142.72,1665.52 3145.91,1670.32 3154.11,1682.52C3156.11,1685.61 3158.52,1689.22 3159.31,1690.61C3160.11,1692.02 3163.22,1697.02 3166.11,1701.82C3169.02,1706.52 3172.31,1712.32 3173.41,1714.61C3174.52,1717.02 3175.81,1718.91 3176.22,1718.91C3176.61,1718.91 3177.72,1720.72 3178.61,1722.91C3179.41,1725.11 3180.61,1726.91 3181.22,1726.91C3182.91,1726.91 3182.52,1722.11 3180.31,1718.11C3177.72,1713.22 3164.41,1685.02 3161.41,1677.91C3160.81,1676.52 3159.91,1674.72 3159.41,1673.91C3158.91,1673.11 3154.61,1664.41 3149.81,1654.72C3145.11,1644.91 3140.81,1636.72 3140.31,1636.41C3139.81,1636.11 3139.22,1634.61 3138.81,1633.02C3138.52,1631.41 3137.31,1629.32 3136.22,1628.32C3135.22,1627.41 3134.31,1626.22 3134.31,1625.82C3134.31,1624.52 3132.52,1620.72 3129.31,1615.41C3127.72,1612.61 3125.41,1608.61 3124.31,1606.41C3123.11,1604.22 3120.91,1600.11 3119.31,1597.41C3117.81,1594.61 3115.52,1590.61 3114.41,1588.41C3113.22,1586.22 3111.11,1582.61 3109.81,1580.41C3108.41,1578.22 3106.41,1574.52 3105.31,1572.32C3104.22,1570.02 3102.61,1567.61 3101.81,1566.91C3101.02,1566.22 3100.31,1565.11 3100.31,1564.41C3100.31,1563.61 3099.31,1561.82 3098.02,1560.22C3096.81,1558.72 3095.22,1556.32 3094.52,1554.91C3093.81,1553.52 3092.11,1550.61 3090.81,1548.41C3089.52,1546.22 3087.52,1542.72 3086.41,1540.72C3085.22,1538.72 3083.91,1536.72 3083.31,1536.41C3082.72,1536.02 3081.61,1534.32 3080.81,1532.61C3080.02,1530.82 3077.81,1527.41 3075.81,1524.91C3073.91,1522.41 3071.61,1519.02 3070.81,1517.41C3068.41,1512.82 3064.61,1506.71 3063.61,1506.02C3063.22,1505.71 3062.22,1504.32 3061.52,1502.91C3060.91,1501.52 3058.72,1498.41 3056.81,1495.91C3054.91,1493.41 3052.72,1490.02 3051.81,1488.41C3051.02,1486.71 3048.91,1483.61 3047.31,1481.41C3045.61,1479.21 3042.61,1474.91 3040.61,1471.91C3038.61,1468.91 3036.41,1465.91 3035.81,1465.41C3035.11,1464.82 3033.91,1462.91 3032.91,1461.11C3032.02,1459.41 3030.91,1457.91 3030.41,1457.91C3029.91,1457.91 3029.02,1456.52 3028.31,1454.91C3027.61,1453.21 3026.72,1451.91 3026.31,1451.91C3025.81,1451.91 3024.61,1450.41 3023.41,1448.61C3020.31,1443.71 3009.41,1429.02 3001.81,1419.41C3001.02,1418.32 2998.61,1415.11 2996.52,1412.32C2991.81,1406.11 2990.41,1404.32 2987.61,1401.41C2986.31,1400.21 2985.31,1398.91 2985.31,1398.52C2985.31,1397.82 2956.72,1363.02 2954.81,1361.41C2953.61,1360.32 2947.22,1352.82 2943.81,1348.32C2942.72,1346.91 2939.72,1343.52 2937.11,1340.82C2934.41,1338.02 2932.31,1335.61 2932.31,1335.41C2932.31,1335.21 2931.11,1333.82 2929.61,1332.21C2928.02,1330.61 2925.11,1327.32 2922.91,1324.91C2908.22,1307.91 2862.02,1261.02 2836.41,1236.91C2817.02,1218.71 2816.61,1218.32 2810.31,1212.91C2807.41,1210.41 2803.91,1207.32 2802.41,1205.91C2800.91,1204.52 2794.91,1199.41 2789.02,1194.41C2783.11,1189.52 2778.31,1185.11 2778.31,1184.71C2778.31,1184.32 2777.81,1183.91 2777.22,1183.91C2776.52,1183.91 2775.02,1182.91 2773.81,1181.61C2772.52,1180.41 2770.41,1178.61 2769.11,1177.71C2767.91,1176.71 2763.41,1173.21 2759.31,1169.91C2755.22,1166.61 2750.81,1163.11 2749.52,1162.11C2748.22,1161.21 2745.91,1159.32 2744.31,1157.91C2742.81,1156.52 2739.81,1154.32 2737.81,1152.91C2735.81,1151.52 2732.81,1149.32 2731.22,1147.91C2724.52,1142.11 2722.91,1140.91 2722.02,1140.91C2721.52,1140.91 2719.61,1139.71 2717.72,1138.11C2715.91,1136.61 2713.41,1134.61 2712.11,1133.71C2710.81,1132.82 2708.52,1130.91 2706.81,1129.71C2705.22,1128.41 2702.72,1126.61 2701.31,1125.61C2692.91,1119.91 2684.72,1114.11 2682.31,1112.41C2680.81,1111.32 2678.31,1109.52 2676.72,1108.52C2675.11,1107.41 2671.41,1104.91 2668.41,1103.02C2665.52,1101.02 2661.61,1098.52 2659.81,1097.41C2657.91,1096.32 2654.11,1093.82 2651.11,1091.82C2640.02,1084.41 2627.41,1076.71 2622.41,1074.41C2620.61,1073.52 2618.22,1071.91 2617.02,1070.82C2615.91,1069.82 2614.41,1068.91 2613.72,1068.91C2613.11,1068.91 2611.52,1068.11 2610.22,1067.02C2608.91,1066.02 2604.72,1063.52 2600.81,1061.41C2597.02,1059.41 2593.41,1057.41 2592.81,1056.91C2592.31,1056.52 2588.11,1054.21 2583.52,1051.91C2579.02,1049.61 2575.11,1047.32 2574.81,1046.91C2574.52,1046.41 2572.61,1045.52 2570.52,1044.82C2568.52,1044.21 2566.61,1043.32 2566.31,1043.02C2566.02,1042.61 2560.02,1039.52 2552.81,1036.02C2545.72,1032.52 2539.11,1029.32 2538.31,1028.82C2537.52,1028.32 2535.72,1027.41 2534.31,1026.82C2532.91,1026.21 2529.61,1024.71 2526.81,1023.41C2524.11,1022.11 2518.41,1019.72 2514.31,1017.91C2510.22,1016.22 2505.22,1013.91 2503.22,1012.82C2501.22,1011.82 2498.91,1010.91 2498.11,1010.91C2497.41,1010.91 2495.22,1010.11 2493.31,1009.02C2491.41,1008.02 2488.22,1006.82 2486.31,1006.41C2484.41,1006.02 2481.72,1004.91 2480.31,1003.91C2478.91,1003.02 2476.02,1001.72 2473.81,1001.11C2467.02,999.316 2457.02,995.715 2453.22,993.715C2451.22,992.715 2448.61,991.914 2447.41,991.914C2446.22,991.914 2443.91,991.215 2442.31,990.414C2440.72,989.613 2436.31,988.215 2432.61,987.316C2428.91,986.516 2425.31,985.316 2424.61,984.715C2423.91,984.215 2420.81,983.215 2417.61,982.516C2408.61,980.516 2394.11,976.914 2390.81,975.715C2389.22,975.113 2383.52,973.816 2378.31,972.914C2373.11,971.914 2365.72,970.414 2361.81,969.516C2358.02,968.613 2353.11,967.914 2351.02,967.914C2348.91,967.914 2343.72,967.016 2339.52,966.016C2335.22,964.914 2324.22,963.516 2314.81,962.914C2298.11,961.715 2258.22,960.715 2255.31,961.414Z" style="fill:white;fill-rule:nonzero;stroke:white;stroke-width:1px;"/>
                        </g>
                        <g transform="matrix(4.16667,0,0,4.16667,15024.9,28726)">
                            <path d="M264.016,1091.61C256.414,1099.52 250.016,1106.41 242.715,1114.52C231.016,1127.32 229.914,1128.52 221.414,1137.91C217.215,1142.52 211.312,1148.91 208.312,1152.02C205.312,1155.11 199.914,1160.91 196.312,1164.91C192.715,1168.91 188.715,1173.41 187.312,1174.91C179.113,1184.02 168.516,1195.52 166.516,1197.41C163.414,1200.32 163.914,1203.91 167.613,1205.71C169.113,1206.41 170.312,1207.41 170.312,1207.91C170.312,1208.41 171.113,1209.02 172.113,1209.32C173.113,1209.71 174.812,1210.71 175.914,1211.71C176.914,1212.61 180.016,1215.02 182.613,1216.91C185.312,1218.82 188.516,1221.32 189.812,1222.52C191.113,1223.61 193.812,1225.41 195.715,1226.41C199.215,1228.32 199.312,1228.32 201.215,1226.41C202.312,1225.32 204.414,1223.52 205.914,1222.41C208.812,1220.21 212.414,1217.21 216.414,1213.71C217.914,1212.41 220.613,1210.21 222.414,1208.71C224.312,1207.21 237.414,1196.41 251.613,1184.71C265.812,1173.02 278.414,1162.91 279.613,1162.21C280.715,1161.61 282.016,1160.32 282.516,1159.52C283.016,1158.61 284.016,1157.91 284.613,1157.91C285.312,1157.91 287.016,1156.71 288.516,1155.11C291.312,1152.21 292.215,1151.41 299.812,1145.41C306.516,1140.21 308.016,1138.82 310.516,1136.11C311.715,1134.91 313.113,1133.91 313.516,1133.91C315.414,1133.91 322.113,1127.61 321.715,1126.41C321.414,1125.71 317.715,1122.82 313.516,1120.02C309.312,1117.21 304.914,1114.32 303.812,1113.61C295.914,1108.21 289.715,1104.21 287.516,1103.02C286.016,1102.21 284.215,1101.02 283.516,1100.21C282.715,1099.52 281.215,1098.41 280.016,1097.71C278.812,1097.11 275.516,1094.82 272.613,1092.71C269.715,1090.61 267.215,1088.91 267.016,1088.91C266.812,1088.91 265.414,1090.11 264.016,1091.61Z" style="fill:white;fill-rule:nonzero;stroke:white;stroke-width:1px;"/>
                        </g>
                        <g transform="matrix(4.16667,0,0,4.16667,15024.9,28726)">
                            <path d="M1830.81,1092.21C1828.72,1094.52 1820.11,1103.82 1808.11,1116.91C1794.02,1132.32 1786.72,1140.21 1782.81,1144.11C1780.61,1146.32 1777.61,1149.82 1776.02,1151.82C1774.41,1153.82 1769.72,1159.02 1765.52,1163.52C1750.31,1179.52 1744.31,1186.02 1744.31,1186.41C1744.31,1186.61 1741.41,1189.91 1737.81,1193.61C1734.22,1197.32 1731.31,1201.11 1731.31,1202.11C1731.31,1203.02 1732.41,1204.41 1733.72,1205.11C1735.02,1205.82 1738.91,1208.52 1742.41,1211.11C1745.91,1213.82 1749.91,1216.71 1751.22,1217.61C1753.52,1219.32 1759.91,1224.41 1763.11,1227.02C1765.22,1228.82 1767.31,1227.41 1787.11,1211.02C1797.11,1202.71 1805.72,1195.91 1806.02,1195.91C1806.41,1195.91 1807.81,1194.91 1809.11,1193.61C1814.02,1188.91 1816.02,1187.21 1820.81,1183.41C1823.61,1181.21 1826.02,1179.21 1826.31,1178.91C1826.61,1178.61 1828.41,1177.21 1830.41,1175.71C1834.31,1172.82 1858.72,1152.91 1861.31,1150.52C1862.11,1149.82 1867.31,1145.52 1872.81,1141.02C1878.31,1136.52 1883.52,1132.32 1884.31,1131.52C1885.11,1130.82 1886.91,1129.61 1888.22,1128.91L1890.52,1127.71L1887.72,1124.82C1886.22,1123.21 1884.41,1121.91 1883.81,1121.91C1883.11,1121.91 1881.52,1121.02 1880.22,1119.82C1878.91,1118.71 1874.91,1115.91 1871.41,1113.61C1867.91,1111.32 1863.91,1108.61 1862.41,1107.71C1861.02,1106.71 1859.11,1105.52 1858.31,1104.91C1857.52,1104.32 1855.61,1103.11 1854.22,1102.11C1852.72,1101.21 1848.02,1098.02 1843.72,1095.21C1839.31,1092.32 1835.11,1089.91 1834.31,1089.91C1833.52,1089.91 1831.91,1090.91 1830.81,1092.21Z" style="fill:white;fill-rule:nonzero;stroke:white;stroke-width:1px;"/>
                        </g>
                        <g transform="matrix(4.16667,0,0,4.16667,15024.9,28726)">
                            <path d="M1.215,1280.71C-0.285,1281.02 -0.285,1295.71 0.613,1604.61C0.914,1713.02 1.414,1727.22 4.613,1733.61C5.414,1735.22 6.613,1739.32 7.215,1742.82C7.914,1746.32 9.113,1750.22 9.812,1751.32C10.516,1752.52 11.414,1755.02 11.812,1756.91C12.414,1760.32 21.113,1778.61 25.613,1786.02C28.016,1789.82 36.812,1802.22 39.016,1804.82C46.312,1813.41 50.812,1818.22 56.312,1823.52C59.914,1826.91 63.715,1830.72 64.914,1831.82C66.113,1833.02 67.516,1833.91 68.215,1833.91C68.812,1833.91 69.613,1834.61 70.016,1835.41C70.312,1836.32 72.016,1837.72 73.715,1838.61C75.414,1839.41 77.516,1840.91 78.516,1841.82C79.414,1842.72 82.414,1844.72 85.215,1846.41C88.113,1848.02 91.613,1850.41 93.113,1851.61C94.613,1852.91 96.613,1853.91 97.516,1853.91C98.414,1853.91 99.414,1854.32 99.715,1854.82C100.312,1855.82 110.516,1860.82 120.812,1865.11C134.715,1871.02 151.516,1876.32 161.312,1877.91C164.914,1878.41 170.312,1879.61 173.312,1880.52C177.914,1881.91 183.914,1882.22 208.812,1882.22C236.113,1882.22 239.516,1882.02 246.312,1880.11C250.414,1879.02 256.015,1877.82 258.715,1877.41C261.515,1877.02 265.715,1875.91 268.215,1874.91C270.715,1874.02 274.914,1872.91 277.516,1872.52C280.016,1872.11 282.613,1871.22 283.312,1870.52C283.914,1869.72 286.016,1868.82 288.016,1868.41C290.113,1868.02 293.715,1866.61 296.215,1865.32C298.715,1864.02 301.516,1862.91 302.414,1862.91C303.312,1862.91 305.113,1862.11 306.414,1861.02C307.715,1860.02 309.914,1858.82 311.312,1858.41C312.715,1858.02 314.914,1856.82 316.215,1855.82C317.516,1854.72 319.016,1853.91 319.613,1853.91C320.215,1853.91 322.113,1852.82 323.914,1851.41C325.715,1850.02 327.414,1848.91 327.613,1848.91C328.215,1848.91 337.215,1842.91 341.113,1839.91C342.613,1838.82 344.812,1837.11 346.113,1836.11C355.812,1828.91 373.016,1811.52 381.016,1800.72C382.516,1798.61 385.016,1795.32 386.613,1793.32C388.113,1791.22 389.312,1789.02 389.312,1788.22C389.312,1787.52 389.812,1786.91 390.414,1786.91C390.914,1786.91 392.113,1785.22 393.016,1783.22C393.812,1781.11 395.414,1778.41 396.414,1777.02C397.414,1775.72 398.312,1774.02 398.312,1773.22C398.312,1772.41 399.113,1770.52 400.215,1769.11C401.215,1767.61 402.312,1765.11 402.715,1763.41C403.113,1761.82 404.312,1758.61 405.312,1756.41C406.312,1754.22 407.414,1751.02 407.812,1749.41C408.215,1747.72 409.113,1744.82 409.914,1742.91C410.613,1741.02 412.215,1734.22 413.312,1727.91C414.414,1721.61 415.812,1714.41 416.414,1711.91C417.312,1708.52 417.812,1653.82 418.215,1494.91C418.516,1378.02 418.516,1282.02 418.113,1281.52C417.613,1280.91 367.312,1280.32 357.613,1280.82C356.613,1280.91 356.312,1325.71 356.016,1484.11C355.715,1683.41 355.613,1687.72 353.613,1703.41C352.414,1712.22 351.016,1720.72 350.414,1722.32C349.812,1723.82 348.715,1727.91 347.914,1731.32C346.016,1739.61 342.812,1746.82 334.312,1761.72C332.312,1765.11 330.516,1767.32 320.914,1777.91C317.414,1781.72 305.016,1792.72 301.812,1794.72C299.113,1796.41 294.113,1799.61 292.312,1800.91C291.516,1801.52 289.016,1802.91 286.812,1804.02C272.914,1811.32 269.715,1812.91 268.516,1812.91C267.812,1812.91 265.812,1813.61 264.215,1814.52C255.113,1819.22 224.613,1824.91 208.715,1824.91C201.914,1824.91 187.414,1823.41 179.312,1821.91C171.016,1820.41 155.414,1816.02 153.113,1814.61C151.812,1813.82 149.215,1812.82 147.215,1812.52C145.113,1812.11 143.016,1811.22 142.312,1810.41C141.715,1809.72 139.914,1808.82 138.414,1808.41C136.812,1808.11 134.715,1807.02 133.613,1806.02C132.613,1805.02 130.113,1803.61 128.113,1803.02C126.113,1802.32 124.215,1801.22 123.914,1800.41C123.613,1799.61 122.715,1798.91 122.016,1798.91C120.715,1798.91 119.016,1797.82 110.516,1791.22C107.414,1788.82 98.312,1780.72 96.914,1779.11C96.312,1778.41 94.312,1776.22 92.414,1774.11C83.516,1764.41 71.312,1743.72 71.312,1738.41C71.312,1737.32 70.613,1735.41 69.812,1734.32C69.016,1733.11 67.516,1727.32 66.414,1721.32C65.311,1715.32 63.914,1708.41 63.215,1705.91C62.312,1702.41 61.914,1653.91 61.613,1491.91C61.414,1376.71 61.113,1282.02 61.016,1281.61C60.812,1280.91 4.613,1280.02 1.215,1280.71Z" style="fill:white;fill-rule:nonzero;stroke:white;stroke-width:1px;"/>
                        </g>
                        <g transform="matrix(4.16667,0,0,4.16667,15024.9,28726)">
                            <path d="M578.715,1281.41C578.516,1281.91 578.414,1415.11 578.516,1577.41L578.812,1872.41L641.812,1872.41L642.113,1744.61L642.312,1616.82L650.812,1608.32C655.414,1603.72 660.016,1599.91 660.812,1599.91C661.715,1599.91 663.812,1601.61 665.613,1603.61C667.414,1605.72 671.312,1610.11 674.312,1613.52C677.312,1616.82 682.715,1622.82 686.312,1626.91C689.914,1630.91 693.914,1635.52 695.312,1637.02C696.715,1638.52 700.113,1642.41 702.812,1645.52C705.613,1648.72 709.812,1653.32 712.215,1655.82C714.613,1658.32 717.113,1661.22 717.812,1662.11C719.113,1664.11 729.414,1675.61 735.812,1682.32C738.016,1684.61 743.715,1691.02 748.516,1696.52C753.312,1701.91 759.215,1708.61 761.715,1711.41C764.215,1714.11 768.215,1718.61 770.516,1721.22C772.914,1723.91 775.914,1727.32 777.312,1728.82C778.715,1730.32 783.016,1735.11 786.812,1739.41C790.715,1743.82 796.215,1749.82 799.016,1752.91C801.914,1755.91 804.312,1758.72 804.312,1759.02C804.312,1759.41 806.414,1761.91 809.113,1764.61C813.715,1769.41 822.016,1778.82 829.914,1787.91C832.113,1790.41 836.613,1795.32 840.016,1798.91C843.312,1802.52 848.516,1808.32 851.516,1811.91C854.414,1815.52 858.914,1820.52 861.312,1823.11C865.312,1827.22 868.516,1830.91 878.312,1842.22C879.715,1843.82 882.914,1847.32 885.613,1850.02C888.215,1852.72 890.312,1855.22 890.312,1855.52C890.312,1855.72 892.414,1858.22 895.113,1861.02C897.715,1863.82 901.215,1867.61 902.914,1869.41L906.016,1872.82L948.613,1872.82C972.113,1872.82 991.312,1872.52 991.312,1872.11C991.312,1871.72 988.516,1868.41 985.016,1864.82C981.613,1861.22 975.812,1854.91 972.113,1850.82C964.715,1842.52 963.914,1841.61 953.215,1829.82C948.914,1825.22 944.215,1820.02 942.715,1818.32C941.113,1816.61 936.914,1812.02 933.312,1807.91C929.715,1803.91 925.914,1799.61 924.812,1798.52C922.113,1795.72 903.414,1775.11 894.812,1765.41C891.016,1761.11 885.613,1755.22 882.812,1752.41C875.016,1744.22 859.914,1727.61 851.715,1718.02C850.113,1716.22 846.613,1712.32 843.812,1709.41C841.113,1706.52 836.215,1701.32 833.113,1697.82C830.016,1694.32 825.715,1689.61 823.613,1687.41C820.414,1683.91 815.414,1678.41 803.516,1665.02C802.312,1663.61 798.016,1658.91 794.016,1654.72C790.016,1650.41 784.613,1644.41 781.812,1641.32C779.113,1638.22 775.215,1633.91 773.312,1631.91C771.414,1629.82 766.215,1624.11 761.812,1619.32C757.414,1614.41 752.715,1609.32 751.312,1607.82C749.914,1606.32 746.812,1602.72 744.312,1599.82C741.812,1596.91 737.812,1592.52 735.414,1590.02C733.016,1587.52 727.414,1581.41 722.914,1576.52C718.516,1571.52 712.914,1565.52 710.613,1563.02C708.215,1560.52 706.312,1557.52 706.312,1556.41C706.312,1554.91 710.715,1549.91 719.414,1541.32C726.613,1534.22 748.715,1512.41 768.414,1492.91C866.215,1395.91 939.016,1323.82 959.613,1303.61C972.113,1291.21 982.312,1280.91 982.312,1280.71C982.312,1280.61 963.215,1280.52 939.812,1280.52L897.215,1280.61L894.016,1284.32C892.312,1286.32 862.312,1316.61 827.516,1351.71C729.715,1450.11 649.113,1531.61 648.312,1533.02C647.312,1534.52 642.312,1533.41 642.312,1531.61C642.312,1531.02 642.215,1474.21 642.016,1405.61L641.812,1280.71L610.414,1280.61C590.312,1280.52 578.914,1280.82 578.715,1281.41Z" style="fill:white;fill-rule:nonzero;stroke:white;stroke-width:1px;"/>
                        </g>
                        <g transform="matrix(4.16667,0,0,4.16667,15024.9,28726)">
                            <path d="M1072.71,1280.82C1071.91,1281.71 1072.31,1335.11 1073.21,1336.71C1074.02,1338.32 1083.52,1338.41 1213.02,1337.91C1348.11,1337.41 1351.81,1337.41 1353.61,1339.32C1355.52,1341.32 1355.02,1344.82 1352.71,1346.21C1351.91,1346.61 1351.31,1347.71 1351.31,1348.41C1351.31,1349.21 1350.41,1350.82 1349.31,1351.91C1348.21,1353.02 1346.61,1355.32 1345.81,1357.11C1343.21,1362.41 1340.52,1367.32 1338.81,1369.41C1336.11,1372.91 1332.31,1379.02 1332.31,1379.91C1332.31,1380.41 1331.21,1382.02 1330.02,1383.61C1327.81,1386.21 1326.31,1388.71 1323.11,1394.91C1322.41,1396.32 1320.81,1398.71 1319.61,1400.21C1318.31,1401.82 1317.31,1403.52 1317.31,1404.02C1317.31,1404.61 1316.21,1406.52 1314.81,1408.32C1313.41,1410.11 1312.31,1411.91 1312.31,1412.32C1312.31,1412.71 1310.21,1416.21 1307.71,1420.21C1299.41,1433.02 1298.31,1434.82 1298.31,1435.71C1298.31,1436.21 1297.41,1437.71 1296.41,1439.02C1294.21,1441.82 1290.81,1447.32 1289.11,1450.91C1288.52,1452.32 1287.21,1454.32 1286.21,1455.41C1285.31,1456.52 1283.91,1458.61 1283.21,1460.02C1281.02,1464.11 1277.52,1470.02 1274.31,1474.91C1272.61,1477.41 1270.41,1481.21 1269.21,1483.41C1268.11,1485.61 1264.91,1490.82 1262.21,1494.91C1259.52,1499.02 1256.52,1504.02 1255.52,1505.91C1254.61,1507.82 1253.02,1510.11 1252.11,1511.11C1251.11,1512.11 1250.31,1513.52 1250.31,1514.32C1250.31,1515.02 1249.31,1516.91 1248.11,1518.41C1246.91,1520.02 1245.21,1522.52 1244.31,1524.02C1241.61,1528.91 1238.31,1534.32 1235.31,1538.91C1233.61,1541.41 1231.61,1544.82 1230.81,1546.61C1230.02,1548.32 1228.91,1550.02 1228.31,1550.41C1227.71,1550.82 1226.61,1552.52 1225.81,1554.22C1225.02,1556.02 1222.91,1559.41 1221.31,1561.91C1219.71,1564.41 1217.71,1567.82 1216.91,1569.52C1216.11,1571.22 1214.71,1573.11 1213.91,1573.91C1213.02,1574.61 1212.31,1575.72 1212.31,1576.41C1212.31,1577.22 1211.31,1579.02 1210.02,1580.61C1208.81,1582.11 1207.21,1584.52 1206.52,1585.91C1205.81,1587.32 1203.91,1590.41 1202.31,1592.91C1200.61,1595.41 1198.61,1599.02 1197.71,1600.91C1196.81,1602.82 1195.41,1605.22 1194.52,1606.22C1192.91,1608.11 1191.41,1610.41 1188.61,1615.91C1187.61,1617.82 1186.02,1620.11 1185.11,1621.11C1184.11,1622.11 1183.31,1623.52 1183.31,1624.22C1183.31,1625.02 1182.21,1626.91 1180.81,1628.52C1179.41,1630.11 1178.31,1631.82 1178.31,1632.41C1178.31,1633.52 1173.81,1640.72 1170.41,1645.11C1169.21,1646.52 1168.31,1648.41 1168.31,1649.22C1168.31,1649.91 1167.41,1651.41 1166.31,1652.41C1165.21,1653.41 1164.31,1654.82 1164.31,1655.52C1164.31,1656.22 1163.21,1658.02 1161.81,1659.52C1160.41,1661.02 1159.31,1662.82 1159.31,1663.52C1159.31,1664.22 1158.31,1666.02 1157.02,1667.61C1155.81,1669.11 1154.21,1671.52 1153.52,1672.91C1152.81,1674.32 1150.91,1677.41 1149.31,1679.91C1147.71,1682.41 1145.81,1685.52 1145.11,1686.91C1144.52,1688.32 1143.21,1690.32 1142.21,1691.41C1140.61,1693.32 1139.81,1694.82 1135.31,1703.61C1134.11,1706.02 1132.71,1707.91 1132.31,1707.91C1131.81,1707.91 1130.91,1709.41 1130.31,1711.32C1129.71,1713.22 1128.52,1715.32 1127.71,1716.02C1126.91,1716.72 1125.52,1718.61 1124.71,1720.32C1123.91,1722.02 1120.81,1727.22 1117.81,1731.91C1114.81,1736.61 1111.71,1741.52 1111.11,1742.91C1110.41,1744.32 1108.91,1746.72 1107.71,1748.41C1106.61,1750.02 1105.31,1752.11 1104.91,1752.91C1104.61,1753.72 1102.91,1756.41 1101.31,1758.91C1099.61,1761.41 1097.71,1764.82 1096.91,1766.52C1096.11,1768.22 1094.71,1770.11 1093.91,1770.91C1093.02,1771.61 1092.31,1772.72 1092.31,1773.41C1092.31,1774.22 1091.21,1776.11 1089.81,1777.72C1088.52,1779.32 1086.91,1781.72 1086.31,1783.02C1085.71,1784.32 1083.91,1787.41 1082.31,1789.91C1080.61,1792.41 1078.61,1795.91 1077.71,1797.82C1076.91,1799.61 1075.41,1802.32 1074.41,1803.82C1066.61,1815.02 1059.91,1826.02 1058.11,1830.11C1057.41,1831.72 1056.52,1832.91 1056.11,1832.91C1055.71,1832.91 1054.61,1834.61 1053.61,1836.72C1052.71,1838.72 1051.21,1841.52 1050.31,1842.91C1049.41,1844.32 1047.52,1847.22 1046.11,1849.41C1044.81,1851.61 1041.31,1857.22 1038.41,1861.82C1035.52,1866.41 1033.41,1870.82 1033.71,1871.52C1034.11,1872.72 1069.31,1872.82 1244.02,1872.61L1453.81,1872.41L1454.11,1844.91C1454.31,1822.91 1454.11,1816.91 1453.02,1815.52C1452.21,1814.41 1451.11,1813.91 1450.52,1814.32C1449.21,1815.11 1141.52,1815.22 1140.21,1814.32C1137.71,1812.82 1139.61,1807.82 1147.31,1795.91C1149.02,1793.41 1150.81,1790.32 1151.52,1788.91C1152.21,1787.52 1153.61,1785.52 1154.52,1784.52C1155.52,1783.41 1156.31,1782.02 1156.31,1781.52C1156.31,1780.41 1161.11,1772.82 1163.31,1770.11C1163.91,1769.41 1165.02,1767.41 1165.81,1765.52C1166.61,1763.72 1167.91,1761.72 1168.71,1760.91C1169.61,1760.22 1170.31,1759.11 1170.31,1758.41C1170.31,1757.61 1171.31,1755.82 1172.61,1754.22C1173.91,1752.72 1175.21,1750.61 1175.61,1749.72C1175.91,1748.72 1178.21,1744.91 1180.61,1741.22C1183.11,1737.52 1185.41,1733.41 1185.71,1732.22C1186.11,1731.11 1187.02,1729.82 1187.71,1729.61C1188.52,1729.32 1189.61,1727.41 1190.31,1725.52C1190.91,1723.52 1191.81,1721.91 1192.21,1721.91C1192.61,1721.91 1193.81,1720.11 1194.81,1717.91C1195.81,1715.72 1196.91,1713.91 1197.31,1713.91C1197.81,1713.91 1198.81,1712.11 1199.61,1710.02C1200.52,1707.82 1201.71,1705.82 1202.31,1705.41C1202.91,1705.11 1204.02,1703.32 1204.81,1701.61C1205.61,1699.82 1207.61,1696.41 1209.31,1693.91C1210.91,1691.41 1212.81,1688.32 1213.52,1686.91C1214.21,1685.52 1215.81,1683.11 1217.02,1681.61C1218.31,1680.02 1219.31,1678.32 1219.31,1677.82C1219.31,1677.32 1220.11,1675.61 1221.21,1674.11C1226.41,1666.52 1230.81,1659.32 1232.71,1655.32C1233.52,1653.61 1234.91,1651.72 1235.71,1650.91C1236.61,1650.22 1237.31,1649.11 1237.31,1648.52C1237.41,1647.91 1239.41,1644.22 1241.91,1640.41C1244.31,1636.52 1246.91,1632.32 1247.52,1630.91C1248.21,1629.52 1249.31,1628.02 1250.02,1627.61C1250.71,1627.22 1251.31,1626.22 1251.31,1625.52C1251.31,1624.82 1252.52,1622.41 1254.11,1620.32C1255.61,1618.22 1257.41,1615.32 1258.11,1613.91C1258.81,1612.52 1260.71,1609.41 1262.31,1606.91C1263.91,1604.41 1265.91,1601.02 1266.71,1599.32C1267.52,1597.61 1268.61,1595.82 1269.21,1595.52C1269.81,1595.11 1271.02,1593.32 1271.81,1591.61C1272.61,1589.82 1274.71,1586.41 1276.31,1583.91C1277.91,1581.41 1280.02,1577.82 1280.91,1575.91C1281.81,1574.02 1282.91,1572.22 1283.31,1571.91C1284.11,1571.41 1286.91,1566.91 1290.41,1560.52C1291.61,1558.32 1293.21,1555.91 1293.91,1555.11C1294.71,1554.41 1295.31,1553.11 1295.31,1552.41C1295.31,1551.72 1296.31,1549.82 1297.61,1548.22C1298.81,1546.72 1300.41,1544.32 1301.11,1542.91C1301.81,1541.52 1303.71,1538.41 1305.31,1535.91C1306.91,1533.41 1308.81,1530.32 1309.52,1528.91C1310.21,1527.52 1311.81,1525.11 1313.02,1523.61C1314.31,1522.02 1315.31,1520.21 1315.31,1519.52C1315.31,1518.82 1316.21,1517.41 1317.31,1516.41C1318.41,1515.41 1319.31,1514.02 1319.31,1513.41C1319.31,1512.71 1320.31,1510.91 1321.52,1509.41C1323.91,1506.41 1326.21,1502.41 1328.71,1497.32C1329.52,1495.61 1330.91,1493.71 1331.71,1492.91C1332.61,1492.21 1333.31,1491.11 1333.31,1490.41C1333.31,1489.71 1334.31,1487.91 1335.52,1486.41C1336.71,1484.91 1338.41,1482.21 1339.31,1480.52C1343.02,1473.52 1344.91,1470.41 1346.11,1469.11C1346.81,1468.32 1348.02,1466.32 1348.91,1464.61C1351.52,1459.11 1354.21,1454.61 1355.11,1454.02C1355.91,1453.52 1358.02,1450.02 1362.21,1442.02C1362.91,1440.61 1364.31,1438.52 1365.31,1437.41C1366.91,1435.52 1367.71,1434.32 1372.02,1425.91C1373.02,1424.02 1374.61,1421.71 1375.61,1420.71C1376.52,1419.71 1377.31,1418.32 1377.31,1417.61C1377.31,1416.82 1378.41,1414.91 1379.81,1413.32C1381.21,1411.71 1382.31,1410.11 1382.31,1409.82C1382.31,1409.41 1384.11,1406.21 1386.31,1402.82C1388.41,1399.32 1391.71,1393.91 1393.41,1390.91C1397.02,1384.71 1399.02,1381.41 1405.52,1371.41C1408.02,1367.52 1410.41,1363.41 1410.71,1362.32C1411.11,1361.11 1412.21,1359.41 1413.31,1358.41C1414.41,1357.41 1415.31,1356.02 1415.31,1355.32C1415.31,1354.61 1416.31,1352.82 1417.61,1351.21C1418.81,1349.71 1420.41,1347.32 1421.11,1345.91C1421.81,1344.52 1423.71,1341.41 1425.31,1338.91C1426.91,1336.41 1428.91,1333.02 1429.81,1331.41C1430.61,1329.71 1432.71,1326.41 1434.31,1323.91C1436.02,1321.41 1438.21,1317.52 1439.31,1315.32C1440.41,1313.02 1442.02,1310.61 1442.81,1309.91C1443.61,1309.21 1444.31,1308.32 1444.31,1307.82C1444.31,1307.32 1445.52,1305.02 1447.02,1302.61C1448.41,1300.32 1450.81,1296.61 1452.11,1294.41C1453.52,1292.21 1455.91,1288.52 1457.61,1286.11C1459.21,1283.71 1460.31,1281.61 1460.02,1281.32C1459.52,1280.71 1073.31,1280.21 1072.71,1280.82Z" style="fill:white;fill-rule:nonzero;stroke:white;stroke-width:1px;"/>
                        </g>
                        <g transform="matrix(4.16667,0,0,4.16667,15024.9,28726)">
                            <path d="M1566.72,1280.82C1566.52,1281.02 1566.31,1374.41 1566.31,1488.32C1566.41,1709.41 1566.11,1697.52 1571.22,1726.91C1573.31,1739.32 1574.81,1744.52 1580.91,1761.41C1583.02,1767.02 1592.11,1784.91 1593.91,1786.61C1594.61,1787.41 1595.31,1788.41 1595.31,1788.82C1595.31,1789.72 1604.52,1802.32 1610.02,1808.91C1614.61,1814.52 1628.81,1828.61 1633.11,1831.91C1634.91,1833.32 1637.41,1835.32 1638.61,1836.52C1641.02,1838.72 1650.72,1845.41 1655.22,1847.91C1656.72,1848.82 1659.22,1850.52 1660.81,1851.72C1662.31,1852.91 1664.11,1853.91 1664.81,1853.91C1665.52,1853.91 1667.11,1854.72 1668.41,1855.82C1669.72,1856.82 1671.91,1858.02 1673.31,1858.41C1674.72,1858.82 1676.91,1860.02 1678.22,1861.02C1679.52,1862.11 1681.31,1862.91 1682.22,1862.91C1683.11,1862.91 1685.91,1864.02 1688.52,1865.41C1691.11,1866.82 1694.02,1867.91 1695.02,1867.91C1696.02,1867.91 1698.22,1868.61 1699.81,1869.52C1703.02,1871.32 1715.22,1874.61 1734.31,1879.11C1745.91,1881.82 1750.61,1882.11 1777.31,1882.22C1796.81,1882.22 1807.22,1881.82 1810.31,1880.91C1812.81,1880.32 1818.22,1879.11 1822.31,1878.32C1826.41,1877.61 1831.61,1876.32 1833.81,1875.52C1836.02,1874.72 1841.11,1873.32 1845.11,1872.32C1849.02,1871.41 1852.31,1870.32 1852.31,1869.82C1852.31,1869.41 1853.81,1868.82 1855.61,1868.41C1857.31,1868.02 1860.31,1866.82 1862.11,1865.82C1863.91,1864.82 1866.02,1863.91 1866.61,1863.91C1867.72,1863.91 1878.22,1858.82 1885.31,1854.82C1902.22,1845.41 1923.11,1829.72 1932.72,1819.22C1942.91,1807.91 1953.31,1795.22 1953.31,1793.91C1953.31,1793.52 1954.41,1792.02 1955.81,1790.52C1957.22,1789.02 1958.31,1787.32 1958.31,1786.72C1958.31,1786.22 1959.41,1784.41 1960.81,1782.72C1962.22,1781.11 1963.31,1779.02 1963.31,1778.02C1963.31,1777.11 1964.41,1774.82 1965.81,1772.91C1967.22,1771.02 1968.31,1768.91 1968.31,1768.11C1968.31,1767.32 1969.02,1765.52 1969.81,1764.11C1971.52,1761.02 1975.02,1751.22 1976.41,1745.41C1977.02,1743.22 1978.11,1739.32 1978.91,1736.82C1979.61,1734.32 1980.81,1728.61 1981.41,1724.32C1982.02,1720.02 1983.22,1711.91 1984.11,1706.41C1985.72,1697.32 1985.81,1678.32 1985.81,1488.61L1985.81,1280.82L1925.11,1280.82C1923.41,1280.91 1923.31,1290.71 1923.31,1473.21C1923.31,1665.52 1922.81,1701.91 1919.81,1712.41C1919.02,1715.11 1918.11,1719.91 1917.72,1722.91C1917.41,1725.91 1916.41,1730.02 1915.61,1731.91C1914.81,1733.82 1913.41,1737.61 1912.61,1740.41C1911.81,1743.11 1910.52,1746.11 1909.81,1746.91C1909.11,1747.72 1908.02,1750.11 1907.31,1752.11C1906.72,1754.22 1905.81,1755.91 1905.31,1755.91C1904.91,1755.91 1904.02,1757.22 1903.31,1758.91C1902.61,1760.52 1901.11,1763.02 1899.91,1764.32C1898.81,1765.72 1896.91,1768.02 1895.81,1769.52C1893.61,1772.52 1879.02,1787.11 1874.61,1790.72C1869.02,1795.32 1849.61,1807.41 1846.11,1808.41C1844.91,1808.82 1842.41,1810.02 1840.72,1811.02C1839.02,1812.11 1836.91,1812.91 1836.22,1812.91C1835.41,1812.91 1833.52,1813.61 1832.02,1814.41C1828.02,1816.52 1811.22,1820.91 1801.31,1822.52C1785.22,1825.11 1770.22,1825.32 1754.61,1823.11C1746.81,1822.02 1739.61,1820.61 1738.61,1820.11C1737.61,1819.61 1734.11,1818.61 1730.81,1817.91C1727.61,1817.22 1723.11,1815.91 1720.81,1814.91C1718.61,1813.91 1713.91,1811.82 1710.31,1810.32C1706.72,1808.72 1702.22,1806.41 1700.31,1805.22C1698.41,1803.91 1696.11,1802.91 1695.22,1802.91C1694.31,1802.91 1693.02,1802.22 1692.22,1801.32C1691.52,1800.52 1689.61,1799.11 1687.91,1798.22C1686.22,1797.32 1684.41,1796.02 1684.02,1795.32C1683.61,1794.52 1682.61,1793.91 1681.81,1793.91C1681.02,1793.91 1679.81,1793.11 1679.11,1792.11C1678.41,1791.22 1676.72,1789.61 1675.31,1788.72C1671.02,1785.91 1657.72,1772.32 1653.52,1766.41C1650.22,1761.82 1646.31,1755.72 1646.31,1755.02C1646.31,1754.52 1645.41,1753.11 1644.41,1751.72C1643.31,1750.41 1642.02,1747.32 1641.31,1744.91C1640.61,1742.41 1639.61,1739.82 1639.02,1739.11C1637.22,1736.91 1631.31,1711.82 1631.31,1706.11C1631.31,1703.22 1630.52,1694.61 1629.61,1687.11C1628.11,1674.72 1627.91,1655.11 1627.91,1477.21C1627.81,1369.21 1627.61,1280.91 1627.31,1280.91C1623.22,1280.61 1567.02,1280.52 1566.72,1280.82Z" style="fill:white;fill-rule:nonzero;stroke:white;stroke-width:1px;"/>
                        </g>
                        <g transform="matrix(4.16667,0,0,4.16667,15024.9,28726)">
                            <path d="M2132.22,1281.02C2131.11,1281.71 2130.81,1333.41 2131.91,1336.21C2132.22,1337.11 2133.02,1337.91 2133.72,1337.91L2271.91,1337.91C2347.41,1337.91 2409.81,1338.21 2410.72,1338.52C2413.11,1339.41 2412.72,1345.11 2410.22,1348.02C2409.02,1349.32 2407.52,1351.82 2406.72,1353.52C2406.02,1355.21 2404.72,1357.11 2403.91,1357.91C2403.02,1358.61 2402.31,1359.71 2402.31,1360.41C2402.31,1361.21 2401.31,1363.02 2400.02,1364.61C2398.81,1366.11 2397.22,1368.52 2396.52,1369.91C2395.81,1371.32 2393.91,1374.41 2392.31,1376.91C2390.72,1379.41 2388.81,1382.52 2388.11,1383.91C2387.41,1385.32 2385.81,1387.82 2384.61,1389.52C2383.31,1391.21 2382.31,1393.02 2382.31,1393.61C2382.31,1394.11 2381.41,1395.41 2380.41,1396.32C2379.31,1397.32 2378.11,1399.41 2377.81,1400.91C2377.52,1402.41 2376.31,1404.52 2375.22,1405.52C2374.22,1406.41 2373.31,1407.61 2373.31,1408.11C2373.31,1408.61 2372.22,1410.52 2370.81,1412.32C2369.41,1414.11 2368.31,1416.02 2368.31,1416.52C2368.31,1417.41 2363.41,1425.11 2361.31,1427.61C2360.81,1428.32 2359.61,1430.41 2358.61,1432.32C2357.72,1434.32 2356.61,1435.91 2356.31,1435.91C2355.91,1435.91 2354.81,1437.71 2353.81,1439.91C2352.81,1442.11 2351.61,1443.91 2351.22,1443.91C2350.81,1443.91 2350.02,1445.41 2349.31,1447.32C2348.72,1449.11 2347.31,1451.52 2346.31,1452.41C2345.22,1453.41 2344.31,1455.02 2344.31,1456.11C2344.31,1457.11 2343.91,1457.91 2343.41,1457.91C2342.91,1457.91 2341.52,1459.91 2340.31,1462.32C2339.22,1464.71 2337.52,1467.32 2336.72,1467.91C2336.02,1468.61 2335.31,1469.71 2335.31,1470.32C2335.31,1471.32 2334.02,1473.61 2329.11,1480.82C2328.11,1482.21 2326.22,1485.41 2324.81,1487.91C2323.41,1490.41 2321.72,1493.32 2321.02,1494.41C2318.41,1498.52 2310.72,1511.02 2308.31,1515.02C2306.91,1517.32 2304.61,1521.02 2303.11,1523.32C2301.61,1525.61 2300.31,1528.02 2300.31,1528.61C2300.31,1529.32 2299.91,1529.91 2299.52,1529.91C2299.11,1529.91 2297.72,1531.82 2296.41,1534.11C2292.11,1542.22 2290.72,1544.52 2288.52,1547.41C2287.31,1548.91 2286.31,1550.72 2286.31,1551.41C2286.31,1552.11 2285.61,1553.22 2284.72,1553.91C2283.91,1554.72 2282.52,1556.61 2281.81,1558.32C2281.02,1560.02 2277.91,1565.22 2274.81,1569.91C2271.81,1574.61 2268.61,1580.02 2267.72,1581.91C2266.81,1583.82 2265.52,1585.72 2264.81,1586.22C2264.02,1586.61 2263.22,1588.32 2262.81,1590.02C2262.41,1591.72 2261.52,1593.32 2260.81,1593.52C2260.11,1593.82 2258.91,1595.52 2258.22,1597.22C2257.52,1598.91 2256.31,1601.02 2255.52,1601.91C2253.22,1604.52 2248.31,1612.41 2248.31,1613.52C2248.31,1614.11 2247.61,1615.22 2246.72,1615.91C2245.91,1616.72 2244.52,1618.82 2243.72,1620.82C2242.91,1622.72 2241.91,1624.61 2241.52,1624.91C2240.61,1625.61 2233.31,1637.52 2233.31,1638.32C2233.31,1638.72 2232.52,1640.22 2231.41,1641.72C2226.72,1648.52 2220.22,1659.11 2219.41,1661.22C2218.91,1662.52 2217.81,1664.11 2216.91,1664.82C2216.02,1665.52 2215.31,1666.72 2215.31,1667.41C2215.31,1668.22 2214.31,1670.02 2213.02,1671.61C2211.81,1673.11 2210.22,1675.52 2209.52,1676.91C2208.81,1678.32 2206.91,1681.41 2205.31,1683.91C2203.61,1686.41 2201.72,1689.82 2200.91,1691.52C2200.11,1693.22 2198.72,1695.11 2197.91,1695.91C2197.02,1696.61 2196.31,1697.72 2196.31,1698.41C2196.31,1699.22 2195.31,1701.02 2194.02,1702.61C2192.81,1704.11 2191.22,1706.52 2190.52,1707.91C2189.91,1709.32 2187.31,1713.52 2184.91,1717.41C2182.41,1721.22 2180.41,1724.91 2180.31,1725.52C2180.31,1726.11 2179.61,1727.32 2178.61,1728.02C2177.72,1728.82 2176.41,1730.72 2175.61,1732.41C2174.81,1734.02 2172.91,1737.41 2171.31,1739.91C2169.61,1742.41 2167.72,1745.82 2166.91,1747.52C2166.11,1749.22 2164.72,1751.11 2163.91,1751.91C2163.02,1752.61 2162.31,1753.72 2162.31,1754.41C2162.31,1755.22 2161.31,1757.02 2160.02,1758.61C2158.81,1760.11 2157.22,1762.52 2156.52,1763.91C2155.81,1765.32 2153.91,1768.41 2152.31,1770.91C2150.72,1773.41 2148.41,1777.02 2147.31,1778.91C2146.11,1780.82 2144.11,1784.22 2142.81,1786.41C2141.41,1788.61 2139.52,1792.02 2138.61,1793.91C2137.61,1795.82 2136.02,1798.11 2135.11,1799.11C2134.11,1800.11 2133.31,1801.41 2133.31,1802.02C2133.31,1802.61 2132.22,1804.52 2130.81,1806.32C2129.41,1808.11 2128.31,1810.11 2128.31,1810.61C2128.31,1811.22 2127.61,1812.22 2126.72,1813.02C2125.81,1813.72 2124.41,1816.02 2123.61,1818.11C2122.81,1820.22 2121.81,1821.91 2121.41,1821.91C2121.02,1821.91 2119.91,1823.41 2119.02,1825.11C2118.02,1826.91 2115.72,1830.91 2113.81,1833.91C2111.91,1836.91 2109.81,1840.72 2109.02,1842.41C2108.22,1844.02 2106.91,1846.02 2106.02,1846.82C2105.02,1847.52 2104.31,1848.91 2104.31,1849.91C2104.31,1850.82 2103.41,1852.41 2102.31,1853.41C2101.22,1854.41 2100.11,1856.11 2099.72,1857.32C2099.31,1858.41 2098.22,1860.52 2097.11,1861.91C2093.41,1866.82 2090.52,1871.72 2091.02,1872.32C2091.91,1873.22 2509.61,1873.02 2511.02,1872.11C2512.81,1871.02 2513.11,1818.52 2511.31,1816.41C2510.22,1815.11 2493.31,1814.91 2354.41,1814.91L2198.81,1815.02L2198.22,1812.41C2197.41,1809.61 2198.11,1805.91 2199.41,1805.91C2199.91,1805.91 2201.31,1804.11 2202.52,1801.82C2207.11,1793.61 2207.81,1792.32 2209.91,1789.41C2211.11,1787.72 2212.41,1785.41 2212.72,1784.11C2213.11,1782.91 2213.91,1781.91 2214.41,1781.91C2214.91,1781.91 2216.02,1780.11 2216.91,1777.91C2217.81,1775.72 2218.91,1773.91 2219.31,1773.91C2219.72,1773.91 2220.81,1772.22 2221.61,1770.11C2222.41,1768.02 2223.81,1765.72 2224.72,1765.02C2225.61,1764.22 2226.31,1763.11 2226.31,1762.41C2226.31,1761.72 2227.31,1759.91 2228.52,1758.41C2230.91,1755.41 2233.22,1751.41 2235.72,1746.32C2236.52,1744.61 2237.91,1742.72 2238.72,1741.91C2239.61,1741.22 2240.31,1740.11 2240.31,1739.41C2240.31,1738.61 2241.31,1736.82 2242.61,1735.22C2243.81,1733.72 2245.41,1731.32 2246.11,1729.91C2246.81,1728.52 2248.72,1725.41 2250.31,1722.91C2252.02,1720.41 2254.11,1716.72 2255.02,1714.72C2255.91,1712.61 2257.02,1710.91 2257.52,1710.91C2258.02,1710.91 2259.11,1709.41 2259.91,1707.61C2260.72,1705.91 2262.91,1701.91 2264.81,1698.91C2266.72,1695.91 2268.81,1692.02 2269.61,1690.41C2270.41,1688.72 2271.72,1686.82 2272.61,1686.02C2273.61,1685.32 2274.31,1684.32 2274.31,1683.82C2274.31,1682.82 2275.41,1681.02 2283.72,1668.11C2286.31,1664.11 2288.72,1660.11 2289.02,1659.11C2289.41,1658.22 2290.72,1656.11 2292.02,1654.61C2293.31,1653.02 2294.31,1651.22 2294.31,1650.41C2294.31,1649.72 2295.02,1648.61 2295.81,1647.91C2296.61,1647.22 2298.22,1644.82 2299.31,1642.52C2301.61,1637.91 2302.91,1635.72 2305.81,1631.41C2307.02,1629.72 2308.41,1627.32 2309.11,1625.91C2309.81,1624.52 2311.72,1621.41 2313.31,1618.91C2315.02,1616.41 2316.91,1613.02 2317.72,1611.32C2318.52,1609.61 2319.91,1607.72 2320.72,1606.91C2321.61,1606.22 2322.31,1605.22 2322.31,1604.72C2322.31,1604.11 2323.31,1602.32 2324.61,1600.61C2327.52,1596.52 2329.31,1593.52 2336.31,1581.11C2337.11,1579.61 2338.72,1577.02 2339.91,1575.41C2341.02,1573.72 2342.31,1571.72 2342.72,1570.91C2344.11,1568.11 2348.81,1560.22 2352.41,1554.82C2354.31,1551.82 2356.22,1548.72 2356.61,1547.91C2357.02,1547.11 2358.91,1543.91 2360.81,1540.91C2362.72,1537.91 2365.11,1533.82 2366.31,1531.91C2368.52,1528.21 2371.72,1522.82 2375.31,1516.91C2376.41,1515.02 2378.72,1511.41 2380.31,1508.91C2381.91,1506.41 2384.22,1502.82 2385.31,1500.91C2386.41,1499.02 2388.52,1495.61 2389.81,1493.41C2391.11,1491.21 2393.02,1487.82 2393.91,1485.91C2394.81,1484.02 2396.61,1481.11 2397.91,1479.61C2399.22,1478.02 2400.31,1476.11 2400.31,1475.32C2400.31,1474.52 2400.72,1473.91 2401.22,1473.91C2401.72,1473.91 2402.91,1472.21 2403.81,1470.11C2404.81,1468.11 2406.41,1465.61 2407.41,1464.61C2408.52,1463.61 2409.31,1462.02 2409.31,1461.02C2409.31,1460.02 2410.02,1458.61 2410.91,1457.82C2411.72,1457.11 2413.31,1454.91 2414.41,1453.02C2415.52,1451.02 2417.52,1447.61 2418.81,1445.41C2420.22,1443.21 2421.91,1440.32 2422.52,1438.91C2423.22,1437.52 2424.81,1435.11 2426.02,1433.61C2427.31,1432.02 2428.31,1430.32 2428.31,1429.71C2428.31,1429.21 2429.41,1427.41 2430.81,1425.71C2432.22,1424.11 2433.31,1422.21 2433.31,1421.41C2433.31,1420.71 2434.02,1419.52 2435.02,1418.82C2435.91,1418.02 2437.22,1416.02 2438.02,1414.41C2438.81,1412.71 2440.72,1409.41 2442.31,1406.91C2443.91,1404.41 2445.81,1401.32 2446.52,1399.91C2447.22,1398.52 2448.81,1396.02 2450.02,1394.32C2451.31,1392.61 2452.31,1391.02 2452.31,1390.71C2452.31,1390.41 2454.11,1387.21 2456.31,1383.82C2458.52,1380.32 2460.91,1376.02 2461.61,1374.41C2462.41,1372.71 2463.72,1370.82 2464.61,1370.02C2465.61,1369.32 2466.31,1368.11 2466.31,1367.32C2466.31,1366.61 2467.41,1364.82 2468.81,1363.32C2470.22,1361.82 2471.31,1360.02 2471.31,1359.32C2471.31,1358.61 2472.31,1356.82 2473.61,1355.21C2474.81,1353.71 2476.41,1351.32 2477.11,1349.91C2477.81,1348.52 2479.72,1345.41 2481.31,1342.91C2482.91,1340.41 2484.81,1337.32 2485.52,1335.91C2486.11,1334.52 2487.31,1332.71 2488.02,1331.82C2489.52,1330.02 2493.72,1322.61 2495.81,1318.11C2496.61,1316.41 2497.72,1314.91 2498.22,1314.91C2498.72,1314.91 2499.31,1313.91 2499.72,1312.61C2500.02,1311.32 2501.41,1309.02 2502.81,1307.32C2504.22,1305.71 2505.31,1303.91 2505.31,1303.21C2505.31,1302.61 2506.02,1301.41 2506.81,1300.52C2507.72,1299.71 2509.02,1297.52 2509.81,1295.61C2510.61,1293.82 2511.91,1291.71 2512.72,1290.91C2513.61,1290.21 2514.31,1289.11 2514.31,1288.32C2514.31,1287.61 2515.22,1286.21 2516.22,1285.21C2517.31,1284.21 2518.31,1282.82 2518.52,1282.11C2518.72,1281.21 2479.61,1280.82 2326.02,1280.61C2219.91,1280.52 2132.72,1280.71 2132.22,1281.02Z" style="fill:white;fill-rule:nonzero;stroke:white;stroke-width:1px;"/>
                        </g>
                        <g transform="matrix(4.16667,0,0,4.16667,15024.9,28726)">
                            <path d="M3184.02,1731.41C3184.31,1732.82 3185.02,1733.91 3185.52,1733.91C3186.81,1733.91 3186.11,1729.61 3184.72,1729.22C3184.02,1729.02 3183.72,1729.82 3184.02,1731.41Z" style="fill:white;fill-rule:nonzero;stroke:white;stroke-width:1px;"/>
                        </g>
                    </g>
                    <g transform="matrix(-5.84245,0,0,5.90669,42246.5,18487.3)">
                        <path d="M2162.81,1.113C2160.41,7.816 2156.31,21.215 2156.31,22.613C2156.22,23.613 2155.41,26.215 2154.31,28.414C2153.22,30.613 2152.41,33.516 2152.31,34.914C2152.31,36.316 2151.41,40.113 2150.31,43.414C2148.11,50.016 2144.81,62.516 2143.22,70.414C2142.61,73.113 2141.52,77.613 2140.81,80.414C2140.02,83.113 2138.81,88.816 2138.22,92.914C2137.61,97.016 2136.22,103.113 2135.31,106.414C2134.31,109.715 2133.22,115.113 2132.91,118.516C2132.61,121.816 2131.72,127.016 2130.91,130.016C2130.22,133.016 2129.02,140.613 2128.41,146.914C2127.72,153.215 2126.61,160.914 2125.81,163.914C2125.02,166.914 2123.91,176.113 2123.31,184.414C2122.72,192.613 2122.02,200.016 2121.72,200.816C2120.22,205.113 2118.31,248.715 2118.31,278.316C2118.31,312.613 2119.02,328.914 2121.81,354.414C2124.61,380.613 2125.22,385.414 2126.22,389.414C2126.81,391.613 2128.11,399.016 2129.31,405.914C2133.72,432.414 2134.22,435.113 2135.11,436.215C2135.72,436.914 2136.91,441.414 2137.81,446.316C2138.72,451.316 2139.81,456.016 2140.31,457.016C2140.81,457.914 2141.91,461.516 2142.72,465.016C2143.52,468.516 2144.81,473.516 2145.72,476.113C2146.61,478.816 2148.02,483.016 2148.91,485.613C2149.81,488.316 2151.22,492.914 2152.02,495.914C2152.81,498.914 2153.91,501.914 2154.41,502.516C2154.91,503.113 2156.22,506.215 2157.31,509.316C2158.41,512.414 2160.22,517.316 2161.22,520.316C2162.31,523.316 2163.81,526.816 2164.61,528.113C2165.41,529.316 2166.41,531.816 2166.81,533.613C2167.11,535.316 2168.11,537.316 2168.81,537.914C2169.61,538.613 2170.52,540.613 2170.91,542.414C2171.22,544.316 2172.61,547.215 2173.91,549.016C2175.22,550.816 2176.31,552.816 2176.31,553.516C2176.31,554.613 2181.91,566.113 2184.41,569.914C2184.91,570.715 2185.81,572.516 2186.41,573.914C2187.02,575.316 2188.81,578.613 2190.41,581.414C2192.02,584.113 2194.22,588.316 2195.31,590.516C2196.41,592.816 2198.02,595.215 2198.81,595.914C2199.61,596.613 2200.31,597.516 2200.31,598.016C2200.31,598.516 2202.31,601.816 2204.81,605.516C2207.31,609.113 2209.31,612.414 2209.31,612.914C2209.31,613.414 2210.31,615.016 2211.61,616.613C2212.81,618.113 2214.52,620.613 2215.22,622.113C2216.02,623.715 2217.02,624.914 2217.52,624.914C2218.02,624.914 2218.72,625.715 2219.11,626.613C2220.52,629.914 2226.61,638.914 2227.41,638.914C2227.91,638.914 2228.31,639.414 2228.31,640.016C2228.31,640.613 2229.52,642.613 2231.11,644.414C2232.61,646.215 2234.91,649.414 2236.31,651.414C2239.61,656.215 2248.61,667.816 2255.52,676.316C2256.52,677.516 2259.41,681.113 2261.91,684.414C2264.52,687.715 2268.91,692.914 2271.72,696.016C2274.52,699.016 2277.91,703.016 2279.31,704.816C2280.72,706.715 2283.81,710.316 2286.31,713.016C2288.81,715.613 2294.02,721.316 2298.02,725.613C2314.52,743.414 2335.72,764.316 2358.81,785.414C2363.02,789.215 2367.41,793.316 2368.61,794.414C2370.31,796.016 2380.72,804.914 2392.41,814.715C2403.61,824.215 2418.41,835.914 2419.22,835.914C2419.72,835.914 2420.81,836.715 2421.52,837.715C2422.22,838.816 2423.91,840.113 2425.11,840.816C2427.41,842.016 2430.02,844.113 2435.02,848.613C2436.31,849.914 2437.91,850.914 2438.61,850.914C2439.31,850.914 2440.41,851.816 2441.11,852.914C2441.81,854.016 2442.81,854.914 2443.41,854.914C2444.02,854.914 2445.91,856.113 2447.72,857.516C2455.02,863.414 2463.61,869.914 2464.31,869.914C2464.72,869.914 2466.81,871.215 2468.91,872.914C2471.11,874.516 2473.31,876.215 2473.81,876.613C2476.02,878.316 2489.81,887.516 2492.81,889.414C2494.72,890.516 2499.91,893.914 2504.52,897.016C2509.11,900.016 2514.11,903.414 2515.72,904.516C2521.02,908.016 2525.81,910.816 2529.02,912.316C2530.72,913.215 2532.41,914.316 2532.81,914.914C2533.11,915.516 2535.31,916.914 2537.52,918.215C2539.81,919.414 2543.72,921.613 2546.22,923.113C2548.72,924.613 2551.91,926.414 2553.31,927.113C2554.72,927.816 2556.72,929.215 2557.72,930.113C2558.81,931.113 2560.22,931.914 2560.91,931.914C2561.52,931.914 2563.11,932.816 2564.52,933.816C2565.81,934.914 2570.61,937.715 2575.11,940.113C2584.91,945.215 2587.61,946.816 2592.31,949.715C2594.22,950.914 2596.52,951.914 2597.41,951.914C2598.31,951.914 2599.81,952.816 2600.72,953.816C2601.72,954.914 2603.81,956.113 2605.41,956.414C2607.02,956.816 2608.52,957.414 2608.81,957.914C2609.11,958.414 2615.11,961.613 2622.11,964.914C2629.11,968.316 2635.52,971.516 2636.31,972.016C2637.11,972.516 2639.41,973.613 2641.31,974.414C2643.22,975.316 2645.52,976.414 2646.31,976.914C2647.11,977.516 2649.41,978.613 2651.31,979.414C2653.22,980.316 2656.61,981.816 2658.81,982.816C2663.11,984.715 2668.41,987.215 2677.31,991.316C2680.31,992.613 2684.02,994.113 2685.52,994.414C2687.02,994.816 2688.72,995.715 2689.41,996.516C2692.22,999.914 2697.31,996.316 2697.31,990.914C2697.31,989.516 2697.91,987.316 2698.61,985.914C2699.31,984.516 2700.52,981.113 2701.22,978.414C2701.91,975.613 2703.31,971.113 2704.31,968.414C2705.31,965.613 2706.61,960.516 2707.22,956.914C2707.81,953.316 2708.91,947.516 2709.72,943.914C2710.52,940.316 2711.72,933.316 2712.22,928.414C2712.81,923.414 2713.81,917.113 2714.52,914.414C2716.31,907.414 2716.22,826.516 2714.41,819.414C2713.81,816.613 2712.81,809.715 2712.31,803.914C2711.81,798.113 2710.72,789.816 2709.81,785.414C2709.02,781.016 2707.81,773.613 2707.22,768.914C2706.61,764.215 2705.22,758.215 2704.22,755.516C2703.22,752.816 2702.31,749.215 2702.31,747.613C2702.31,745.914 2701.22,740.414 2699.91,735.414C2698.61,730.516 2697.02,724.414 2696.52,721.914C2695.91,719.414 2694.81,715.414 2694.02,712.914C2693.22,710.414 2692.02,706.414 2691.31,703.914C2687.81,690.613 2686.31,685.816 2684.91,683.215C2684.11,681.613 2683.22,678.516 2682.81,676.414C2682.41,674.215 2681.31,670.613 2680.31,668.414C2678.61,664.516 2676.52,658.715 2673.61,649.914C2672.81,647.414 2671.31,643.613 2670.22,641.316C2669.22,639.016 2668.31,636.414 2668.31,635.414C2668.31,634.516 2667.52,632.516 2666.52,631.113C2665.52,629.613 2664.02,626.316 2663.31,623.715C2662.61,621.113 2661.52,618.414 2660.72,617.816C2660.02,617.316 2659.11,615.414 2658.72,613.715C2658.41,612.016 2657.02,608.613 2655.72,606.113C2654.41,603.613 2653.31,600.914 2653.31,600.016C2653.31,599.113 2652.41,597.316 2651.31,595.914C2650.22,594.516 2649.31,592.816 2649.31,592.113C2649.31,590.914 2639.52,570.613 2635.72,563.914C2635.02,562.516 2634.31,560.613 2634.31,559.715C2634.31,558.816 2633.72,557.414 2632.91,556.715C2632.22,555.914 2630.61,553.316 2629.41,550.914C2626.02,543.914 2624.31,540.516 2623.22,538.914C2622.72,538.113 2621.41,535.613 2620.22,533.414C2619.11,531.215 2617.11,527.613 2615.81,525.414C2614.41,523.215 2612.41,519.613 2611.22,517.414C2610.11,515.215 2607.91,511.414 2606.31,508.914C2604.61,506.414 2602.52,502.613 2601.41,500.414C2600.41,498.215 2598.81,495.816 2597.91,495.016C2597.02,494.316 2596.31,493.113 2596.31,492.316C2596.31,491.613 2595.22,489.816 2593.81,488.316C2592.41,486.816 2591.31,485.113 2591.31,484.414C2591.31,483.715 2590.61,482.516 2589.61,481.816C2588.72,481.016 2587.41,479.016 2586.61,477.414C2585.91,475.715 2584.41,473.316 2583.41,471.914C2580.91,468.613 2574.22,458.414 2572.31,455.113C2571.52,453.715 2570.11,451.816 2569.31,450.816C2568.52,449.914 2566.72,447.516 2565.31,445.516C2563.91,443.516 2561.72,440.316 2560.31,438.414C2558.91,436.516 2556.72,433.414 2555.31,431.414C2553.91,429.414 2550.81,425.215 2548.31,421.914C2545.81,418.715 2541.61,413.016 2538.81,409.414C2536.11,405.816 2532.91,401.715 2531.81,400.516C2530.72,399.215 2526.91,394.516 2523.41,390.016C2519.91,385.516 2516.61,381.914 2516.11,381.914C2515.72,381.914 2515.31,381.414 2515.31,380.816C2515.31,379.816 2508.11,371.215 2500.81,363.414C2499.72,362.215 2495.91,357.914 2492.31,353.914C2486.61,347.516 2442.31,302.816 2438.31,299.516C2437.52,298.816 2431.61,293.516 2425.22,287.816C2418.91,282.113 2412.22,276.316 2410.41,274.914C2407.61,272.715 2405.02,270.613 2399.11,265.516C2398.22,264.715 2396.41,263.516 2395.11,262.816C2392.72,261.613 2391.22,260.316 2385.61,254.914C2383.91,253.316 2382.22,251.914 2381.81,251.914C2380.41,251.914 2378.41,248.414 2378.31,246.113C2378.31,244.914 2378.81,243.914 2379.31,243.914C2379.91,243.914 2380.31,244.316 2380.31,244.914C2380.31,245.414 2380.91,245.914 2381.72,245.914C2383.72,245.914 2387.11,247.414 2391.81,250.414C2394.02,251.816 2397.61,253.816 2399.81,255.016C2403.61,256.914 2408.41,260.016 2412.81,263.414C2413.81,264.215 2415.11,264.914 2415.72,264.914C2416.22,264.914 2418.11,266.016 2419.91,267.414C2421.72,268.816 2423.81,269.914 2424.61,269.914C2425.41,269.914 2426.72,270.613 2427.41,271.516C2428.91,273.414 2441.02,281.613 2445.91,284.215C2447.81,285.113 2449.31,286.414 2449.31,286.914C2449.31,287.516 2450.31,288.414 2451.61,288.914C2452.81,289.516 2455.81,291.414 2458.31,293.316C2460.81,295.215 2465.31,298.516 2468.31,300.613C2471.31,302.715 2474.31,304.914 2474.81,305.516C2475.41,306.113 2476.72,307.215 2477.91,308.016C2479.11,308.816 2482.41,311.414 2485.31,313.914C2492.02,319.613 2495.22,322.316 2498.31,324.816C2506.31,331.316 2518.11,342.113 2537.41,360.516C2551.41,373.914 2575.41,399.715 2587.11,414.113C2587.72,414.816 2589.31,416.613 2590.52,418.113C2599.91,429.113 2601.81,431.414 2607.81,439.414C2610.61,443.016 2614.91,448.613 2617.61,451.816C2620.22,455.113 2622.31,458.016 2622.31,458.316C2622.31,458.715 2624.61,461.914 2627.31,465.414C2630.11,468.914 2632.31,472.113 2632.31,472.516C2632.31,472.816 2633.41,474.516 2634.81,476.316C2636.22,478.016 2638.02,480.316 2638.91,481.516C2639.91,482.715 2641.31,485.016 2642.22,486.613C2643.11,488.316 2646.52,493.715 2649.81,498.613C2653.11,503.613 2656.61,508.914 2657.52,510.516C2658.52,512.113 2659.81,514.316 2660.52,515.414C2661.22,516.516 2663.72,520.414 2666.02,524.113C2668.41,527.816 2670.31,531.316 2670.31,532.016C2670.31,532.613 2671.31,534.516 2672.52,536.215C2675.02,539.715 2677.11,543.215 2680.22,549.414C2681.41,551.613 2682.72,554.113 2683.22,554.914C2683.72,555.715 2685.81,559.816 2687.81,563.914C2689.81,568.016 2692.11,572.516 2692.81,573.914C2696.22,580.316 2704.31,597.516 2704.31,598.316C2704.31,599.215 2706.61,604.215 2711.91,615.414C2713.22,618.215 2714.31,621.016 2714.31,621.613C2714.31,622.316 2715.22,624.316 2716.22,626.113C2717.22,627.914 2718.41,631.016 2718.81,632.914C2719.22,634.816 2720.41,637.816 2721.41,639.516C2722.41,641.215 2723.31,643.613 2723.31,644.715C2723.31,645.816 2724.41,649.113 2725.81,652.113C2727.22,655.016 2728.31,658.316 2728.31,659.414C2728.31,660.516 2729.22,663.215 2730.31,665.414C2731.41,667.613 2732.22,669.914 2732.31,670.613C2732.31,671.316 2733.72,676.016 2735.31,681.113C2737.02,686.215 2738.31,691.316 2738.31,692.516C2738.31,693.715 2739.22,696.613 2740.31,699.016C2741.41,701.414 2742.31,704.816 2742.31,706.613C2742.31,708.414 2743.22,712.215 2744.22,715.113C2745.31,718.016 2746.61,724.215 2747.31,728.914C2747.91,733.613 2749.11,739.613 2749.91,742.414C2750.61,745.113 2751.72,751.414 2752.31,756.414C2752.91,761.316 2754.02,769.715 2754.81,774.914C2756.91,788.816 2757.81,827.516 2756.41,844.516C2755.72,852.215 2755.52,859.316 2755.91,860.316C2756.52,862.016 2756.72,861.914 2757.91,859.816C2758.61,858.516 2759.52,854.914 2759.81,851.914C2760.22,848.914 2761.11,844.414 2761.81,841.914C2762.61,839.414 2764.11,832.016 2765.22,825.414C2766.41,818.816 2767.72,811.414 2768.22,808.914C2768.81,806.414 2769.22,801.914 2769.31,798.914C2769.31,795.914 2770.02,790.715 2770.81,787.414C2773.52,776.613 2774.61,747.715 2773.91,703.414C2773.52,671.816 2773.02,659.516 2771.81,653.914C2771.02,649.816 2769.91,641.316 2769.31,635.113C2768.81,628.914 2768.22,623.516 2767.91,623.113C2767.31,622.113 2764.61,605.715 2763.72,597.914C2763.31,594.316 2762.41,590.016 2761.81,588.414C2761.11,586.715 2760.22,582.914 2759.81,579.914C2759.41,576.914 2758.02,570.613 2756.72,565.914C2755.41,561.316 2754.31,556.113 2754.31,554.414C2754.31,552.816 2753.41,549.414 2752.31,547.016C2751.22,544.613 2750.31,541.715 2750.31,540.613C2750.31,537.613 2743.31,513.914 2737.72,497.613C2736.41,493.816 2735.31,490.113 2735.31,489.215C2735.31,488.316 2734.41,485.715 2733.41,483.516C2732.31,481.215 2731.02,477.816 2730.52,475.914C2729.91,474.016 2728.02,468.613 2726.31,463.914C2724.61,459.215 2722.31,453.016 2721.22,450.016C2720.22,447.016 2718.91,444.113 2718.41,443.516C2718.02,442.914 2717.02,440.613 2716.41,438.414C2715.72,436.215 2714.41,432.613 2713.41,430.414C2712.41,428.215 2710.31,423.516 2708.81,419.914C2704.81,410.215 2702.91,406.016 2700.02,399.914C2698.61,396.914 2697.11,393.316 2696.72,391.914C2696.31,390.516 2695.22,388.316 2694.22,387.016C2693.11,385.715 2692.31,384.215 2692.31,383.613C2692.31,382.613 2688.31,373.715 2685.72,368.914C2685.02,367.516 2683.81,365.316 2683.22,363.914C2682.61,362.516 2681.72,360.715 2681.22,359.914C2680.72,359.113 2679.61,356.816 2678.72,354.914C2677.81,353.016 2676.72,350.715 2676.22,349.914C2675.72,349.113 2674.41,346.516 2673.41,344.316C2672.31,342.016 2671.02,339.816 2670.52,339.516C2669.91,339.215 2668.91,337.215 2668.31,335.113C2667.61,333.113 2666.61,330.914 2665.91,330.414C2665.31,329.816 2664.02,327.816 2663.02,325.914C2659.61,319.316 2657.72,316.316 2655.52,313.414C2654.31,311.914 2653.31,310.215 2653.31,309.613C2653.31,309.016 2652.61,307.715 2651.61,306.715C2650.72,305.715 2649.52,304.113 2648.91,303.113C2648.31,302.113 2646.91,299.816 2645.81,298.016C2644.72,296.113 2642.81,293.516 2641.61,292.113C2640.31,290.715 2639.31,289.316 2639.31,288.914C2639.31,288.516 2638.52,287.215 2637.61,286.016C2636.61,284.914 2634.52,282.113 2632.81,279.914C2631.22,277.715 2626.52,271.715 2622.52,266.613C2618.52,261.613 2614.22,256.113 2613.02,254.516C2610.61,251.414 2610.02,250.715 2596.31,235.914C2581.31,219.613 2560.52,199.316 2549.81,190.414C2541.11,183.113 2539.31,181.715 2536.31,178.914C2534.81,177.516 2532.11,175.316 2530.31,173.914C2528.52,172.516 2526.11,170.613 2524.91,169.613C2523.81,168.715 2519.22,165.215 2514.81,161.914C2510.41,158.715 2506.11,155.414 2505.31,154.613C2504.52,153.914 2502.52,152.414 2500.91,151.414C2499.31,150.316 2496.81,148.516 2495.31,147.414C2486.11,140.715 2471.22,130.715 2466.11,127.914C2464.02,126.816 2462.31,125.414 2462.31,124.914C2462.31,124.414 2461.41,123.715 2460.31,123.414C2459.22,123.016 2455.22,120.816 2451.52,118.316C2447.81,115.914 2444.31,113.914 2443.72,113.914C2443.11,113.914 2441.91,113.215 2441.22,112.316C2440.41,111.414 2438.02,109.816 2435.81,108.715C2432.11,106.914 2429.81,105.715 2419.81,99.914C2412.52,95.613 2405.91,92.016 2397.31,87.715C2392.61,85.414 2388.22,82.914 2387.52,82.215C2386.81,81.516 2385.02,80.613 2383.52,80.316C2382.02,79.914 2379.72,78.816 2378.31,77.914C2376.91,76.914 2374.72,75.816 2373.31,75.414C2371.91,75.016 2369.72,73.816 2368.41,72.816C2367.11,71.715 2365.52,70.914 2364.91,70.914C2364.31,70.914 2361.72,69.816 2359.11,68.414C2356.52,67.016 2353.91,65.914 2353.31,65.914C2352.61,65.914 2350.91,65.113 2349.52,64.016C2348.02,63.016 2345.72,61.914 2344.31,61.516C2341.81,60.816 2333.41,57.113 2327.81,54.215C2326.22,53.414 2320.31,51.016 2314.81,48.914C2309.31,46.816 2303.52,44.414 2301.81,43.516C2300.22,42.613 2298.11,41.914 2297.31,41.914C2296.52,41.914 2294.61,41.316 2293.22,40.516C2291.72,39.816 2288.11,38.414 2285.22,37.414C2282.22,36.516 2278.81,35.113 2277.61,34.316C2276.41,33.613 2273.72,32.516 2271.61,32.016C2267.02,30.914 2254.02,26.316 2249.61,24.316C2247.91,23.516 2246.02,22.914 2245.31,22.914C2244.02,22.914 2226.91,17.516 2221.31,15.316C2219.41,14.516 2215.61,13.516 2212.81,12.914C2210.11,12.316 2205.41,10.914 2202.52,9.914C2199.61,8.816 2196.11,7.914 2194.72,7.914C2193.31,7.914 2190.52,7.016 2188.31,5.914C2186.11,4.816 2183.11,3.914 2181.61,3.914C2180.11,3.914 2175.61,3.016 2171.81,1.914C2163.61,-0.484 2163.41,-0.484 2162.81,1.113Z" style="fill:white;fill-rule:nonzero;stroke:white;stroke-width:1px;"/>
                    </g>
                </g>
            </g>
        </g>
    </g>
</svg>
