<?xml version="1.0" encoding="UTF-8" standalone="no"?>
<!DOCTYPE svg PUBLIC "-//W3C//DTD SVG 1.1//EN" "http://www.w3.org/Graphics/SVG/1.1/DTD/svg11.dtd">
<svg width="100%" height="100%" viewBox="0 0 16988 8400" version="1.1" xmlns="http://www.w3.org/2000/svg" xmlns:xlink="http://www.w3.org/1999/xlink" xml:space="preserve" xmlns:serif="http://www.serif.com/" style="fill-rule:evenodd;clip-rule:evenodd;stroke-linejoin:round;stroke-miterlimit:2;">
    <g transform="matrix(1,0,0,1,-147002,-97072.5)">
        <g id="_01" serif:id="01">
        </g>
        <g id="_011" serif:id="01">
        </g>
        <g id="_012" serif:id="01">
        </g>
        <g id="_013" serif:id="01">
        </g>
        <g id="Artboard29" transform="matrix(0.905893,0,0,0.622521,131854,112400)">
            <rect x="16720.8" y="-24622.4" width="18752.1" height="13493.1" style="fill:none;"/>
            <g transform="matrix(1.10388,0,0,1.60637,-2247.71,9686.34)">
                <g transform="matrix(11.2856,9.70782e-16,-1.34545e-16,11.2856,90127.8,-101047)">
                    <g transform="matrix(-0.973441,1.19212e-16,-1.1729e-16,-0.957749,-5282.2,7699.15)">
                        <path d="M260.213,32.899C262.984,28.084 268.116,25.116 273.672,25.116C279.228,25.116 284.36,28.084 287.131,32.899C310.992,74.365 360.75,160.838 387.953,208.111C391.824,214.839 391.815,223.12 387.929,229.839C384.044,236.558 376.87,240.696 369.109,240.696L182.118,240.696C173.555,240.696 165.641,236.131 161.353,228.717C157.066,221.304 157.056,212.167 161.327,204.745C188.897,156.833 236.908,73.399 260.213,32.899Z" style="fill:none;stroke:rgb(10,54,0);stroke-opacity:0.33;stroke-width:8.61px;"/>
                    </g>
                    <g transform="matrix(-0.973441,1.19212e-16,-1.1729e-16,-0.957749,-4983.04,7699.15)">
                        <path d="M260.213,32.899C262.984,28.084 268.116,25.116 273.672,25.116C279.228,25.116 284.36,28.084 287.131,32.899C310.992,74.365 360.75,160.838 387.953,208.111C391.824,214.839 391.815,223.12 387.929,229.839C384.044,236.558 376.87,240.696 369.109,240.696L182.118,240.696C173.555,240.696 165.641,236.131 161.353,228.717C157.066,221.304 157.056,212.167 161.327,204.745C188.897,156.833 236.908,73.399 260.213,32.899Z" style="fill:none;stroke:rgb(10,54,0);stroke-opacity:0.33;stroke-width:8.61px;"/>
                    </g>
                    <g transform="matrix(0.973441,-1.92176e-18,-1.92176e-18,0.957749,-5662.34,7558.87)">
                        <path d="M260.213,32.899C262.984,28.084 268.116,25.116 273.672,25.116C279.228,25.116 284.36,28.084 287.131,32.899C310.992,74.365 360.75,160.838 387.953,208.111C391.824,214.839 391.815,223.12 387.929,229.839C384.044,236.558 376.87,240.696 369.109,240.696L182.118,240.696C173.555,240.696 165.641,236.131 161.353,228.717C157.066,221.304 157.056,212.167 161.327,204.745C188.897,156.833 236.908,73.399 260.213,32.899Z" style="fill:none;stroke:rgb(10,54,0);stroke-opacity:0.33;stroke-width:8.61px;"/>
                    </g>
                    <g transform="matrix(0.973441,-1.92176e-18,-1.92176e-18,0.957749,-5356.2,7558.87)">
                        <path d="M260.213,32.899C262.984,28.084 268.116,25.116 273.672,25.116C279.228,25.116 284.36,28.084 287.131,32.899C310.992,74.365 360.75,160.838 387.953,208.111C391.824,214.839 391.815,223.12 387.929,229.839C384.044,236.558 376.87,240.696 369.109,240.696L182.118,240.696C173.555,240.696 165.641,236.131 161.353,228.717C157.066,221.304 157.056,212.167 161.327,204.745C188.897,156.833 236.908,73.399 260.213,32.899Z" style="fill:none;stroke:rgb(10,54,0);stroke-opacity:0.33;stroke-width:8.61px;"/>
                    </g>
                    <g transform="matrix(0.973441,-1.92176e-18,-1.92176e-18,0.957749,-6597.3,7558.87)">
                        <path d="M260.213,32.899C262.984,28.084 268.116,25.116 273.672,25.116C279.228,25.116 284.36,28.084 287.131,32.899C310.992,74.365 360.75,160.838 387.953,208.111C391.824,214.839 391.815,223.12 387.929,229.839C384.044,236.558 376.87,240.696 369.109,240.696L182.118,240.696C173.555,240.696 165.641,236.131 161.353,228.717C157.066,221.304 157.056,212.167 161.327,204.745C188.897,156.833 236.908,73.399 260.213,32.899Z" style="fill:none;stroke:rgb(10,54,0);stroke-opacity:0.33;stroke-width:8.61px;"/>
                    </g>
                    <g transform="matrix(0.973441,-1.92176e-18,-1.92176e-18,0.957749,-5974.5,7558.87)">
                        <path d="M260.213,32.899C262.984,28.084 268.116,25.116 273.672,25.116C279.228,25.116 284.36,28.084 287.131,32.899C310.992,74.365 360.75,160.838 387.953,208.111C391.824,214.839 391.815,223.12 387.929,229.839C384.044,236.558 376.87,240.696 369.109,240.696L182.118,240.696C173.555,240.696 165.641,236.131 161.353,228.717C157.066,221.304 157.056,212.167 161.327,204.745C188.897,156.833 236.908,73.399 260.213,32.899Z" style="fill:none;stroke:rgb(10,54,0);stroke-opacity:0.33;stroke-width:8.61px;"/>
                    </g>
                    <g transform="matrix(-0.973441,1.19212e-16,-1.1729e-16,-0.957749,-5897.16,7699.15)">
                        <path d="M260.213,32.899C262.984,28.084 268.116,25.116 273.672,25.116C279.228,25.116 284.36,28.084 287.131,32.899C310.992,74.365 360.75,160.838 387.953,208.111C391.824,214.839 391.815,223.12 387.929,229.839C384.044,236.558 376.87,240.696 369.109,240.696L182.118,240.696C173.555,240.696 165.641,236.131 161.353,228.717C157.066,221.304 157.056,212.167 161.327,204.745C188.897,156.833 236.908,73.399 260.213,32.899Z" style="fill:none;stroke:rgb(10,54,0);stroke-opacity:0.33;stroke-width:8.61px;"/>
                    </g>
                    <g transform="matrix(-0.973441,1.19212e-16,-1.1729e-16,-0.957749,-5598.01,7699.15)">
                        <path d="M260.213,32.899C262.984,28.084 268.116,25.116 273.672,25.116C279.228,25.116 284.36,28.084 287.131,32.899C310.992,74.365 360.75,160.838 387.953,208.111C391.824,214.839 391.815,223.12 387.929,229.839C384.044,236.558 376.87,240.696 369.109,240.696L182.118,240.696C173.555,240.696 165.641,236.131 161.353,228.717C157.066,221.304 157.056,212.167 161.327,204.745C188.897,156.833 236.908,73.399 260.213,32.899Z" style="fill:none;stroke:rgb(10,54,0);stroke-opacity:0.33;stroke-width:8.61px;"/>
                    </g>
                    <g transform="matrix(0.973441,-1.92176e-18,-1.92176e-18,0.957749,-6277.3,7558.87)">
                        <path d="M260.213,32.899C262.984,28.084 268.116,25.116 273.672,25.116C279.228,25.116 284.36,28.084 287.131,32.899C310.992,74.365 360.75,160.838 387.953,208.111C391.824,214.839 391.815,223.12 387.929,229.839C384.044,236.558 376.87,240.696 369.109,240.696L182.118,240.696C173.555,240.696 165.641,236.131 161.353,228.717C157.066,221.304 157.056,212.167 161.327,204.745C188.897,156.833 236.908,73.399 260.213,32.899Z" style="fill:none;stroke:rgb(10,54,0);stroke-opacity:0.33;stroke-width:8.61px;"/>
                    </g>
                </g>
                <g transform="matrix(11.2856,9.70782e-16,-1.34545e-16,11.2856,90127.8,-105323)">
                    <g transform="matrix(-0.973441,1.19212e-16,-1.1729e-16,-0.957749,-5282.2,7699.15)">
                        <path d="M260.213,32.899C262.984,28.084 268.116,25.116 273.672,25.116C279.228,25.116 284.36,28.084 287.131,32.899C310.992,74.365 360.75,160.838 387.953,208.111C391.824,214.839 391.815,223.12 387.929,229.839C384.044,236.558 376.87,240.696 369.109,240.696L182.118,240.696C173.555,240.696 165.641,236.131 161.353,228.717C157.066,221.304 157.056,212.167 161.327,204.745C188.897,156.833 236.908,73.399 260.213,32.899Z" style="fill:none;stroke:rgb(10,54,0);stroke-opacity:0.33;stroke-width:8.61px;"/>
                    </g>
                    <g transform="matrix(-0.973441,1.19212e-16,-1.1729e-16,-0.957749,-4983.04,7699.15)">
                        <path d="M260.213,32.899C262.984,28.084 268.116,25.116 273.672,25.116C279.228,25.116 284.36,28.084 287.131,32.899C310.992,74.365 360.75,160.838 387.953,208.111C391.824,214.839 391.815,223.12 387.929,229.839C384.044,236.558 376.87,240.696 369.109,240.696L182.118,240.696C173.555,240.696 165.641,236.131 161.353,228.717C157.066,221.304 157.056,212.167 161.327,204.745C188.897,156.833 236.908,73.399 260.213,32.899Z" style="fill:none;stroke:rgb(10,54,0);stroke-opacity:0.33;stroke-width:8.61px;"/>
                    </g>
                    <g transform="matrix(0.973441,-1.92176e-18,-1.92176e-18,0.957749,-5662.34,7558.87)">
                        <path d="M260.213,32.899C262.984,28.084 268.116,25.116 273.672,25.116C279.228,25.116 284.36,28.084 287.131,32.899C310.992,74.365 360.75,160.838 387.953,208.111C391.824,214.839 391.815,223.12 387.929,229.839C384.044,236.558 376.87,240.696 369.109,240.696L182.118,240.696C173.555,240.696 165.641,236.131 161.353,228.717C157.066,221.304 157.056,212.167 161.327,204.745C188.897,156.833 236.908,73.399 260.213,32.899Z" style="fill:none;stroke:rgb(10,54,0);stroke-opacity:0.33;stroke-width:8.61px;"/>
                    </g>
                    <g transform="matrix(0.973441,-1.92176e-18,-1.92176e-18,0.957749,-5356.2,7558.87)">
                        <path d="M260.213,32.899C262.984,28.084 268.116,25.116 273.672,25.116C279.228,25.116 284.36,28.084 287.131,32.899C310.992,74.365 360.75,160.838 387.953,208.111C391.824,214.839 391.815,223.12 387.929,229.839C384.044,236.558 376.87,240.696 369.109,240.696L182.118,240.696C173.555,240.696 165.641,236.131 161.353,228.717C157.066,221.304 157.056,212.167 161.327,204.745C188.897,156.833 236.908,73.399 260.213,32.899Z" style="fill:none;stroke:rgb(10,54,0);stroke-opacity:0.33;stroke-width:8.61px;"/>
                    </g>
                    <g transform="matrix(0.973441,-1.92176e-18,-1.92176e-18,0.957749,-6597.3,7558.87)">
                        <path d="M260.213,32.899C262.984,28.084 268.116,25.116 273.672,25.116C279.228,25.116 284.36,28.084 287.131,32.899C310.992,74.365 360.75,160.838 387.953,208.111C391.824,214.839 391.815,223.12 387.929,229.839C384.044,236.558 376.87,240.696 369.109,240.696L182.118,240.696C173.555,240.696 165.641,236.131 161.353,228.717C157.066,221.304 157.056,212.167 161.327,204.745C188.897,156.833 236.908,73.399 260.213,32.899Z" style="fill:none;stroke:rgb(10,54,0);stroke-opacity:0.33;stroke-width:8.61px;"/>
                    </g>
                    <g transform="matrix(0.973441,-1.92176e-18,-1.92176e-18,0.957749,-5974.5,7558.87)">
                        <path d="M260.213,32.899C262.984,28.084 268.116,25.116 273.672,25.116C279.228,25.116 284.36,28.084 287.131,32.899C310.992,74.365 360.75,160.838 387.953,208.111C391.824,214.839 391.815,223.12 387.929,229.839C384.044,236.558 376.87,240.696 369.109,240.696L182.118,240.696C173.555,240.696 165.641,236.131 161.353,228.717C157.066,221.304 157.056,212.167 161.327,204.745C188.897,156.833 236.908,73.399 260.213,32.899Z" style="fill:none;stroke:rgb(10,54,0);stroke-opacity:0.33;stroke-width:8.61px;"/>
                    </g>
                    <g transform="matrix(-0.973441,1.19212e-16,-1.1729e-16,-0.957749,-5897.16,7699.15)">
                        <path d="M260.213,32.899C262.984,28.084 268.116,25.116 273.672,25.116C279.228,25.116 284.36,28.084 287.131,32.899C310.992,74.365 360.75,160.838 387.953,208.111C391.824,214.839 391.815,223.12 387.929,229.839C384.044,236.558 376.87,240.696 369.109,240.696L182.118,240.696C173.555,240.696 165.641,236.131 161.353,228.717C157.066,221.304 157.056,212.167 161.327,204.745C188.897,156.833 236.908,73.399 260.213,32.899Z" style="fill:none;stroke:rgb(10,54,0);stroke-opacity:0.33;stroke-width:8.61px;"/>
                    </g>
                    <g transform="matrix(-0.973441,1.19212e-16,-1.1729e-16,-0.957749,-5598.01,7699.15)">
                        <path d="M260.213,32.899C262.984,28.084 268.116,25.116 273.672,25.116C279.228,25.116 284.36,28.084 287.131,32.899C310.992,74.365 360.75,160.838 387.953,208.111C391.824,214.839 391.815,223.12 387.929,229.839C384.044,236.558 376.87,240.696 369.109,240.696L182.118,240.696C173.555,240.696 165.641,236.131 161.353,228.717C157.066,221.304 157.056,212.167 161.327,204.745C188.897,156.833 236.908,73.399 260.213,32.899Z" style="fill:none;stroke:rgb(10,54,0);stroke-opacity:0.33;stroke-width:8.61px;"/>
                    </g>
                    <g transform="matrix(0.973441,-1.92176e-18,-1.92176e-18,0.957749,-6277.3,7558.87)">
                        <path d="M260.213,32.899C262.984,28.084 268.116,25.116 273.672,25.116C279.228,25.116 284.36,28.084 287.131,32.899C310.992,74.365 360.75,160.838 387.953,208.111C391.824,214.839 391.815,223.12 387.929,229.839C384.044,236.558 376.87,240.696 369.109,240.696L182.118,240.696C173.555,240.696 165.641,236.131 161.353,228.717C157.066,221.304 157.056,212.167 161.327,204.745C188.897,156.833 236.908,73.399 260.213,32.899Z" style="fill:none;stroke:rgb(10,54,0);stroke-opacity:0.33;stroke-width:8.61px;"/>
                    </g>
                </g>
            </g>
        </g>
    </g>
</svg>
