<?xml version="1.0" encoding="UTF-8" standalone="no"?>
<!DOCTYPE svg PUBLIC "-//W3C//DTD SVG 1.1//EN" "http://www.w3.org/Graphics/SVG/1.1/DTD/svg11.dtd">
<svg width="100%" height="100%" viewBox="0 0 595 591" version="1.1" xmlns="http://www.w3.org/2000/svg" xmlns:xlink="http://www.w3.org/1999/xlink" xml:space="preserve" xmlns:serif="http://www.serif.com/" style="fill-rule:evenodd;clip-rule:evenodd;stroke-linejoin:round;stroke-miterlimit:2;">
    <g transform="matrix(1,0,0,1,-178542,-127284)">
        <g id="Artboard2" transform="matrix(1.07564,0,0,1.13788,182208,120966)">
            <rect x="-3408.36" y="5551.99" width="552.708" height="518.772" style="fill:none;"/>
            <g transform="matrix(2.46001e-17,0.342649,-0.362475,2.94938e-17,-1207.7,6349.3)">
                <circle cx="-1569.89" cy="5306.15" r="747.652" style="fill:rgb(151,192,107);"/>
            </g>
            <g transform="matrix(210.184,-198.688,-210.184,-198.688,-3236.65,5929.2)">
                <path d="M0.861,0.36L0.839,0.445L0.753,0.431L0.698,0.499L0.625,0.451L0.547,0.491L0.5,0.417L0.413,0.422L0.399,0.336L0.317,0.305L0.34,0.22L0.278,0.159L0.334,0.091L0.302,0.01L0.38,-0.03L0.384,-0.117L0.472,-0.121L0.511,-0.199L0.592,-0.168L0.66,-0.223L0.722,-0.161L0.806,-0.184L0.837,-0.102L0.924,-0.089L0.919,-0.002L0.992,0.046L0.952,0.124L1,0.197L0.932,0.251L0.946,0.338L0.861,0.36ZM0.469,0.306C0.563,0.399 0.714,0.399 0.807,0.306C0.901,0.213 0.901,0.061 0.807,-0.032C0.714,-0.125 0.563,-0.125 0.469,-0.032C0.376,0.061 0.376,0.213 0.469,0.306ZM0.492,0.284C0.411,0.203 0.411,0.071 0.492,-0.01C0.573,-0.091 0.704,-0.091 0.785,-0.01C0.866,0.071 0.866,0.203 0.785,0.284C0.704,0.365 0.572,0.365 0.492,0.284ZM0.584,-0.201L0.495,-0.235L0.454,-0.15L0.439,-0.149L0.319,-0.418L0.452,-0.363L0.5,-0.499L0.621,-0.23L0.584,-0.201ZM-0,0.017L0.133,-0.039L0.071,-0.168L0.35,-0.061L0.349,-0.047L0.264,-0.005L0.298,0.085L0.269,0.12L-0,0.017Z" style="fill:white;fill-rule:nonzero;"/>
            </g>
        </g>
        <g id="_01" serif:id="01">
        </g>
        <g id="_011" serif:id="01">
        </g>
        <g id="_012" serif:id="01">
        </g>
        <g id="_013" serif:id="01">
        </g>
    </g>
</svg>
