<?xml version="1.0" encoding="UTF-8" standalone="no"?>
<!DOCTYPE svg PUBLIC "-//W3C//DTD SVG 1.1//EN" "http://www.w3.org/Graphics/SVG/1.1/DTD/svg11.dtd">
<svg width="100%" height="100%" viewBox="0 0 349 94" version="1.1" xmlns="http://www.w3.org/2000/svg" xmlns:xlink="http://www.w3.org/1999/xlink" xml:space="preserve" xmlns:serif="http://www.serif.com/" style="fill-rule:evenodd;clip-rule:evenodd;stroke-linecap:round;stroke-linejoin:round;stroke-miterlimit:10;">
    <g transform="matrix(1,0,0,1,-190320,-126315)">
        <g id="_01" serif:id="01">
        </g>
        <g id="_011" serif:id="01">
        </g>
        <g id="_012" serif:id="01">
        </g>
        <g id="_013" serif:id="01">
        </g>
        <g id="Artboard61" transform="matrix(1,0,0,1,-0.906424,-0.40938)">
            <rect x="190321" y="126315" width="348.422" height="93.428" style="fill:none;"/>
            <g transform="matrix(0.314372,0,0,0.285574,164412,114800)">
                <g transform="matrix(1,0,0,1.10084,-1.46803,-3993.94)">
                    <g transform="matrix(5.35879,0,0,5.35879,81946.5,34739.3)">
                        <path d="M124.773,1081.2C124.131,1082.38 122.87,1083.12 121.496,1083.12C120.121,1083.12 118.86,1082.38 118.218,1081.2L94.049,1036.83C93.563,1035.94 93.594,1034.86 94.131,1034C94.664,1033.14 95.62,1032.62 96.652,1032.62L146.245,1032.62C147.298,1032.62 148.273,1033.15 148.816,1034.03C149.362,1034.91 149.394,1036 148.899,1036.91L124.773,1081.2Z" style="fill:rgb(79,126,73);"/>
                    </g>
                    <g transform="matrix(-5.18846,-1.34031,-1.34031,5.18846,84593.7,35207.8)">
                        <path d="M113.001,1045.54L123.237,1045.54" style="fill:none;fill-rule:nonzero;stroke:white;stroke-width:1.22px;"/>
                    </g>
                    <g transform="matrix(-5.08551,1.68942,1.68942,5.08551,81494.2,34940.4)">
                        <path d="M120.751,1045.92L130.996,1045.92" style="fill:none;fill-rule:nonzero;stroke:white;stroke-width:1.24px;"/>
                    </g>
                    <g transform="matrix(-4.58184,2.77908,2.77908,4.58184,80334.4,35174.2)">
                        <path d="M128.834,1059.34L139.13,1059.34" style="fill:none;fill-rule:nonzero;stroke:white;stroke-width:1.25px;"/>
                    </g>
                    <g transform="matrix(-4.75514,-2.47088,-2.47088,4.75514,85660.8,35632.9)">
                        <path d="M103.345,1059.15L113.625,1059.15" style="fill:none;fill-rule:nonzero;stroke:white;stroke-width:1.22px;"/>
                    </g>
                    <g transform="matrix(0,-5.35879,-5.35879,0,88219.2,40935.8)">
                        <path d="M100.312,1064.96L110.822,1064.96" style="fill:none;fill-rule:nonzero;stroke:white;stroke-width:1.23px;"/>
                    </g>
                    <g transform="matrix(0,5.35879,5.35879,0,76973.8,39628.8)">
                        <path d="M132.416,1065.62L142.926,1065.62" style="fill:none;fill-rule:nonzero;stroke:white;stroke-width:1.23px;"/>
                    </g>
                    <g transform="matrix(0,-5.35879,-5.35879,0,88244.5,41083.7)">
                        <path d="M103.891,1053.53L139.571,1053.53" style="fill:none;fill-rule:nonzero;stroke:white;stroke-width:1.23px;"/>
                    </g>
                    <g transform="matrix(-4.60623,-2.73847,-2.73847,4.60623,86052.5,35693.7)">
                        <path d="M101.722,1074.1L132.014,1074.1" style="fill:none;fill-rule:nonzero;stroke:white;stroke-width:1.22px;"/>
                    </g>
                    <g transform="matrix(-4.59806,-2.75216,-2.75216,4.59806,86015.4,35780.3)">
                        <path d="M94.763,1065.67L133.413,1065.67" style="fill:none;fill-rule:nonzero;stroke:white;stroke-width:1.22px;"/>
                    </g>
                    <g transform="matrix(-4.55909,2.81625,2.81625,4.55909,80220.5,35146.7)">
                        <path d="M109.217,1065.58L147.882,1065.58" style="fill:none;fill-rule:nonzero;stroke:white;stroke-width:1.25px;"/>
                    </g>
                    <g transform="matrix(-4.55952,2.81555,2.81555,4.55952,80173.4,35074.4)">
                        <path d="M109.653,1073.56L142.314,1073.56" style="fill:none;fill-rule:nonzero;stroke:white;stroke-width:1.25px;"/>
                    </g>
                    <g transform="matrix(-4.60745,-2.73642,-2.73642,4.60745,86182,35708.1)">
                        <path d="M119.427,1075.98L139.677,1075.98" style="fill:none;fill-rule:nonzero;stroke:white;stroke-width:1.22px;"/>
                    </g>
                    <g transform="matrix(4.42707,-3.01954,-3.01954,-4.42707,85299.2,45416.2)">
                        <path d="M102.836,1075.46L123.12,1075.46" style="fill:none;fill-rule:nonzero;stroke:white;stroke-width:1.25px;"/>
                    </g>
                    <g transform="matrix(0,-5.35879,-5.35879,0,88293.5,40941.7)">
                        <path d="M107.792,1071.36L118.302,1071.36" style="fill:none;fill-rule:nonzero;stroke:white;stroke-width:1.23px;"/>
                    </g>
                    <g transform="matrix(0,-5.35879,-5.35879,0,88245.7,40996.8)">
                        <path d="M108.477,1061.75L118.997,1061.75" style="fill:none;fill-rule:nonzero;stroke:white;stroke-width:1.23px;"/>
                    </g>
                    <g transform="matrix(0,-5.35879,-5.35879,0,88186.4,41053.3)">
                        <path d="M108.204,1050.95L118.724,1050.95" style="fill:none;fill-rule:nonzero;stroke:white;stroke-width:1.23px;"/>
                    </g>
                    <g transform="matrix(0,-5.35879,-5.35879,0,88379.1,41039.2)">
                        <path d="M124.888,1070.25L135.398,1070.25" style="fill:none;fill-rule:nonzero;stroke:white;stroke-width:1.23px;"/>
                    </g>
                    <g transform="matrix(0,-5.35879,-5.35879,0,88325,41082.8)">
                        <path d="M123.9,1061.13L134.42,1061.13" style="fill:none;fill-rule:nonzero;stroke:white;stroke-width:1.23px;"/>
                    </g>
                    <g transform="matrix(0,-5.35879,-5.35879,0,88275.4,41136.1)">
                        <path d="M124.252,1051.53L134.762,1051.53" style="fill:none;fill-rule:nonzero;stroke:white;stroke-width:1.23px;"/>
                    </g>
                    <g transform="matrix(-5.35879,0,0,5.35879,83248.7,34990.4)">
                        <ellipse cx="121.497" cy="1034.43" rx="2.987" ry="2.985" style="fill:rgb(187,213,132);"/>
                    </g>
                    <g transform="matrix(-5.35879,0,0,5.35879,83252.9,34885.7)">
                        <ellipse cx="121.894" cy="1044.2" rx="2.987" ry="2.985" style="fill:white;"/>
                    </g>
                    <g transform="matrix(-5.35879,0,0,5.35879,83163.8,34754.6)">
                        <ellipse cx="113.577" cy="1056.44" rx="2.987" ry="2.99" style="fill:white;"/>
                    </g>
                    <g transform="matrix(-5.35879,0,0,5.35879,83159.5,34858.7)">
                        <ellipse cx="113.175" cy="1046.72" rx="2.987" ry="2.985" style="fill:white;"/>
                    </g>
                    <g transform="matrix(-5.35879,0,0,5.35879,83159.5,34647.9)">
                        <ellipse cx="113.175" cy="1066.39" rx="2.987" ry="2.985" style="fill:white;"/>
                    </g>
                    <g transform="matrix(-5.35879,0,0,5.35879,83159.5,34544.6)">
                        <ellipse cx="113.175" cy="1076.04" rx="2.987" ry="2.985" style="fill:rgb(187,213,132);"/>
                    </g>
                    <g transform="matrix(-5.35879,0,0,5.35879,83333.8,34751.1)">
                        <ellipse cx="129.442" cy="1056.76" rx="2.987" ry="2.99" style="fill:white;"/>
                    </g>
                    <g transform="matrix(-5.35879,0,0,5.35879,83338.8,34854.9)">
                        <ellipse cx="129.907" cy="1047.08" rx="2.987" ry="2.985" style="fill:rgb(187,213,132);"/>
                    </g>
                    <g transform="matrix(-5.35879,0,0,5.35879,83338.8,34647.9)">
                        <ellipse cx="129.907" cy="1066.39" rx="2.987" ry="2.985" style="fill:white;"/>
                    </g>
                    <g transform="matrix(-5.35879,0,0,5.35879,83338.8,34544.6)">
                        <ellipse cx="129.907" cy="1076.04" rx="2.987" ry="2.985" style="fill:white;"/>
                    </g>
                    <g transform="matrix(-5.35879,0,0,5.35879,83248.7,34488)">
                        <ellipse cx="121.497" cy="1081.32" rx="2.987" ry="2.985" style="fill:rgb(187,213,132);"/>
                    </g>
                    <g transform="matrix(-5.35879,0,0,5.35879,83425.5,34705.9)">
                        <ellipse cx="137.995" cy="1060.99" rx="2.987" ry="2.985" style="fill:white;"/>
                    </g>
                    <g transform="matrix(-5.35879,0,0,5.35879,83075.5,34705.9)">
                        <ellipse cx="105.336" cy="1060.99" rx="2.987" ry="2.985" style="fill:rgb(187,213,132);"/>
                    </g>
                    <g transform="matrix(-5.35879,0,0,5.35879,83075.5,34600)">
                        <ellipse cx="105.336" cy="1070.86" rx="2.987" ry="2.99" style="fill:white;"/>
                    </g>
                    <g transform="matrix(-5.35879,0,0,5.35879,83075.5,34488)">
                        <ellipse cx="105.336" cy="1081.32" rx="2.987" ry="2.985" style="fill:white;"/>
                    </g>
                    <g transform="matrix(-5.35879,0,0,5.35879,83425.5,34488)">
                        <ellipse cx="137.995" cy="1081.32" rx="2.987" ry="2.985" style="fill:rgb(187,213,132);"/>
                    </g>
                    <g transform="matrix(-5.35879,0,0,5.35879,83506.1,34544.6)">
                        <ellipse cx="145.513" cy="1076.04" rx="2.987" ry="2.985" style="fill:white;"/>
                    </g>
                    <g transform="matrix(-5.35879,0,0,5.35879,82986.4,34544.6)">
                        <ellipse cx="97.024" cy="1076.04" rx="2.987" ry="2.985" style="fill:rgb(187,213,132);"/>
                    </g>
                    <g transform="matrix(-5.35879,0,0,5.35879,83425.5,34600)">
                        <ellipse cx="137.995" cy="1070.86" rx="2.987" ry="2.99" style="fill:rgb(187,213,132);"/>
                    </g>
                    <g transform="matrix(-5.35879,0,0,5.35879,83248.7,34812.7)">
                        <ellipse cx="121.497" cy="1051.02" rx="2.987" ry="2.99" style="fill:rgb(187,213,132);"/>
                    </g>
                    <g transform="matrix(-5.35879,0,0,5.35879,83248.7,34705.9)">
                        <ellipse cx="121.497" cy="1060.99" rx="2.987" ry="2.985" style="fill:rgb(187,213,132);"/>
                    </g>
                    <g transform="matrix(-5.35879,0,0,5.35879,83248.7,34600)">
                        <ellipse cx="121.497" cy="1070.86" rx="2.987" ry="2.99" style="fill:white;"/>
                    </g>
                </g>
                <g transform="matrix(5.35879,0,0,5.89917,82325.2,39703.4)">
                    <g transform="matrix(57.0146,0,0,57.0146,220.867,154.19)">
                    </g>
                    <text x="94.009px" y="154.19px" style="font-family:'Comfortaa-Regular', 'Comfortaa';font-size:57.015px;fill:white;">E<tspan x="135.744px 180.785px " y="154.19px 154.19px ">DA</tspan></text>
                </g>
                <g transform="matrix(0.490897,0,0,0.66221,42306.4,13343.1)">
                    <path d="M82476.4,40780C82476.4,40778.7 82475.1,40777.6 82473.5,40777.6L82467.8,40777.6C82466.2,40777.6 82464.9,40778.7 82464.9,40780L82464.9,41210.7C82464.9,41212 82466.2,41213.1 82467.8,41213.1L82473.5,41213.1C82475.1,41213.1 82476.4,41212 82476.4,41210.7L82476.4,40780Z" style="fill:white;"/>
                </g>
            </g>
        </g>
    </g>
</svg>
