<?xml version="1.0" encoding="UTF-8" standalone="no"?>
<!DOCTYPE svg PUBLIC "-//W3C//DTD SVG 1.1//EN" "http://www.w3.org/Graphics/SVG/1.1/DTD/svg11.dtd">
<svg width="100%" height="100%" viewBox="0 0 595 591" version="1.1" xmlns="http://www.w3.org/2000/svg" xmlns:xlink="http://www.w3.org/1999/xlink" xml:space="preserve" xmlns:serif="http://www.serif.com/" style="fill-rule:evenodd;clip-rule:evenodd;stroke-linecap:round;stroke-linejoin:round;stroke-miterlimit:1.5;">
    <g transform="matrix(1,0,0,1,-180393,-127275)">
        <g id="Artboard2" transform="matrix(1.07564,0,0,1.13788,184060,120957)">
            <rect x="-3408.36" y="5551.99" width="552.708" height="518.772" style="fill:none;"/>
            <g transform="matrix(2.46001e-17,0.342649,-0.362475,2.94938e-17,-1207.7,6349.3)">
                <circle cx="-1569.89" cy="5306.15" r="747.652" style="fill:rgb(151,192,107);"/>
            </g>
            <g transform="matrix(1.42464,0,0,1.38307,-3798.94,112.304)">
                <g transform="matrix(1,0,0,1,63.9119,3.8806)">
                    <g transform="matrix(8.36647e-17,1.36635,-1.40638,8.6116e-17,6104.93,3558.62)">
                        <path d="M340.064,4064.21C340.064,4064.21 353.312,4077.56 370.308,4084.94C384.142,4090.95 401.224,4090.25 409.221,4090.55C417.74,4090.87 433.223,4089.09 445.585,4083.82C462.718,4076.52 475.711,4064.11 475.711,4064.11" style="fill:none;stroke:white;stroke-width:8.33px;"/>
                    </g>
                    <g transform="matrix(8.18986e-17,1.36635,1.5453,-9.66411e-17,-5860.18,3558.92)">
                        <path d="M340.064,4064.21C340.064,4064.21 353.312,4077.56 370.308,4084.94C384.142,4090.95 401.224,4090.25 409.221,4090.55C417.74,4090.87 433.223,4089.09 445.585,4083.82C462.718,4076.52 475.711,4064.11 475.711,4064.11" style="fill:none;stroke:white;stroke-width:8.33px;"/>
                    </g>
                    <g transform="matrix(-1.42693,1.74749e-16,-1.20626e-16,-0.984989,986.445,8192.66)">
                        <path d="M354.337,4078.49C354.337,4078.49 391.388,4090.55 409.221,4090.55C427.054,4090.55 461.335,4078.49 461.335,4078.49" style="fill:none;stroke:white;stroke-width:8.33px;"/>
                    </g>
                    <g transform="matrix(1.42693,-1.42773e-32,2.46519e-32,0.984989,-177.464,48.013)">
                        <path d="M354.337,4078.49C354.337,4078.49 391.388,4090.55 409.221,4090.55C427.054,4090.55 461.335,4078.49 461.335,4078.49" style="fill:none;stroke:white;stroke-width:8.33px;"/>
                    </g>
                    <g transform="matrix(1.30097,0,0,1.34711,-125.184,-1437.42)">
                        <path d="M407.552,4054.04L407.552,4194.07" style="fill:none;stroke:white;stroke-width:8.33px;"/>
                    </g>
                    <g transform="matrix(7.96612e-17,1.30097,-1.30097,7.96612e-17,5769.48,3589.97)">
                        <path d="M407.552,4054.04L407.552,4194.07" style="fill:none;stroke:white;stroke-width:8.33px;"/>
                    </g>
                </g>
                <g transform="matrix(0.924939,0,0,0.924939,96.933,343.39)">
                    <circle cx="401.33" cy="4083.71" r="103.279" style="fill:none;stroke:white;stroke-width:12.5px;"/>
                </g>
            </g>
        </g>
        <g id="_01" serif:id="01">
        </g>
        <g id="_011" serif:id="01">
        </g>
        <g id="_012" serif:id="01">
        </g>
        <g id="_013" serif:id="01">
        </g>
    </g>
</svg>
