<?xml version="1.0" encoding="UTF-8" standalone="no"?>
<!DOCTYPE svg PUBLIC "-//W3C//DTD SVG 1.1//EN" "http://www.w3.org/Graphics/SVG/1.1/DTD/svg11.dtd">
<svg width="100%" height="100%" viewBox="0 0 595 591" version="1.1" xmlns="http://www.w3.org/2000/svg" xmlns:xlink="http://www.w3.org/1999/xlink" xml:space="preserve" xmlns:serif="http://www.serif.com/" style="fill-rule:evenodd;clip-rule:evenodd;stroke-linejoin:round;stroke-miterlimit:2;">
    <g transform="matrix(1,0,0,1,-177932,-127275)">
        <g id="Artboard2" transform="matrix(1.07564,0,0,1.13788,181598,120957)">
            <rect x="-3408.36" y="5551.99" width="552.708" height="518.772" style="fill:none;"/>
            <g transform="matrix(2.46001e-17,0.342649,-0.362475,2.94938e-17,-1207.7,6349.3)">
                <circle cx="-1569.89" cy="5306.15" r="747.652" style="fill:rgb(151,192,107);"/>
            </g>
            <g transform="matrix(176.178,-166.542,-176.178,-166.542,-3224.42,5864.62)">
                <path d="M0.914,-0.128C0.878,-0.115 0.851,-0.091 0.834,-0.056C0.825,-0.036 0.815,-0.017 0.803,0.001C0.781,0.03 0.757,0.058 0.734,0.086C0.719,0.104 0.7,0.113 0.677,0.114C0.59,0.117 0.502,0.12 0.414,0.123C0.39,0.124 0.376,0.106 0.381,0.083C0.392,0.035 0.422,0.005 0.469,-0.005C0.514,-0.015 0.559,-0.024 0.604,-0.032C0.627,-0.037 0.635,-0.046 0.637,-0.07C0.644,-0.191 0.651,-0.311 0.658,-0.432C0.658,-0.436 0.659,-0.439 0.659,-0.444C0.739,-0.455 0.819,-0.465 0.899,-0.475C0.933,-0.371 0.966,-0.267 1,-0.162C0.971,-0.15 0.943,-0.138 0.914,-0.128ZM0.049,0.374C0.058,0.316 0.066,0.259 0.075,0.199C0.081,0.2 0.087,0.201 0.092,0.201C0.12,0.201 0.149,0.201 0.177,0.201C0.225,0.2 0.256,0.169 0.256,0.121C0.256,0.102 0.249,0.085 0.238,0.07C0.279,0.038 0.283,-0 0.262,-0.044C0.303,-0.064 0.32,-0.116 0.293,-0.163C0.294,-0.164 0.294,-0.165 0.296,-0.166C0.326,-0.185 0.337,-0.222 0.326,-0.254C0.316,-0.286 0.287,-0.305 0.25,-0.305C0.218,-0.305 0.186,-0.305 0.154,-0.305C0.151,-0.305 0.148,-0.305 0.145,-0.305C0.142,-0.329 0.147,-0.349 0.165,-0.365C0.19,-0.387 0.224,-0.38 0.237,-0.349C0.238,-0.347 0.239,-0.346 0.24,-0.343C0.244,-0.379 0.256,-0.398 0.279,-0.404C0.311,-0.412 0.333,-0.399 0.349,-0.372C0.357,-0.418 0.368,-0.437 0.395,-0.443C0.433,-0.453 0.459,-0.435 0.476,-0.401C0.478,-0.406 0.479,-0.411 0.48,-0.415C0.491,-0.45 0.524,-0.47 0.558,-0.463C0.598,-0.456 0.625,-0.425 0.622,-0.388C0.616,-0.284 0.61,-0.18 0.604,-0.076C0.603,-0.069 0.601,-0.066 0.594,-0.064C0.551,-0.056 0.507,-0.047 0.464,-0.038C0.403,-0.026 0.358,0.02 0.348,0.079C0.341,0.123 0.371,0.158 0.416,0.156C0.459,0.155 0.502,0.153 0.546,0.152C0.575,0.151 0.605,0.15 0.636,0.149C0.636,0.165 0.633,0.181 0.623,0.193C0.614,0.205 0.602,0.216 0.59,0.226C0.551,0.259 0.512,0.291 0.464,0.313C0.441,0.324 0.423,0.341 0.41,0.364C0.401,0.381 0.394,0.399 0.386,0.417C0.378,0.436 0.37,0.456 0.362,0.475C0.257,0.442 0.153,0.408 0.049,0.374ZM0.18,0.17C0.135,0.17 0.091,0.17 0.047,0.17C0.026,0.17 0.012,0.16 0.004,0.142C-0.004,0.124 0,0.101 0.014,0.088C0.023,0.079 0.034,0.075 0.047,0.075C0.091,0.075 0.135,0.075 0.179,0.075C0.207,0.075 0.225,0.094 0.226,0.122C0.226,0.136 0.221,0.149 0.212,0.157C0.204,0.165 0.193,0.17 0.18,0.17ZM0.199,0.049C0.154,0.05 0.109,0.05 0.064,0.05C0.044,0.049 0.03,0.04 0.022,0.021C0.014,0.004 0.018,-0.019 0.031,-0.032C0.031,-0.033 0.051,-0.045 0.061,-0.045C0.108,-0.046 0.155,-0.046 0.201,-0.046C0.226,-0.045 0.244,-0.023 0.243,0.003C0.243,0.017 0.238,0.029 0.23,0.037C0.222,0.045 0.212,0.049 0.199,0.049ZM0.23,-0.068C0.185,-0.068 0.141,-0.068 0.096,-0.068C0.069,-0.068 0.05,-0.088 0.05,-0.115C0.05,-0.143 0.068,-0.163 0.095,-0.164C0.14,-0.164 0.186,-0.164 0.231,-0.164C0.251,-0.163 0.266,-0.153 0.272,-0.134C0.279,-0.115 0.277,-0.097 0.262,-0.082C0.262,-0.081 0.262,-0.081 0.262,-0.081C0.253,-0.072 0.242,-0.068 0.23,-0.068ZM0.254,-0.185C0.242,-0.184 0.231,-0.185 0.219,-0.185C0.186,-0.185 0.152,-0.184 0.118,-0.185C0.099,-0.185 0.085,-0.196 0.078,-0.214C0.071,-0.232 0.076,-0.248 0.086,-0.259C0.098,-0.271 0.109,-0.274 0.122,-0.274C0.166,-0.274 0.209,-0.274 0.252,-0.274C0.28,-0.274 0.3,-0.255 0.3,-0.23C0.3,-0.217 0.295,-0.206 0.287,-0.198C0.279,-0.19 0.267,-0.185 0.254,-0.185Z" style="fill:white;fill-rule:nonzero;"/>
            </g>
        </g>
        <g id="_01" serif:id="01">
        </g>
        <g id="_011" serif:id="01">
        </g>
        <g id="_012" serif:id="01">
        </g>
        <g id="_013" serif:id="01">
        </g>
    </g>
</svg>
