<?xml version="1.0" encoding="UTF-8" standalone="no"?>
<!DOCTYPE svg PUBLIC "-//W3C//DTD SVG 1.1//EN" "http://www.w3.org/Graphics/SVG/1.1/DTD/svg11.dtd">
<svg width="100%" height="100%" viewBox="0 0 546 795" version="1.1" xmlns="http://www.w3.org/2000/svg" xmlns:xlink="http://www.w3.org/1999/xlink" xml:space="preserve" xmlns:serif="http://www.serif.com/" style="fill-rule:evenodd;clip-rule:evenodd;stroke-linejoin:round;stroke-miterlimit:2;">
    <g transform="matrix(1,0,0,1,-191566,-117811)">
        <g id="_01" serif:id="01">
        </g>
        <g id="_011" serif:id="01">
        </g>
        <g id="_012" serif:id="01">
        </g>
        <g id="_013" serif:id="01">
        </g>
        <g id="Artboard62" transform="matrix(0.383743,0,0,0.946529,119358,6341.07)">
            <rect x="188167" y="117767" width="1420.3" height="839.121" style="fill:none;"/>
            <g transform="matrix(11.4028,0,0,4.62294,175838,113384)">
                <g transform="matrix(0.0645646,0,0,0.0693878,-345.227,-762.185)">
                    <g transform="matrix(5.99952,0,0,5.99952,22193.8,24669.7)">
                        <path d="M290.601,291.351C288.49,303.375 288.867,307.095 281.351,327.205C276.964,338.954 270.279,350.432 262.988,360.29C254.97,371.128 245.88,381.108 230.306,392.296C215.925,402.624 199.085,410.7 177.607,415.63C153.126,421.246 122.205,420.99 92.358,409.038C71.337,400.624 56.085,389.833 40.841,374.537C21.8,355.429 4.956,325.01 1.108,291.455C11.032,307.035 27.464,324.412 42.54,335.111C57.518,345.737 73.103,354.64 94.626,361.016C116.695,367.552 131.216,368.512 145.404,368.512C181.956,368.512 211.386,357.859 233.82,345.033C260.152,329.973 279.328,308.84 290.601,291.351Z" style="fill:white;fill-rule:nonzero;"/>
                    </g>
                    <g transform="matrix(5.99952,0,0,5.99952,22193.8,24669.7)">
                        <path d="M265.171,258.076C262.738,264.356 258.933,269.176 252.943,273.802C244.941,279.98 235.519,281.399 223.468,279.98C214.302,278.902 205.38,277.265 197.621,273.811C187.214,269.18 182.472,266.824 173.968,260.535C169.257,256.352 163.626,252.237 159.308,247.376C167.369,239.694 177.951,232.1 190.023,225.476C209.374,214.863 213.374,213.607 224.415,210.873C240.048,207.767 251.517,213.681 259.256,222.42C266.816,230.961 270.134,245.266 265.171,258.076ZM146.103,165.477C143.681,165.477 139.052,160.475 136.14,153.996C134.113,149.486 133.466,143.859 134.818,139.403C136.372,134.264 140.222,131.093 145.415,130.963C150.816,130.828 154.263,134.34 156.29,139.133C157.374,141.699 157.206,150.451 155.007,154.898C152.859,159.247 148.339,165.477 146.103,165.477ZM107.388,270.269C93.225,278.808 76.687,285.403 57.876,284.335C36.505,283.119 28.13,267.414 26.073,261.243C23.845,254.559 23.452,244.942 25.768,238.456C28.302,231.367 32.317,225.041 39.138,220.428C46.024,215.768 50.708,214.461 57.876,214.046C64.651,213.655 81.302,217.392 96.261,224.613C115.841,234.066 136.121,247.296 136.66,248.377C127.033,257.652 118.89,263.335 107.388,270.269ZM287.298,234.506C281.251,206.601 256.134,193.182 236.13,193.942C208.775,194.981 177.849,213.265 155.038,231.35C153.787,228.731 149.183,207.374 149.904,185.45C149.921,184.917 152.902,183.326 152.904,182.77C161.898,172.305 169.999,164.873 171.515,149.429C172.49,139.495 168.714,130.895 162.855,124.26C160.169,121.725 154.513,117.146 145.562,117.146C138.828,117.346 134.218,119.147 129.156,123.374C124.636,127.146 116.32,139.601 121.845,157.567C124.732,166.954 131.031,178.215 137.753,184.101C134.341,201.348 134.138,214.958 136.683,229.22C136.773,230.961 132.818,228.381 132.085,227.958C118.226,219.893 104.021,211.471 88.378,205.275C70.466,198.176 52.911,195.005 36.302,201.386C22.628,206.639 8.45,219.617 4.298,238.793C0.927,254.355 6.099,270.35 12.669,279.037C28.708,300.238 50.653,303.26 72.257,299.022C98.425,293.884 123.048,280.714 138.189,266.612C138.732,266.697 138.808,266.633 138.722,267.558C137.634,279.07 136.697,287.449 133.423,297.767C129.787,301.906 124.318,302.813 120.468,304.59C106.052,311.246 93.358,318.402 80.192,339.469C76.546,348.179 78.62,352.08 85.573,344.143C91.919,338.725 95.958,334.927 102.134,331.433C116.228,323.46 125.734,320.596 133.124,319.482C133.997,325.887 135.037,329.624 135.507,332.857C137.583,347.096 149.331,361.275 153.003,362.727C152.185,352.703 151.062,345.441 151.628,337.646C152.39,327.117 153.556,322.767 155.408,317.862C161.001,317.338 171.98,319.012 182.654,322.621C194.775,326.716 207.468,334.267 213.542,339.94C216.431,342.469 220.937,345.309 225.292,344.6C218.101,329.713 206.456,318.875 199.464,314.011C188.214,306.182 183.361,304.965 174.044,301.723C169.474,300.129 163.783,300.036 157.503,297.243C157.568,292.833 158.378,275.659 158.103,268.528C158.415,268.611 171.173,277.951 176.882,281.196C188.603,287.863 197.746,290.656 209.564,293.754C231.708,299.562 250.308,297.813 264.894,288.362C271.624,283.998 277.658,277.931 282.007,270.004C287.681,259.671 290.109,247.448 287.298,234.506ZM103.056,195.077C109.593,197.651 114.697,200.171 122.697,204.857C123.58,205.377 124.958,205.106 124.765,204.687C121.517,185.593 114.193,184.081 106.587,167.254C99.368,151.285 100.871,131.047 109.33,118.485C117.279,106.682 130.849,98.737 144.884,98.823C158.445,98.904 170.23,102.835 179.853,115.23C189.712,127.922 190.523,143.859 186.201,161.819C180.183,177.251 180.001,171.347 167.962,192.147C164.949,199.367 164.324,204.613 164.324,206.777C177.312,197.712 184.956,195.57 190.929,189.773C199.412,181.538 201.236,172.644 203.894,161.279C207.652,145.195 201.798,117.222 188.363,103.617C178.095,93.222 168.279,86.324 145.419,86.332C125.609,86.332 111.087,94.4 100.72,106.049C90.862,117.121 86.655,134.128 86.626,150.839C86.604,161.761 89.517,171.648 95.417,186.16C96.675,189.256 97.321,192.819 103.056,195.077Z" style="fill:white;fill-rule:nonzero;"/>
                    </g>
                    <g transform="matrix(5.99952,0,0,5.99952,22193.8,24669.7)">
                        <path d="M18.495,146.823L31.03,147.173L31.046,146.63C31.116,144.031 30.716,142.137 29.843,140.95C28.968,139.766 26.401,139.107 24.335,139.05C20.587,138.949 18.653,141.082 18.532,145.447L18.495,146.823ZM1.768,168.043C1.768,168.043 1.28,167.206 0.475,156.74C-0.438,144.833 0.245,142.809 0.245,142.809C0.77,133.668 3.292,128.645 8.2,124.066C13.112,119.488 20.04,117.329 26.794,117.516C31.095,117.63 35.132,118.812 38.896,121.056C42.663,123.3 45.548,126.521 47.554,130.713C49.561,134.9 50.017,139.811 49.858,145.671C49.858,145.671 49.856,151.777 50.308,156.194C50.944,162.392 52.544,169.373 52.544,169.373L1.768,168.043Z" style="fill:white;fill-rule:nonzero;"/>
                    </g>
                    <g transform="matrix(5.99952,0,0,5.99952,22193.8,24669.7)">
                        <path d="M62.991,77.063L73.671,83.125C66.513,91.861 65.6,93.484 62.122,99.528C57.081,108.294 54.011,118.397 54.011,118.397L9.893,94.057C9.893,94.057 13.499,84.49 18.505,75.727C25.827,62.907 29.747,58.474 29.747,58.474L41.462,64.957C41.462,64.957 39.587,67.176 35.282,73.598C31.173,79.74 30.821,80.908 30.821,80.908L36.229,83.862C36.229,83.862 35.975,84.043 39.604,78.428C43.233,72.811 43.536,72.895 43.536,72.895L53.85,78.596C53.85,78.596 52.143,80.811 50.003,83.996C47.862,87.187 46.608,89.513 46.608,89.513L52.028,92.577C52.028,92.577 53.347,90.04 56.788,85.01C60.14,80.117 62.991,77.063 62.991,77.063Z" style="fill:white;fill-rule:nonzero;"/>
                    </g>
                    <g transform="matrix(5.99952,0,0,5.99952,22193.8,24669.7)">
                        <path d="M175.296,42.252L174.105,54.542C174.105,54.542 168.029,52.297 154.652,50.775C143.962,49.559 133.865,51.209 133.865,51.209L138.107,0.953C138.107,0.953 148.453,0.176 158.497,1.18C172.687,2.601 178.816,4.358 178.816,4.358L177.581,17.693C177.581,17.693 174.005,16.704 167.183,15.633C160.162,14.533 158.773,14.556 158.773,14.556L158.257,20.774C158.257,20.774 158.396,20.711 164.619,21.542C167.822,21.97 171.302,22.723 171.302,22.723L170.222,34.539C170.222,34.539 167.757,33.972 163.855,33.346C160.06,32.74 157.263,32.563 157.263,32.563L156.667,38.758C156.667,38.758 158.986,38.865 165.158,39.908C170.158,40.75 175.296,42.252 175.296,42.252Z" style="fill:white;fill-rule:nonzero;"/>
                    </g>
                    <g transform="matrix(5.99952,0,0,5.99952,22193.8,24669.7)">
                        <path d="M246.64,106.583L236.142,113.077C236.142,113.077 234.562,107.197 227.306,95.322C221.695,86.14 214.372,79.043 214.372,79.043L256.923,51.974C256.923,51.974 263.814,59.734 269.093,68.336C276.816,80.92 278.91,86.384 278.91,86.384L267.587,93.534C267.587,93.534 266.519,90.807 262.89,83.979C259.553,77.699 258.626,76.659 258.626,76.659L253.359,80.014C253.359,80.014 253.535,80.123 256.665,85.562C258.13,88.097 259.751,91.523 259.751,91.523L249.658,97.875C249.658,97.875 248.621,95.571 246.744,92.081C244.929,88.7 243.382,86.361 243.382,86.361L238.089,89.642C238.089,89.642 239.513,91.72 242.417,97.265C245.287,102.731 246.64,106.583 246.64,106.583Z" style="fill:white;fill-rule:nonzero;"/>
                    </g>
                    <g transform="matrix(5.99952,0,0,5.99952,22193.8,24669.7)">
                        <path d="M76.786,79.899L52.349,34.792C52.349,34.792 54.759,32.605 60.2,28.602C65.62,24.611 68.64,22.866 68.64,22.866L82.983,28.751L85.892,13.522C85.892,13.522 89.739,11.942 94.501,10.029C99.413,8.055 104.73,6.585 104.73,6.585L128.884,51.959C128.884,51.959 124.331,52.521 117.896,54.544C111.497,56.548 107.869,58.29 107.869,58.29L96.37,36.834L94.216,49.661L81.929,44.541L93.382,66.047C93.382,66.047 88.608,69.378 84.706,72.484C81.282,75.204 76.786,79.899 76.786,79.899Z" style="fill:white;fill-rule:nonzero;"/>
                    </g>
                    <g transform="matrix(5.99952,0,0,5.99952,22193.8,24669.7)">
                        <path d="M189.587,30.357L200.566,11.362C200.566,11.362 210.435,15.195 220.417,21.14C230.886,27.373 237.913,33.426 237.913,33.426L226.839,52.465C226.839,52.465 226.281,51.817 222.861,49.091C219.546,46.454 218.197,45.714 218.197,45.714L204.187,70.09C204.187,70.09 199.269,66.436 195.339,64.048C191.412,61.661 185.683,58.914 185.683,58.914L199.691,34.653C199.691,34.653 200.21,34.814 194.617,32.423C189.019,30.036 189.587,30.357 189.587,30.357Z" style="fill:white;fill-rule:nonzero;"/>
                    </g>
                    <g transform="matrix(5.99952,0,0,5.99952,22193.8,24669.7)">
                        <path d="M280.363,137.627L270.976,138.122L271.007,138.728C271.212,142.601 272.843,144.459 275.88,144.296C277.162,144.23 278.265,143.776 279.187,142.936C280.113,142.098 280.529,140.765 280.433,138.934L280.363,137.627ZM288.464,115.638C288.464,115.638 290.154,123.029 291.099,132.922C292.052,142.885 291.605,147.321 291.605,147.321C291.896,152.834 290.734,157.238 288.126,160.537C285.515,163.832 281.453,165.645 277.285,165.863C272.681,166.108 269.347,164.199 266.552,160.636C260.831,166.209 252.322,170.68 238.425,172.645C238.425,172.645 239.757,168.178 240.874,160.96C242.06,153.336 241.958,149.168 241.958,149.168C248.083,148.436 252.798,147.266 255.66,145.674C258.517,144.08 259.868,141.763 259.708,138.718L241.671,139.673C241.671,139.673 241.788,136.092 240.318,128.521C238.683,120.05 237.851,118.33 237.851,118.33L288.464,115.638Z" style="fill:white;fill-rule:nonzero;"/>
                    </g>
                </g>
            </g>
        </g>
    </g>
</svg>
