<?xml version="1.0" encoding="UTF-8" standalone="no"?>
<!DOCTYPE svg PUBLIC "-//W3C//DTD SVG 1.1//EN" "http://www.w3.org/Graphics/SVG/1.1/DTD/svg11.dtd">
<svg width="100%" height="100%" viewBox="0 0 1095 772" version="1.1" xmlns="http://www.w3.org/2000/svg" xmlns:xlink="http://www.w3.org/1999/xlink" xml:space="preserve" xmlns:serif="http://www.serif.com/" style="fill-rule:evenodd;clip-rule:evenodd;stroke-linejoin:round;stroke-miterlimit:2;">
    <g transform="matrix(1,0,0,1,-189986,-117834)">
        <g id="_01" serif:id="01">
        </g>
        <g id="_011" serif:id="01">
        </g>
        <g id="_012" serif:id="01">
        </g>
        <g id="_013" serif:id="01">
        </g>
        <g id="Artboard62" transform="matrix(0.770944,0,0,0.919311,44919.6,9569.36)">
            <rect x="188167" y="117767" width="1420.3" height="839.121" style="fill:none;"/>
            <g transform="matrix(5.67583,0,0,4.75981,184079,113229)">
                <g transform="matrix(1.64501,0,0,1.45581,-620.458,640.06)">
                    <g transform="matrix(1.93643,0,0,2.10822,817.711,222.6)">
                        <path d="M28.466,42.354L30.634,42.354L30.634,43.011L29.271,43.011L29.271,43.822L30.544,43.822L30.544,44.475L29.271,44.475L29.271,45.9L28.466,45.9L28.466,42.354Z" style="fill:white;fill-rule:nonzero;"/>
                    </g>
                    <g transform="matrix(1.93643,0,0,2.10822,817.711,222.6)">
                        <path d="M31.918,44.611C31.918,45.053 32.103,45.384 32.445,45.384C32.755,45.384 32.955,45.075 32.955,44.611C32.955,44.228 32.807,43.837 32.445,43.837C32.061,43.837 31.918,44.232 31.918,44.611ZM33.782,44.585C33.782,45.527 33.113,45.958 32.423,45.958C31.671,45.958 31.092,45.463 31.092,44.631C31.092,43.801 31.639,43.269 32.465,43.269C33.254,43.269 33.782,43.812 33.782,44.585Z" style="fill:white;fill-rule:nonzero;"/>
                    </g>
                    <g transform="matrix(1.93643,0,0,2.10822,817.711,222.6)">
                        <path d="M34.303,44.174C34.303,43.795 34.293,43.548 34.282,43.328L34.971,43.328L34.998,43.801L35.018,43.801C35.15,43.427 35.466,43.269 35.713,43.269C35.788,43.269 35.824,43.269 35.881,43.281L35.881,44.033C35.824,44.023 35.755,44.011 35.667,44.011C35.372,44.011 35.171,44.169 35.119,44.416C35.108,44.469 35.103,44.533 35.103,44.595L35.103,45.9L34.303,45.9L34.303,44.174Z" style="fill:white;fill-rule:nonzero;"/>
                    </g>
                    <g transform="matrix(1.93643,0,0,2.10822,817.711,222.6)">
                        <path d="M38.128,44.137C38.128,44.832 38.455,45.322 38.992,45.322C39.534,45.322 39.844,44.805 39.844,44.117C39.844,43.48 39.539,42.932 38.987,42.932C38.445,42.932 38.128,43.449 38.128,44.137ZM40.691,44.09C40.691,45.253 39.987,45.958 38.95,45.958C37.897,45.958 37.282,45.164 37.282,44.154C37.282,43.09 37.96,42.295 39.008,42.295C40.097,42.295 40.691,43.111 40.691,44.09Z" style="fill:white;fill-rule:nonzero;"/>
                    </g>
                    <g transform="matrix(1.93643,0,0,2.10822,817.711,222.6)">
                        <path d="M41.218,44.174C41.218,43.795 41.209,43.548 41.198,43.328L41.886,43.328L41.914,43.801L41.934,43.801C42.065,43.427 42.381,43.269 42.628,43.269C42.703,43.269 42.74,43.269 42.796,43.281L42.796,44.033C42.74,44.023 42.67,44.011 42.582,44.011C42.287,44.011 42.086,44.169 42.035,44.416C42.023,44.469 42.018,44.533 42.018,44.595L42.018,45.9L41.218,45.9L41.218,44.174Z" style="fill:white;fill-rule:nonzero;"/>
                    </g>
                    <g transform="matrix(1.93643,0,0,2.10822,817.711,222.6)">
                        <path d="M44.881,44.374C44.881,44.322 44.877,44.269 44.865,44.228C44.808,44.016 44.655,43.874 44.434,43.874C44.145,43.874 43.908,44.137 43.908,44.605C43.908,44.99 44.097,45.29 44.434,45.29C44.639,45.29 44.802,45.152 44.855,44.963C44.877,44.906 44.881,44.822 44.881,44.753L44.881,44.374ZM45.703,43.328C45.691,43.49 45.681,43.707 45.681,44.09L45.681,45.527C45.681,46.021 45.582,46.426 45.292,46.685C45.007,46.926 44.624,47 44.246,47C43.908,47 43.55,46.931 43.319,46.8L43.476,46.195C43.639,46.29 43.924,46.389 44.223,46.389C44.602,46.389 44.891,46.185 44.891,45.711L44.891,45.542L44.881,45.542C44.728,45.758 44.481,45.879 44.186,45.879C43.55,45.879 43.098,45.363 43.098,44.622C43.098,43.795 43.634,43.269 44.266,43.269C44.619,43.269 44.839,43.421 44.97,43.632L44.981,43.632L45.007,43.328L45.703,43.328Z" style="fill:white;fill-rule:nonzero;"/>
                    </g>
                    <g transform="matrix(1.93643,0,0,2.10822,817.711,222.6)">
                        <path d="M47.717,44.685C47.296,44.68 46.971,44.78 46.971,45.089C46.971,45.294 47.108,45.396 47.287,45.396C47.487,45.396 47.65,45.263 47.703,45.1C47.712,45.058 47.717,45.011 47.717,44.964L47.717,44.685ZM47.812,45.9L47.765,45.643L47.75,45.643C47.581,45.848 47.319,45.958 47.013,45.958C46.492,45.958 46.181,45.58 46.181,45.169C46.181,44.501 46.782,44.18 47.692,44.185L47.692,44.148C47.692,44.011 47.619,43.817 47.222,43.817C46.96,43.817 46.681,43.906 46.512,44.011L46.366,43.496C46.544,43.396 46.898,43.27 47.366,43.27C48.222,43.27 48.498,43.775 48.498,44.38L48.498,45.274C48.498,45.521 48.507,45.757 48.534,45.9L47.812,45.9Z" style="fill:white;fill-rule:nonzero;"/>
                    </g>
                    <g transform="matrix(1.93643,0,0,2.10822,817.711,222.6)">
                        <path d="M49.156,44.148C49.156,43.828 49.144,43.554 49.134,43.328L49.829,43.328L49.867,43.68L49.881,43.68C49.986,43.517 50.251,43.269 50.676,43.269C51.203,43.269 51.597,43.617 51.597,44.374L51.597,45.9L50.797,45.9L50.797,44.475C50.797,44.143 50.681,43.915 50.391,43.915C50.17,43.915 50.04,44.07 49.986,44.216C49.965,44.264 49.955,44.342 49.955,44.415L49.955,45.9L49.156,45.9L49.156,44.148Z" style="fill:white;fill-rule:nonzero;"/>
                    </g>
                    <g transform="matrix(1.93643,0,0,2.10822,817.711,222.6)">
                        <path d="M52.266,43.327L53.066,43.327L53.066,45.9L52.266,45.9L52.266,43.327ZM53.091,42.612C53.091,42.832 52.923,43.011 52.66,43.011C52.407,43.011 52.239,42.832 52.244,42.612C52.239,42.379 52.407,42.207 52.666,42.207C52.923,42.207 53.086,42.379 53.091,42.612Z" style="fill:white;fill-rule:nonzero;"/>
                    </g>
                    <g transform="matrix(1.93643,0,0,2.10822,817.711,222.6)">
                        <path d="M55.666,45.837C55.523,45.9 55.254,45.953 54.95,45.953C54.118,45.953 53.586,45.449 53.586,44.638C53.586,43.885 54.101,43.269 55.06,43.269C55.269,43.269 55.502,43.306 55.669,43.369L55.544,43.964C55.45,43.921 55.307,43.885 55.096,43.885C54.675,43.885 54.403,44.185 54.407,44.606C54.407,45.08 54.722,45.328 55.113,45.328C55.301,45.328 55.45,45.294 55.571,45.248L55.666,45.837Z" style="fill:white;fill-rule:nonzero;"/>
                    </g>
                    <g transform="matrix(1.93643,0,0,2.10822,817.711,222.6)">
                        <path d="M58.049,42.354L58.049,44.396C58.049,45.005 58.281,45.316 58.691,45.316C59.111,45.316 59.343,45.022 59.343,44.396L59.343,42.354L60.143,42.354L60.143,44.343C60.143,45.438 59.591,45.958 58.666,45.958C57.77,45.958 57.244,45.464 57.244,44.332L57.244,42.354L58.049,42.354Z" style="fill:white;fill-rule:nonzero;"/>
                    </g>
                    <g transform="matrix(1.93643,0,0,2.10822,817.711,222.6)">
                        <path d="M60.834,45.201C60.98,45.29 61.286,45.396 61.523,45.396C61.764,45.396 61.866,45.312 61.866,45.179C61.866,45.047 61.786,44.984 61.486,44.884C60.955,44.706 60.75,44.416 60.754,44.111C60.754,43.632 61.165,43.269 61.8,43.269C62.101,43.269 62.37,43.337 62.528,43.417L62.385,43.97C62.269,43.906 62.048,43.822 61.828,43.822C61.632,43.822 61.523,43.9 61.523,44.033C61.523,44.154 61.623,44.216 61.938,44.327C62.427,44.496 62.632,44.743 62.638,45.122C62.638,45.601 62.258,45.953 61.523,45.953C61.185,45.953 60.886,45.879 60.691,45.773L60.834,45.201Z" style="fill:white;fill-rule:nonzero;"/>
                    </g>
                    <g transform="matrix(1.93643,0,0,2.10822,817.711,222.6)">
                        <path d="M64.707,44.322C64.707,44.126 64.623,43.8 64.253,43.8C63.918,43.8 63.781,44.106 63.759,44.322L64.707,44.322ZM63.764,44.869C63.792,45.201 64.117,45.358 64.491,45.358C64.764,45.358 64.985,45.321 65.2,45.253L65.306,45.794C65.043,45.9 64.722,45.953 64.376,45.953C63.502,45.953 63.002,45.448 63.002,44.643C63.002,43.99 63.407,43.27 64.301,43.27C65.132,43.27 65.448,43.915 65.448,44.552C65.448,44.69 65.432,44.811 65.421,44.869L63.764,44.869Z" style="fill:white;fill-rule:nonzero;"/>
                    </g>
                    <g transform="matrix(1.93643,0,0,2.10822,817.711,222.6)">
                        <path d="M75.97,7.665C75.97,8.498 75.315,9.063 74.285,9.063L74.245,9.063C73.213,9.063 72.568,8.498 72.568,7.665L72.568,7.467C72.568,6.634 73.213,6.068 74.245,6.068L74.285,6.068C75.315,6.068 75.97,6.634 75.97,7.467L75.97,7.665ZM74.285,5.78L74.245,5.78C73.054,5.78 72.271,6.445 72.271,7.467L72.271,7.665C72.271,8.686 73.054,9.351 74.245,9.351L74.285,9.351C75.475,9.351 76.268,8.686 76.268,7.665L76.268,7.467C76.268,6.445 75.475,5.78 74.285,5.78Z" style="fill:white;fill-rule:nonzero;"/>
                    </g>
                    <g transform="matrix(1.93643,0,0,2.10822,817.711,222.6)">
                        <path d="M74.751,7.218C74.751,7.416 74.622,7.536 74.394,7.536L74.037,7.536C73.927,7.536 73.907,7.506 73.907,7.437L73.907,6.971C73.907,6.901 73.938,6.861 74.037,6.861L74.394,6.861C74.631,6.861 74.751,7 74.751,7.188L74.751,7.218ZM74.394,6.594L73.69,6.594C73.639,6.594 73.6,6.613 73.6,6.693L73.6,8.359C73.6,8.439 73.639,8.458 73.69,8.458L73.819,8.458C73.868,8.458 73.907,8.439 73.907,8.359L73.907,7.913C73.907,7.843 73.938,7.813 74.037,7.813L74.334,7.813C74.394,7.813 74.413,7.833 74.434,7.873L74.681,8.399C74.701,8.439 74.72,8.458 74.761,8.458L74.939,8.458C75.039,8.458 75.078,8.399 75.029,8.319L74.741,7.813C74.71,7.764 74.731,7.734 74.761,7.724C74.909,7.655 75.068,7.476 75.068,7.258L75.068,7.218C75.068,6.841 74.81,6.594 74.394,6.594Z" style="fill:white;fill-rule:nonzero;"/>
                    </g>
                    <g transform="matrix(1.93643,0,0,2.10822,817.711,222.6)">
                        <path d="M64.054,34.544C64.054,33.279 63.338,32.675 62.186,32.675C61.899,32.675 61.698,32.703 61.585,32.729L61.585,36.578C61.698,36.603 61.89,36.603 62.046,36.603C63.259,36.611 64.054,35.948 64.054,34.544Z" style="fill:white;fill-rule:nonzero;"/>
                    </g>
                    <g transform="matrix(1.93643,0,0,2.10822,817.711,222.6)">
                        <path d="M41.446,27.92L41.446,9.993L41.322,9.993L33.194,19.886L24.966,9.993L24.842,9.993L24.842,27.92L27.343,27.92L27.343,16.529L33.069,23.684L33.194,23.684L38.943,16.529L38.943,27.92L41.446,27.92Z" style="fill:white;fill-rule:nonzero;"/>
                    </g>
                    <g transform="matrix(1.93643,0,0,2.10822,817.711,222.6)">
                        <path d="M49.201,21.361L47.64,21.361L47.64,12.809L49.201,12.809C52.423,12.809 53.761,14.412 53.761,17.071C53.761,19.759 52.45,21.361 49.201,21.361ZM56.488,17.071C56.488,13.017 53.933,10.355 49.301,10.355L44.988,10.355L44.988,27.92L47.64,27.92L47.64,23.736L49.301,23.736C49.721,23.736 50.142,23.71 50.514,23.658L53.389,27.92L56.538,27.92L53.118,22.935C55.324,21.874 56.488,19.783 56.488,17.071Z" style="fill:white;fill-rule:nonzero;"/>
                    </g>
                    <g transform="matrix(1.93643,0,0,2.10822,817.711,222.6)">
                        <path d="M59.492,26.205L59.492,28.126L65.446,28.126L65.446,26.205L63.817,26.205L63.817,12.271L65.473,12.271L65.473,10.351L59.518,10.351L59.518,12.271L61.164,12.271L61.164,26.205L59.492,26.205Z" style="fill:white;fill-rule:nonzero;"/>
                    </g>
                    <g transform="matrix(1.93643,0,0,2.10822,817.711,222.6)">
                        <path d="M13.222,12.628C16.718,12.628 19.17,15.418 19.17,19.138C19.17,22.858 16.718,25.646 13.222,25.646C9.729,25.646 7.276,22.858 7.276,19.138C7.276,15.418 9.729,12.628 13.222,12.628ZM13.222,28.153C18.054,28.153 21.922,24.33 21.922,19.138C21.922,13.947 18.054,10.122 13.222,10.122C8.39,10.122 4.525,13.947 4.525,19.138C4.525,24.33 8.39,28.153 13.222,28.153Z" style="fill:white;fill-rule:nonzero;"/>
                    </g>
                    <g transform="matrix(1.93643,0,0,2.10822,817.711,222.6)">
                        <path d="M5.168,31.699L6.495,31.699L6.495,36.463L8.833,36.463L8.833,37.58L5.168,37.58L5.168,31.699ZM16.427,31.699L17.752,31.699L17.752,37.58L16.427,37.58L16.427,31.699ZM27.171,35.12C26.194,34.771 25.548,34.23 25.548,33.365C25.548,32.363 26.396,31.603 27.773,31.603C28.446,31.603 28.925,31.734 29.274,31.9L28.978,32.964C28.751,32.851 28.324,32.685 27.755,32.685C27.181,32.685 26.902,32.956 26.902,33.252C26.902,33.627 27.224,33.792 27.992,34.09C29.03,34.474 29.51,35.015 29.51,35.853C29.51,36.838 28.76,37.675 27.145,37.675C26.474,37.675 25.811,37.494 25.479,37.31L25.749,36.219C26.098,36.402 26.656,36.585 27.224,36.585C27.835,36.585 28.157,36.332 28.157,35.941C28.157,35.582 27.877,35.363 27.171,35.12ZM36.772,31.699L41.292,31.699L41.292,32.816L39.687,32.816L39.687,37.58L38.36,37.58L38.36,32.816L36.772,32.816L36.772,31.699ZM48.807,31.699L52.428,31.699L52.428,32.79L50.134,32.79L50.134,34.011L52.298,34.011L52.298,35.093L50.134,35.093L50.134,36.49L52.551,36.49L52.551,37.58L48.807,37.58L48.807,31.699ZM60.258,31.787C60.747,31.699 61.384,31.656 62.046,31.656C63.171,31.656 63.905,31.838 64.462,32.265C65.074,32.72 65.458,33.454 65.458,34.499C65.458,35.625 65.048,36.402 64.49,36.882C63.871,37.396 62.918,37.642 61.768,37.642C61.079,37.642 60.58,37.597 60.258,37.553L60.258,31.787ZM63.955,4.382L30.446,4.383C30.351,4.183 30.208,4.003 30.043,3.808C29.66,3.378 29.086,2.883 28.469,2.45C27.886,2.06 27.425,1.751 26.964,1.721C26.884,1.722 26.763,1.734 26.641,1.822C26.511,1.916 26.45,2.079 26.449,2.191C26.447,2.208 26.447,2.224 26.447,2.237C26.489,2.702 26.789,3.003 27.137,3.353C27.198,3.415 27.26,3.478 27.325,3.545C27.501,3.712 27.684,3.878 27.858,4.037C27.999,4.165 28.134,4.287 28.252,4.397C27.781,4.393 27.064,4.377 26.13,4.336C26.051,4.183 25.943,4.032 25.83,3.878C25.495,3.451 24.995,2.957 24.458,2.521L24.358,2.444C23.895,2.091 23.529,1.812 23.123,1.778C22.955,1.759 22.646,1.947 22.647,2.176C22.643,2.196 22.64,2.231 22.64,2.27C22.654,2.584 22.811,2.799 22.993,3.049L23.002,3.062C23.23,3.36 23.538,3.685 23.809,3.97C23.872,4.037 23.933,4.101 23.992,4.164C24.012,4.185 24.031,4.206 24.05,4.226C23.336,4.179 22.584,4.125 21.809,4.061C21.642,3.604 21.252,3.114 20.867,2.652C20.608,2.354 20.334,2.076 20.093,1.867C20.058,1.839 20.026,1.813 19.994,1.788C19.789,1.623 19.627,1.494 19.36,1.47C19.209,1.445 18.967,1.607 18.944,1.781C18.931,1.832 18.923,1.883 18.923,1.939C18.95,2.352 19.228,2.736 19.522,3.144C19.572,3.213 19.623,3.285 19.675,3.356L19.788,3.51C19.892,3.65 19.992,3.786 20.075,3.903C19.238,3.821 18.455,3.739 17.686,3.651C17.552,3.237 17.217,2.784 16.911,2.387C16.692,2.115 16.472,1.875 16.272,1.689C16.24,1.664 16.209,1.637 16.182,1.613C16.015,1.469 15.884,1.355 15.649,1.334C15.517,1.307 15.312,1.446 15.288,1.595C15.273,1.642 15.265,1.696 15.265,1.753C15.285,2.104 15.51,2.445 15.749,2.808C15.787,2.865 15.826,2.923 15.865,2.983L15.918,3.063C15.993,3.171 16.064,3.276 16.127,3.374C15.367,3.218 14.67,3.054 14.055,2.887C13.975,2.531 13.706,2.123 13.425,1.73C13.252,1.498 13.078,1.293 12.923,1.138C12.896,1.114 12.872,1.091 12.848,1.069C12.718,0.946 12.615,0.851 12.412,0.83C12.404,0.829 12.396,0.829 12.387,0.829C12.268,0.829 12.128,0.938 12.109,1.042C12.093,1.084 12.084,1.138 12.084,1.194C12.097,1.483 12.273,1.774 12.458,2.083L12.541,2.221C12.596,2.309 12.648,2.393 12.697,2.471C12.237,2.312 11.845,2.151 11.501,1.985C10.993,1.455 9.316,0.479 8.601,0.479C8.445,0.479 8.337,0.525 8.281,0.617C8.226,0.707 8.235,0.816 8.306,0.943C8.642,1.546 10.395,2.477 11.21,2.486C11.587,2.669 12.028,2.849 12.521,3.021C12.398,3.083 12.263,3.151 12.13,3.215C11.899,3.331 11.728,3.422 11.591,3.505C11.564,3.523 11.538,3.541 11.513,3.557C11.395,3.632 11.293,3.698 11.223,3.876C11.219,3.893 11.21,3.917 11.21,3.958C11.205,4.113 11.343,4.224 11.412,4.237C11.48,4.26 11.534,4.262 11.594,4.264C11.874,4.26 12.366,4.142 12.911,3.946L12.951,3.93C13.332,3.778 13.663,3.646 13.88,3.438C14.505,3.608 15.204,3.773 15.957,3.928C15.802,4.02 15.616,4.123 15.419,4.229C15.198,4.352 14.967,4.482 14.782,4.606C14.75,4.63 14.72,4.652 14.69,4.673C14.553,4.771 14.435,4.854 14.362,5.059L14.359,5.073C14.355,5.089 14.351,5.113 14.35,5.146C14.341,5.307 14.477,5.444 14.569,5.467C14.649,5.499 14.71,5.501 14.778,5.502C15.101,5.498 15.677,5.338 16.359,5.065L16.46,5.021C16.982,4.789 17.435,4.587 17.656,4.246C18.31,4.357 18.991,4.461 19.683,4.558C19.533,4.65 19.373,4.748 19.217,4.84C18.981,4.983 18.711,5.151 18.495,5.31C18.459,5.338 18.423,5.367 18.391,5.392C18.237,5.51 18.104,5.612 18.031,5.854L18.01,5.926L18.023,5.926L18.023,5.934C18.01,6.1 18.156,6.26 18.252,6.291C18.348,6.333 18.421,6.333 18.489,6.334C18.949,6.325 19.732,6.021 20.31,5.767L20.435,5.705C21.005,5.424 21.501,5.183 21.76,4.813C22.521,4.896 23.273,4.969 23.998,5.029C23.812,5.183 23.589,5.358 23.358,5.538C23.117,5.728 22.842,5.948 22.622,6.153C22.585,6.192 22.548,6.228 22.515,6.261C22.374,6.399 22.252,6.519 22.197,6.749L22.185,6.749L22.185,6.797L22.184,6.803C22.182,6.813 22.181,6.83 22.181,6.85C22.168,6.981 22.267,7.157 22.385,7.217C22.49,7.278 22.573,7.286 22.654,7.287C23.148,7.26 23.925,6.846 24.621,6.444C25.021,6.208 25.377,5.961 25.651,5.734C25.85,5.56 26.039,5.394 26.159,5.182C26.836,5.219 27.479,5.244 28.029,5.252C27.858,5.413 27.668,5.586 27.484,5.751C27.225,5.992 26.953,6.245 26.742,6.474C26.707,6.516 26.671,6.555 26.639,6.592C26.485,6.769 26.351,6.921 26.321,7.224C26.315,7.341 26.386,7.52 26.512,7.601C26.634,7.683 26.742,7.687 26.811,7.688C27.099,7.673 27.346,7.549 27.688,7.376L27.732,7.354C28.286,7.058 28.928,6.633 29.452,6.216L29.531,6.15C29.934,5.809 30.283,5.512 30.457,5.147L63.955,5.146C67,5.151 69.483,7.634 69.49,10.68L69.49,29.508L0.763,29.508L0.763,10.68C0.769,7.634 3.251,5.151 6.298,5.146L6.354,5.146L6.354,4.382L6.298,4.382C2.825,4.382 0,7.208 0,10.68L0,33.342C0,36.818 2.825,39.644 6.298,39.644L63.955,39.644C67.428,39.644 70.253,36.818 70.253,33.342L70.253,10.68C70.253,7.208 67.428,4.382 63.955,4.382Z" style="fill:white;fill-rule:nonzero;"/>
                    </g>
                </g>
            </g>
        </g>
    </g>
</svg>
