<?xml version="1.0" encoding="UTF-8" standalone="no"?>
<!DOCTYPE svg PUBLIC "-//W3C//DTD SVG 1.1//EN" "http://www.w3.org/Graphics/SVG/1.1/DTD/svg11.dtd">
<svg width="100%" height="100%" viewBox="0 0 1269 795" version="1.1" xmlns="http://www.w3.org/2000/svg" xmlns:xlink="http://www.w3.org/1999/xlink" xml:space="preserve" xmlns:serif="http://www.serif.com/" style="fill-rule:evenodd;clip-rule:evenodd;stroke-linejoin:round;stroke-miterlimit:2;">
    <g transform="matrix(1,0,0,1,-192539,-117811)">
        <g id="_01" serif:id="01">
        </g>
        <g id="_011" serif:id="01">
        </g>
        <g id="_012" serif:id="01">
        </g>
        <g id="_013" serif:id="01">
        </g>
        <g id="Artboard62" transform="matrix(0.892956,0,0,0.946529,24514.5,6341.07)">
            <rect x="188167" y="117767" width="1420.3" height="839.121" style="fill:none;"/>
            <g transform="matrix(4.90029,0,0,4.62294,181778,113384)">
                <g transform="matrix(0.966966,0,0,0.962707,1312.21,979.798)">
                    <path d="M63.3,32.6L63.3,8.3L0,8.3L0,118.8L28.6,118.8L28.6,75.3L60.1,75.3L60.1,51L28.6,51L28.6,32.6L63.3,32.6ZM104.7,43.7L78.2,43.7L78.2,118.7L104.7,118.7L104.7,43.7ZM91.4,0C83.2,0 76.5,6.5 76.5,14.7C76.4,22.9 83,29.7 91.2,29.8C99.4,29.9 106.2,23.3 106.3,15.1C106.4,6.9 99.8,0.1 91.6,0L91.4,0ZM123.3,118.7L169.3,118.7C192.8,118.7 207.4,106.8 207.4,87.4C207.4,79.1 204.8,71.3 200.1,66.7C196.6,63.2 192.8,61.4 184.9,59.9C193.6,54.8 197,48.3 197,37C197,18.3 186.1,8.2 165.9,8.2L123.4,8.2C123.3,8.3 123.3,118.7 123.3,118.7ZM152,51.8L152,30.1L157.3,30.1C166.1,30.1 170.7,33.7 170.7,41C170.7,48.1 166.1,51.8 157.3,51.8L152,51.8ZM152,96.4L152,73.2L157.8,73.2C167.2,73.2 169.7,73.5 172.9,75.2C178.2,78.1 180.1,84.7 177.2,89.9C176.1,91.8 174.5,93.4 172.6,94.4C169.6,95.7 165,96.4 158.4,96.4L152,96.4ZM249,8.3L220.4,8.3L220.4,118.7L283.5,118.7L283.5,94.4L249,94.4L249,8.3Z" style="fill:white;fill-rule:nonzero;"/>
                </g>
            </g>
        </g>
    </g>
</svg>
