<?xml version="1.0" encoding="UTF-8" standalone="no"?>
<!DOCTYPE svg PUBLIC "-//W3C//DTD SVG 1.1//EN" "http://www.w3.org/Graphics/SVG/1.1/DTD/svg11.dtd">
<svg width="100%" height="100%" viewBox="0 0 761 489" version="1.1" xmlns="http://www.w3.org/2000/svg" xmlns:xlink="http://www.w3.org/1999/xlink" xml:space="preserve" xmlns:serif="http://www.serif.com/" style="fill-rule:evenodd;clip-rule:evenodd;stroke-linejoin:round;stroke-miterlimit:2;">
    <g transform="matrix(1,0,0,1,-199122,-134821)">
        <g id="_01" serif:id="01">
        </g>
        <g id="_011" serif:id="01">
        </g>
        <g id="_012" serif:id="01">
        </g>
        <g id="_013" serif:id="01">
        </g>
        <g id="Artboard35" transform="matrix(1.74745,0,0,1.11837,77939.2,88933.3)">
            <rect x="69348" y="41030.7" width="435.19" height="436.441" style="fill:none;"/>
            <g transform="matrix(0.572261,0,0,0.894159,55744.4,27410.8)">
                <g transform="matrix(1.53795,0,0,1.6544,6986.17,-10308.2)">
                    <path d="M11311.8,15500.6C11311.8,15495.4 11307.3,15491.1 11301.6,15491.1L11271.6,15491.1C11265.9,15491.1 11261.4,15495.4 11261.4,15500.6L11261.4,15678.3C11261.4,15683.6 11265.9,15687.8 11271.6,15687.8L11301.6,15687.8C11307.3,15687.8 11311.8,15683.6 11311.8,15678.3L11311.8,15500.6Z" style="fill:rgb(151,192,107);"/>
                    <g transform="matrix(6.12323e-17,1,-1,6.12323e-17,26876.1,4302.86)">
                        <path d="M11311.8,15502.1C11311.8,15496.1 11307.3,15491.1 11301.6,15491.1L11271.6,15491.1C11265.9,15491.1 11261.4,15496.1 11261.4,15502.1L11261.4,15676.8C11261.4,15682.9 11265.9,15687.8 11271.6,15687.8L11301.6,15687.8C11307.3,15687.8 11311.8,15682.9 11311.8,15676.8L11311.8,15502.1Z" style="fill:rgb(151,192,107);"/>
                    </g>
                </g>
                <g transform="matrix(1.14511,0,0,1.14511,-227.059,3837.02)">
                    <g transform="matrix(9.29441,0,0,9.29441,19965.7,5256.21)">
                        <path d="M151.513,514.946C151.239,514.762 151.026,514.636 150.832,514.486C150.628,514.327 150.421,514.163 150.252,513.969C149.876,513.541 149.968,513.201 150.501,512.987C151.109,512.742 151.712,512.772 152.272,513.11C152.631,513.327 152.955,513.601 153.325,513.872C153.316,513.769 153.323,513.679 153.299,513.599C153.152,513.117 153.322,512.741 153.684,512.432C153.827,512.31 153.977,512.189 154.142,512.101C154.952,511.667 155.654,511.133 155.965,510.209C156.558,510.812 156.371,511.541 155.323,512.644C155.496,512.592 155.6,512.568 155.699,512.53C156.082,512.382 156.456,512.421 156.843,512.538C157.004,512.586 157.218,512.58 157.37,512.513C157.889,512.285 158.223,511.855 158.486,511.367C158.552,511.246 158.612,511.122 158.681,510.988C159.137,511.671 158.838,512.518 157.802,513.435C158.095,513.709 158.392,513.973 158.673,514.254C159.28,514.861 159.769,515.531 160.05,516.369C160.19,516.785 160.517,517.154 160.812,517.5C161.17,517.921 161.558,518.327 161.981,518.682C162.394,519.028 162.852,519.326 163.319,519.598C163.698,519.819 163.898,520.105 163.877,520.541C163.852,521.048 163.893,521.607 163.453,521.952C163.069,522.253 162.752,522.594 162.442,522.962C162.185,523.268 161.793,523.277 161.421,523.232C161.175,523.202 160.927,523.161 160.692,523.085C159.756,522.781 158.86,522.904 157.958,523.251C157.246,523.526 156.51,523.741 155.782,523.976C154.662,524.338 154.001,525.133 153.673,526.23C153.51,526.772 153.392,527.328 153.238,527.873C153.068,528.478 152.784,529.021 152.44,529.557C152.018,530.216 151.716,530.955 151.385,531.67C151.129,532.225 150.945,532.817 150.662,533.357C150.281,534.081 149.666,534.562 148.852,534.716C148.349,534.811 148.078,535.087 147.899,535.544C147.335,536.986 147.294,538.479 147.511,539.976C147.614,540.682 148.061,541.251 148.664,541.66C149.112,541.964 149.322,542.382 149.342,542.957C148.573,543.109 147.809,543.252 147.042,543.027C146.856,542.972 146.705,542.753 146.566,542.586C146.244,542.199 145.955,541.784 145.623,541.407C145.416,541.173 145.349,540.924 145.366,540.628C145.4,540.027 145.466,539.424 145.449,538.824C145.435,538.346 145.349,537.863 145.237,537.397C145.028,536.531 144.776,535.676 144.542,534.817C144.53,534.826 144.498,534.836 144.494,534.852C144.212,536.168 143.405,537.342 143.357,538.707C143.32,539.739 143.45,540.777 143.525,541.81C143.535,541.948 143.644,542.089 143.733,542.208C144.096,542.697 144.469,543.177 144.894,543.733C144.526,543.873 144.267,544.031 143.992,544.065C143.504,544.128 142.999,544.178 142.515,544.119C141.809,544.033 141.331,543.489 141.265,542.777C141.229,542.397 141.135,542.077 140.871,541.784C140.759,541.659 140.721,541.415 140.741,541.234C140.771,540.969 140.865,540.706 140.963,540.454C141.315,539.56 141.393,538.664 141.177,537.713C140.917,536.566 141.267,535.945 142.319,535.428C142.828,535.178 143.316,534.883 143.836,534.66C144.105,534.545 144.43,534.472 144.717,534.501C145.502,534.582 146.248,534.515 146.958,534.153C147.157,534.051 147.364,533.963 147.573,533.881C147.738,533.817 147.915,533.785 148.077,533.714C148.309,533.613 148.644,533.942 148.782,533.608C149.022,533.025 149.454,532.47 149.188,531.77C147.88,531.46 146.527,530.523 146.837,528.644C148.838,528.472 149.413,526.253 148.638,525.403C148.202,525.725 148.048,526.355 147.425,526.534C147.648,526.009 147.989,525.52 147.657,524.878C147.575,525.005 147.52,525.074 147.483,525.151C147.274,525.577 146.985,525.879 146.479,525.951C146.256,525.982 146.047,526.119 145.829,526.209C143.898,524.221 141.416,523.293 138.785,522.682C136.03,522.043 133.219,521.917 130.405,521.874C127.836,521.835 125.277,521.964 122.751,522.472C120.661,522.892 118.841,523.792 117.512,525.523C117.269,525.839 117.051,526.175 116.762,526.587C116.716,526.377 116.663,526.235 116.658,526.091C116.635,525.533 116.449,525.249 116.002,525.17C116.075,525.293 116.148,525.394 116.196,525.505C116.241,525.609 116.26,525.723 116.299,525.867C115.63,525.483 115.117,525.52 114.799,525.948C114.514,526.332 114.552,526.893 114.886,527.213C115.266,527.578 115.81,527.505 116.447,526.967C116.467,527.171 116.53,527.35 116.492,527.503C116.008,529.435 116.414,531.229 117.334,532.937C117.607,533.445 117.929,533.931 118.263,534.402C118.796,535.153 118.985,535.951 118.715,536.847C118.436,537.775 118.556,538.699 118.791,539.61C118.984,540.362 119.441,540.938 120.085,541.369C120.584,541.703 120.909,542.171 121.114,542.73C121.205,542.978 121.154,543.113 120.861,543.111C120.648,543.11 120.436,543.133 120.224,543.148C119.297,543.214 118.435,543.101 117.785,542.328C117.651,542.169 117.467,542.044 117.29,541.929C116.673,541.528 116.459,540.946 116.446,540.235C116.427,539.246 116.427,538.25 116.312,537.269C116.19,536.233 115.943,535.212 115.752,534.196C115.72,534.243 115.632,534.354 115.56,534.474C114.812,535.739 114.426,537.117 114.314,538.573C114.267,539.197 114.256,539.824 114.236,540.45C114.217,541.056 114.41,541.582 114.834,542.028C115.119,542.327 115.398,542.634 115.649,542.961C115.797,543.154 115.915,543.383 115.987,543.614C116.016,543.706 115.877,543.954 115.825,543.951C115.45,543.929 115.177,544.246 114.815,544.231C114.439,544.215 114.056,544.225 113.687,544.161C112.903,544.026 112.443,543.496 112.397,542.7C112.376,542.331 112.217,542.042 111.962,541.801C111.677,541.531 111.604,541.228 111.669,540.839C111.847,539.78 112.03,538.72 112.134,537.652C112.247,536.497 112.213,535.34 111.931,534.2C111.807,533.696 111.943,533.209 112.141,532.75C112.437,532.068 112.736,531.384 113.08,530.726C113.439,530.039 113.569,529.311 113.49,528.564C113.336,527.122 113.131,525.684 112.94,524.246C112.858,523.628 112.756,523.012 112.608,522.394C112.583,522.866 112.524,523.339 112.54,523.809C112.609,525.898 112.408,527.962 112.074,530.021C112.012,530.4 112.019,530.801 112.061,531.184C112.178,532.239 111.926,533.193 111.365,534.08C111.308,534.168 111.281,534.274 111.238,534.371C111.201,534.453 111.162,534.533 111.09,534.685C111.077,534.535 111.071,534.463 111.066,534.415C110.849,534.729 110.627,535.047 110.379,535.405C110.309,535.3 110.282,535.276 110.277,535.248C110.135,534.424 109.955,533.603 109.865,532.773C109.759,531.778 109.991,530.874 110.788,530.178C111.189,529.828 111.387,529.36 111.412,528.83C111.518,526.585 111.508,524.345 111.228,522.107C111.068,520.837 111.317,519.587 111.578,518.348C111.646,518.025 111.754,517.71 111.822,517.387C112.012,516.498 112.558,515.883 113.386,515.605C114.288,515.303 115.221,515.07 116.158,514.909C117.18,514.734 118.223,514.587 119.255,514.593C120.201,514.599 121.166,514.741 122.085,514.973C124.425,515.563 126.772,515.452 129.13,515.215C131.932,514.934 134.724,514.969 137.497,515.492C139.043,515.784 140.541,515.582 142.058,515.25C143.789,514.872 145.536,514.981 147.262,515.366C148.7,515.687 150.073,515.407 151.513,514.946" style="fill:white;fill-rule:nonzero;"/>
                    </g>
                    <g transform="matrix(9.29441,0,0,9.29441,19965.7,5427.66)">
                        <path d="M124.879,518.228C124.659,518.13 124.444,518.058 124.255,517.944C124.058,517.826 123.89,517.66 123.703,517.525C123.538,517.406 123.376,517.263 123.189,517.199C122.971,517.124 122.875,517.014 122.89,516.791C122.901,516.638 122.896,516.483 122.909,516.331C122.921,516.191 122.948,516.053 122.967,515.925C122.794,515.908 122.627,515.91 122.47,515.872C122.089,515.778 121.992,515.401 122.269,515.112C122.383,514.993 122.522,514.895 122.619,514.764C122.736,514.608 122.738,514.4 122.506,514.394C122.036,514.382 121.891,513.964 121.586,513.751C121.386,513.61 121.151,513.518 120.934,513.402C120.792,513.327 120.653,513.248 120.501,513.163C120.912,512.546 121.503,512.548 122.014,512.762C122.768,513.077 123.479,513.51 124.177,513.944C124.493,514.14 124.762,514.275 125.15,514.198C125.659,514.096 126.169,514.162 126.691,514.24C127.237,514.32 127.815,514.193 128.377,514.142C129.493,514.042 130.608,513.921 131.725,513.834C132.014,513.811 132.316,513.852 132.603,513.911C132.878,513.968 133.08,513.888 133.212,513.669C133.386,513.377 133.519,513.06 133.684,512.761C133.94,512.299 134.145,511.789 134.485,511.398C135.07,510.728 135.809,510.344 136.746,510.654C136.779,510.665 136.822,510.693 136.846,510.682C137.478,510.388 137.631,510.956 137.912,511.279C138.088,511.481 138.245,511.702 138.399,511.922C138.469,512.022 138.513,512.142 138.602,512.317C138.455,512.283 138.379,512.274 138.311,512.247C137.939,512.097 137.655,512.195 137.417,512.507C137.304,512.656 137.143,512.801 136.972,512.866C136.706,512.968 136.612,513.119 136.691,513.379C136.781,513.672 136.867,513.967 136.983,514.25C137.178,514.729 137.214,515.209 137.061,515.704C137.027,515.817 136.993,515.931 136.972,516.047C136.692,517.633 135.861,518.903 134.764,520.045C134.243,520.587 133.801,521.207 133.353,521.813C133.239,521.967 133.229,522.202 133.186,522.403C133.167,522.493 133.219,522.614 133.177,522.681C132.913,523.097 133.171,523.423 133.355,523.753C133.475,523.968 133.634,524.162 133.783,524.36C134.036,524.696 134.373,524.841 134.797,524.836C135.143,524.833 135.49,524.879 135.836,524.904L135.838,525.043C135.381,525.109 134.924,525.175 134.444,525.244C134.585,525.35 134.738,525.465 134.89,525.58C134.877,525.609 134.865,525.637 134.852,525.665C134.017,525.657 133.257,524.845 132.366,525.424C132.351,525.393 132.335,525.363 132.32,525.333C132.44,525.227 132.548,525.103 132.682,525.02C133.064,524.785 133.134,524.597 132.862,524.255C132.474,523.767 132.041,523.314 131.643,522.834C131.49,522.65 131.34,522.444 131.263,522.223C131.175,521.97 131.07,521.872 130.803,521.948C130.544,522.02 130.283,521.933 130.003,522.108C129.439,522.462 129.212,522.954 129.142,523.57C129.032,524.549 129.163,524.703 130.146,524.815C130.525,524.858 130.9,524.945 131.268,525.08C130.902,525.126 130.537,525.172 130.185,525.217C130.286,525.312 130.416,525.433 130.546,525.553C130.53,525.587 130.514,525.62 130.498,525.653C129.888,525.463 129.284,525.242 128.663,525.097C128.346,525.022 127.996,525.083 127.643,525.083C127.693,525.015 127.731,524.914 127.803,524.873C128.493,524.481 128.503,523.798 128.533,523.14C128.548,522.815 128.514,522.47 128.412,522.163C128.353,521.984 128.141,521.814 127.957,521.727C127.499,521.51 127.014,521.352 126.548,521.153C126.23,521.018 125.928,520.848 125.818,520.48C125.812,520.458 125.799,520.42 125.787,520.419C125.142,520.369 125.265,519.684 124.938,519.356C124.772,519.19 124.87,518.759 124.853,518.447C124.85,518.389 124.867,518.331 124.879,518.228" style="fill:white;fill-rule:nonzero;"/>
                    </g>
                </g>
            </g>
        </g>
    </g>
</svg>
