<?xml version="1.0" encoding="UTF-8" standalone="no"?>
<!DOCTYPE svg PUBLIC "-//W3C//DTD SVG 1.1//EN" "http://www.w3.org/Graphics/SVG/1.1/DTD/svg11.dtd">
<svg width="100%" height="100%" viewBox="0 0 552 489" version="1.1" xmlns="http://www.w3.org/2000/svg" xmlns:xlink="http://www.w3.org/1999/xlink" xml:space="preserve" xmlns:serif="http://www.serif.com/">
    <defs>
        <style type="text/css">
        fill-rule:evenodd;clip-rule:evenodd;stroke-linecap:round;stroke-linejoin:round;stroke-miterlimit:1.5;
            <![CDATA[
        @font-face {
          font-family: 'Comfortaa';
          src: url('https://fonts.googleapis.com/css2?family=Comfortaa:wght@300..700&family=Poppins:ital,wght@0,100;0,200;0,300;0,400;0,500;0,600;0,700;0,800;0,900;1,100;1,200;1,300;1,400;1,500;1,600;1,700;1,800;1,900&family=Roboto:wght@300;400;500;700&display=swap');
        }
      ]]>
        </style>
    </defs>
    <g transform="matrix(1,0,0,1,-199122,-134821)">
        <g id="_01" serif:id="01">
        </g>
        <g id="_011" serif:id="01">
        </g>
        <g id="_012" serif:id="01">
        </g>
        <g id="_013" serif:id="01">
        </g>
        <g id="Artboard35" transform="matrix(1.26759,0,0,1.11837,111217,88933.3)">
            <rect x="69348" y="41030.7" width="435.19" height="436.441" style="fill:none;"/>
            <g transform="matrix(1.25356,0,0,1.52715,67163,40308)">
                <g>
                    <g transform="matrix(0.776928,-0.0229659,0.0246844,0.722838,-34.3174,-129.971)">
                        <g transform="matrix(45.8333,0,0,45.8333,2504.27,1194.88)">
                        </g>
                        <text x="2459.58px" y="1194.88px" style="font-family:'Comfortaa-SemiBold', 'Comfortaa';font-weight:600;font-size:45.833px;fill:white;">Si</text>
                    </g>
                    <g transform="matrix(0.777176,-0.0139185,0.01496,0.723069,-86.2073,-249.929)">
                        <g transform="matrix(45.8333,0,0,45.8333,2515.03,1191.95)">
                        </g>
                        <text x="2450.41px" y="1191.95px" style="font-family:'Comfortaa-SemiBold', 'Comfortaa';font-weight:600;font-size:45.833px;fill:white;">C<tspan x="2484.05px " y="1191.95px ">a</tspan></text>
                    </g>
                    <g transform="matrix(0.777313,0.0030009,-0.00322545,0.723196,58.7785,-292.085)">
                        <g transform="matrix(45.8333,0,0,45.8333,2520.71,1191.95)">
                        </g>
                        <text x="2444.72px" y="1191.95px" style="font-family:'Comfortaa-SemiBold', 'Comfortaa';font-weight:600;font-size:45.833px;fill:white;">Mg</text>
                    </g>
                    <g transform="matrix(0.926373,-0.187318,0.201336,0.861879,-2743.77,920.132)">
                        <g transform="matrix(1.20548,0.259655,-0.259655,1.20548,3872.92,-13169.3)">
                            <path d="M3117.83,10723.3L3170.56,10753L3170.56,10812.4L3117.83,10842.1L3065.11,10812.4L3065.11,10753L3117.83,10723.3Z" style="fill:none;stroke:white;stroke-width:6.76px;"/>
                        </g>
                        <g transform="matrix(1.20548,0.259655,-0.259655,1.20548,3999.28,-13143.1)">
                            <path d="M3117.83,10723.3L3170.56,10753L3170.56,10812.4L3117.83,10842.1L3065.11,10812.4L3065.11,10753L3117.83,10723.3Z" style="fill:none;stroke:white;stroke-width:6.76px;"/>
                        </g>
                        <g transform="matrix(1.20548,0.259655,-0.259655,1.20548,3914.24,-13048.1)">
                            <path d="M3117.83,10723.3L3170.56,10753L3170.56,10812.4L3117.83,10842.1L3065.11,10812.4L3065.11,10753L3117.83,10723.3Z" style="fill:none;stroke:white;stroke-width:6.76px;"/>
                        </g>
                        <g transform="matrix(1,0,0,1,1712.3,-10142.9)">
                            <circle cx="3135.63" cy="10708.4" r="17.746" style="fill:rgb(151,192,107);stroke:white;stroke-width:6.25px;"/>
                        </g>
                        <g transform="matrix(1,0,0,1,1768.5,-10092)">
                            <circle cx="3135.63" cy="10708.4" r="17.746" style="fill:rgb(151,192,107);stroke:white;stroke-width:6.25px;"/>
                        </g>
                        <g transform="matrix(1,-3.58468e-17,-5.13772e-17,1,1839.81,-10112)">
                            <circle cx="3135.63" cy="10708.4" r="17.746" style="fill:rgb(151,192,107);stroke:white;stroke-width:6.25px;"/>
                        </g>
                        <g transform="matrix(1,-6.36024e-17,-9.58557e-17,1,1891.94,-10066.7)">
                            <circle cx="3135.63" cy="10708.4" r="17.746" style="fill:rgb(151,192,107);stroke:white;stroke-width:6.25px;"/>
                        </g>
                        <g transform="matrix(1,-6.36024e-17,-1.40334e-16,1,1877.64,-9994.22)">
                            <circle cx="3135.63" cy="10708.4" r="17.746" style="fill:rgb(151,192,107);stroke:white;stroke-width:6.25px;"/>
                        </g>
                        <g transform="matrix(1,0,0,1,1807.24,-9969.42)">
                            <circle cx="3135.63" cy="10708.4" r="17.746" style="fill:rgb(151,192,107);stroke:white;stroke-width:6.25px;"/>
                        </g>
                        <g transform="matrix(1,0,0,1,1791.13,-9898.39)">
                            <circle cx="3135.63" cy="10708.4" r="17.746" style="fill:rgb(151,192,107);stroke:white;stroke-width:6.25px;"/>
                        </g>
                        <g transform="matrix(1,0,0,1,1719.64,-9875.13)">
                            <circle cx="3135.63" cy="10708.4" r="17.746" style="fill:rgb(151,192,107);stroke:white;stroke-width:6.25px;"/>
                        </g>
                        <g transform="matrix(1,0,0,1,1663.79,-9927.06)">
                            <circle cx="3135.63" cy="10708.4" r="17.746" style="fill:rgb(151,192,107);stroke:white;stroke-width:6.25px;"/>
                        </g>
                        <g transform="matrix(1,0,0,1,1751.87,-10019.7)">
                            <circle cx="3135.63" cy="10708.4" r="17.746" style="fill:rgb(151,192,107);stroke:white;stroke-width:6.25px;"/>
                        </g>
                        <g transform="matrix(1,0,0,1,1679.76,-9997.46)">
                            <circle cx="3135.63" cy="10708.4" r="17.746" style="fill:rgb(151,192,107);stroke:white;stroke-width:6.25px;"/>
                        </g>
                        <g transform="matrix(1,0,0,1,1624.97,-10048.6)">
                            <circle cx="3135.63" cy="10708.4" r="17.746" style="fill:rgb(151,192,107);stroke:white;stroke-width:6.25px;"/>
                        </g>
                        <g transform="matrix(1,0,0,1,1640.7,-10121.2)">
                            <circle cx="3135.63" cy="10708.4" r="17.746" style="fill:rgb(151,192,107);stroke:white;stroke-width:6.25px;"/>
                        </g>
                    </g>
                </g>
            </g>
        </g>
    </g>
</svg>
